<?xml version="1.0" encoding="utf-8"?>
<!-- Generator: Adobe Illustrator 19.0.0, SVG Export Plug-In . SVG Version: 6.00 Build 0)  -->
<svg version="1.1" id="Layer_1" xmlns="http://www.w3.org/2000/svg" xmlns:xlink="http://www.w3.org/1999/xlink" x="0px" y="0px"
	 width="30px" height="30px" viewBox="-405 580.5 30 30" style="enable-background:new -405 580.5 30 30;" xml:space="preserve">
<style type="text/css">
	.st0{opacity:0.1;}
</style>
<path class="st0" d="M-397.9,610.5v-6.8c0-0.5,0.3-0.6,0.5-0.7l5-2.4c0.4-0.2,0.6-0.5,0.7-0.9c0-0.4-0.1-0.8-0.4-1
	c-1.2-0.9-1.7-3-1.7-4.1v-2.8c0-1.2,2.1-2.8,4-2.8v0c1.9,0,4,1.6,4,2.8v2.8c0,1.1-0.5,3.2-1.7,4.1c-0.3,0.2-0.5,0.6-0.4,1
	c0,0.4,0.3,0.7,0.7,0.9l4.9,2.3c0,0,0.5,0.1,0.5,0.7l0,6.8h1.1v-7.4c0-0.7-1.1-1.1-1.1-1.1l-4.9-2.3c1.6-1.2,2.1-3.7,2.1-5v-2.8
	c0-1.9-2.6-4-5.1-4l0,0c-2.5,0-5.1,2.1-5.1,4v2.8c0,1.2,0.6,3.7,2.2,5l-5,2.4c0,0-1.1,0.5-1.1,1.1v7.4H-397.9z"/>
</svg>
