<?xml version="1.0" encoding="utf-8"?>
<!-- Generator: Adobe Illustrator 18.1.0, SVG Export Plug-In . SVG Version: 6.00 Build 0)  -->
<!DOCTYPE svg PUBLIC "-//W3C//DTD SVG 1.1//EN" "http://www.w3.org/Graphics/SVG/1.1/DTD/svg11.dtd">
<svg version="1.1" id="Layer_1" xmlns="http://www.w3.org/2000/svg" xmlns:xlink="http://www.w3.org/1999/xlink" x="0px" y="0px"
	 width="925.1px" height="44.2px" viewBox="-132 398.7 925.1 44.2" enable-background="new -132 398.7 925.1 44.2"
	 xml:space="preserve">
<g>
	<g>
		<polygon fill="#8CBD22" points="376.7,426.5 369.6,419.4 362.5,426.5 		"/>
	</g>
	<g>
		<polygon fill="#E95441" points="307.1,419.4 314.2,426.5 321.2,419.4 		"/>
	</g>
	<g>
		<polygon fill="#8CBD22" points="255.2,430 262.3,422.9 255.2,415.9 		"/>
	</g>
	<g>
		<polygon fill="#E95441" points="210.8,420.5 200.7,420.5 200.8,430.5 		"/>
	</g>
	<g>
		<polygon fill="#E95441" points="156.3,442.9 147.8,434.4 139.3,442.9 		"/>
	</g>
	<g>
		<polygon fill="#E95441" points="95.5,415.9 88.4,423 95.5,430 		"/>
	</g>
	<g>
		<polygon fill="#2EB0D1" points="39,430.5 39,420.4 29,420.4 		"/>
	</g>
	<g>
		<polygon fill="#E95441" points="-16.4,430.5 -16.4,420.4 -26.4,420.4 		"/>
	</g>
	<g>
		<polygon fill="#8CBD22" points="-109.5,418.7 -100.9,427.2 -92.4,418.7 		"/>
	</g>
	<g>
		<polygon fill="#2EB0D1" points="-124.9,416.3 -132,423.4 -124.9,430.5 		"/>
	</g>
	<g>
		<polygon fill="#E95441" points="-80.1,404.2 -73,411.3 -65.9,404.2 		"/>
	</g>
	<g>
		<polygon fill="#E95441" points="-39.4,442.6 -46.4,435.5 -53.5,442.6 		"/>
	</g>
	<g>
		<polygon fill="#8CBD22" points="13.3,414.9 4.7,423.4 13.2,431.9 		"/>
	</g>
	<g>
		<polygon fill="#8CBD22" points="56.9,425.9 67,425.9 67,415.9 		"/>
	</g>
	<g>
		<polygon fill="#8CBD22" points="112.8,419.8 119.9,426.9 127,419.9 		"/>
	</g>
	<g>
		<polygon fill="#8CBD22" points="172.2,430.5 179.3,423.4 172.2,416.3 		"/>
	</g>
	<g>
		<polygon fill="#2EB0D1" points="227.7,414.9 227.7,426.9 239.7,426.9 		"/>
	</g>
	<g>
		<polygon fill="#2EB0D1" points="290.2,416.3 283.1,423.4 290.2,430.5 		"/>
	</g>
	<g>
		<polygon fill="#E95441" points="333.1,410.7 345.1,410.7 345.1,398.7 		"/>
	</g>
	<g>
		<polygon fill="#2EB0D1" points="400,430.9 400,420.9 390,420.9 		"/>
	</g>
</g>
</svg>
