<?xml version="1.0" encoding="utf-8"?>
<!-- Generator: Adobe Illustrator 18.1.1, SVG Export Plug-In . SVG Version: 6.00 Build 0)  -->
<svg version="1.1" id="Layer_1" xmlns="http://www.w3.org/2000/svg" xmlns:xlink="http://www.w3.org/1999/xlink" x="0px" y="0px"
	 width="1320.7px" height="44.2px" viewBox="-1113 978.8 1320.7 44.2" enable-background="new -1113 978.8 1320.7 44.2"
	 xml:space="preserve">
<g>
	<g>
		<polygon fill="#E95441" points="-604.3,1006.6 -611.4,999.5 -618.5,1006.6 		"/>
	</g>
	<g>
		<polygon fill="#E95441" points="-673.9,999.5 -666.8,1006.6 -659.8,999.5 		"/>
	</g>
	<g>
		<polygon fill="#E95441" points="-725.8,1010.1 -718.7,1003 -725.8,996 		"/>
	</g>
	<g>
		<polygon fill="#E95441" points="-770.2,1000.6 -780.3,1000.6 -780.2,1010.6 		"/>
	</g>
	<g>
		<polygon fill="#E95441" points="-824.7,1023 -833.2,1014.5 -841.7,1023 		"/>
	</g>
	<g>
		<polygon fill="#E95441" points="-885.5,996 -892.6,1003.1 -885.5,1010.1 		"/>
	</g>
	<g>
		<polygon fill="#E95441" points="-942,1010.6 -942,1000.5 -952,1000.5 		"/>
	</g>
	<g>
		<polygon fill="#E95441" points="-997.4,1010.6 -997.4,1000.5 -1007.4,1000.5 		"/>
	</g>
	<g>
		<polygon fill="#E95441" points="-1090.5,998.8 -1081.9,1007.3 -1073.4,998.8 		"/>
	</g>
	<g>
		<polygon fill="#E95441" points="-1105.9,996.4 -1113,1003.5 -1105.9,1010.6 		"/>
	</g>
	<g>
		<polygon fill="#E95441" points="-1061.1,984.3 -1054,991.4 -1046.9,984.3 		"/>
	</g>
	<g>
		<polygon fill="#E95441" points="-1020.4,1022.7 -1027.4,1015.6 -1034.5,1022.7 		"/>
	</g>
	<g>
		<polygon fill="#E95441" points="-967.7,995 -976.3,1003.5 -967.8,1012 		"/>
	</g>
	<g>
		<polygon fill="#E95441" points="-924.1,1006 -914,1006 -914,996 		"/>
	</g>
	<g>
		<polygon fill="#E95441" points="-868.2,999.9 -861.1,1007 -854,1000 		"/>
	</g>
	<g>
		<polygon fill="#E95441" points="-808.8,1010.6 -801.7,1003.5 -808.8,996.4 		"/>
	</g>
	<g>
		<polygon fill="#E95441" points="-753.3,995 -753.3,1007 -741.3,1007 		"/>
	</g>
	<g>
		<polygon fill="#E95441" points="-690.8,996.4 -697.9,1003.5 -690.8,1010.6 		"/>
	</g>
	<g>
		<polygon fill="#E95441" points="-647.9,990.8 -635.9,990.8 -635.9,978.8 		"/>
	</g>
	<g>
		<polygon fill="#E95441" points="-581,1011 -581,1001 -591,1001 		"/>
	</g>
</g>
<g>
	<g>
		<polygon fill="#8CBD22" points="-538.7,995.2 -531.6,1002.3 -524.5,995.2 		"/>
	</g>
	<g>
		<polygon fill="#E95441" points="-469.1,1002.3 -476.2,995.2 -483.2,1002.3 		"/>
	</g>
	<g>
		<polygon fill="#8CBD22" points="-417.2,991.7 -424.3,998.8 -417.2,1005.8 		"/>
	</g>
	<g>
		<polygon fill="#E95441" points="-372.8,1001.2 -362.7,1001.2 -362.8,991.2 		"/>
	</g>
	<g>
		<polygon fill="#E95441" points="-318.3,978.8 -309.8,987.3 -301.3,978.8 		"/>
	</g>
	<g>
		<polygon fill="#E95441" points="-257.5,1005.8 -250.4,998.7 -257.5,991.7 		"/>
	</g>
	<g>
		<polygon fill="#2EB0D1" points="-201,991.2 -201,1001.3 -191,1001.3 		"/>
	</g>
	<g>
		<polygon fill="#E95441" points="-145.6,991.2 -145.6,1001.3 -135.6,1001.3 		"/>
	</g>
	<g>
		<polygon fill="#8CBD22" points="-52.5,1003 -61.1,994.5 -69.6,1003 		"/>
	</g>
	<g>
		<polygon fill="#2EB0D1" points="-37.1,1005.4 -30,998.3 -37.1,991.2 		"/>
	</g>
	<g>
		<polygon fill="#E95441" points="-81.9,1017.5 -89,1010.4 -96.1,1017.5 		"/>
	</g>
	<g>
		<polygon fill="#E95441" points="-122.6,979.1 -115.6,986.2 -108.5,979.1 		"/>
	</g>
	<g>
		<polygon fill="#8CBD22" points="-175.3,1006.8 -166.7,998.3 -175.2,989.8 		"/>
	</g>
	<g>
		<polygon fill="#8CBD22" points="-218.9,995.8 -229,995.8 -229,1005.8 		"/>
	</g>
	<g>
		<polygon fill="#8CBD22" points="-274.8,1001.9 -281.9,994.8 -289,1001.8 		"/>
	</g>
	<g>
		<polygon fill="#8CBD22" points="-334.2,991.2 -341.3,998.3 -334.2,1005.4 		"/>
	</g>
	<g>
		<polygon fill="#2EB0D1" points="-389.7,1006.8 -389.7,994.8 -401.7,994.8 		"/>
	</g>
	<g>
		<polygon fill="#2EB0D1" points="-452.2,1005.4 -445.1,998.3 -452.2,991.2 		"/>
	</g>
	<g>
		<polygon fill="#E95441" points="-495.1,1011 -507.1,1011 -507.1,1023 		"/>
	</g>
	<g>
		<polygon fill="#2EB0D1" points="-562,990.8 -562,1000.8 -552,1000.8 		"/>
	</g>
</g>
</svg>
