<svg xmlns="http://www.w3.org/2000/svg" width="30" height="30" viewBox="0 0 30 30"><path fill-rule="evenodd" clip-rule="evenodd" fill="#F15640" d="M10.3 15.8c-.1.1-.2.3-.2.5s.1.4.2.5l4.5 4.4 4.5-4.4c.3-.3.3-.8 0-1s-.8-.3-1 0l-2.7 2.7V4.2c0-.4-.3-.7-.7-.7-.4 0-.7.3-.7.7v14.3l-2.7-2.7c-.4-.3-.9-.3-1.2 0zm14.8-4.9h-6.6v1.5h5.7c.5 0 .9.4.9.9v11.5c0 .5-.4.9-.9.9H5.3c-.5 0-.9-.4-.9-.9V13.3c0-.5.4-.9.9-.9h5.8v-1.5H4.5c-.8 0-1.5.7-1.5 1.5v13.3c0 .8.7 1.5 1.5 1.5h20.7c.8 0 1.5-.7 1.5-1.5V12.4c-.1-.9-.7-1.5-1.6-1.5z"/></svg>