<?xml version="1.0" encoding="utf-8"?>
<!-- Generator: Adobe Illustrator 17.1.0, SVG Export Plug-In . SVG Version: 6.00 Build 0)  -->
<!DOCTYPE svg PUBLIC "-//W3C//DTD SVG 1.1//EN" "http://www.w3.org/Graphics/SVG/1.1/DTD/svg11.dtd">
<svg version="1.1" id="Layer_1" xmlns="http://www.w3.org/2000/svg" xmlns:xlink="http://www.w3.org/1999/xlink" x="0px" y="0px"
	 width="30px" height="30px" viewBox="0 0 30 30" enable-background="new 0 0 30 30" xml:space="preserve">
<g id="Login_4_">
	<g>
		<path fill-rule="evenodd" clip-rule="evenodd" fill="#F15640" d="M10.3,15.8c-0.1,0.1-0.2,0.3-0.2,0.5c0,0.2,0.1,0.4,0.2,0.5
			l4.5,4.4l4.5-4.4c0.3-0.3,0.3-0.8,0-1s-0.8-0.3-1,0l-2.7,2.7V4.2c0-0.4-0.3-0.7-0.7-0.7c-0.4,0-0.7,0.3-0.7,0.7v14.3l-2.7-2.7
			C11.1,15.5,10.6,15.5,10.3,15.8z M25.1,10.9h-6.6v1.5h5.7c0.5,0,0.9,0.4,0.9,0.9v11.5c0,0.5-0.4,0.9-0.9,0.9l-18.9,0
			c-0.5,0-0.9-0.4-0.9-0.9V13.3c0-0.5,0.4-0.9,0.9-0.9h5.8l0-1.5H4.5c-0.8,0-1.5,0.7-1.5,1.5v13.3c0,0.8,0.7,1.5,1.5,1.5h20.7
			c0.8,0,1.5-0.7,1.5-1.5V12.4C26.6,11.5,26,10.9,25.1,10.9z"/>
	</g>
</g>
</svg>
