<?xml version="1.0" encoding="utf-8"?>
<!-- Generator: Adobe Illustrator 18.1.1, SVG Export Plug-In . SVG Version: 6.00 Build 0)  -->
<svg version="1.1" id="Layer_1" xmlns="http://www.w3.org/2000/svg" xmlns:xlink="http://www.w3.org/1999/xlink" x="0px" y="0px"
	 viewBox="0 0 30 30" enable-background="new 0 0 30 30" xml:space="preserve">
<g>
	<g>
		<g>
			<polygon fill="#FFD766" points="6.5,19 11.8,13.6 6.5,8.3 			"/>
		</g>
		<polygon opacity="0.9" fill="#49B249" enable-background="new    " points="1.1,13.6 6.5,19 11.8,13.6 		"/>
		<g>
			<polygon fill="#FF523B" points="0.1,12.6 5.4,12.6 5.4,7.3 			"/>
		</g>
	</g>
	<g>
		<path fill="#0F0F0F" d="M15.3,10.9h0.9v5.3h-0.9V10.9z"/>
		<path fill="#0F0F0F" d="M17.5,10.9h1.2l0.8,2.2c0.3,0.7,0.5,1.5,0.6,1.9h0c0.1-0.4,0.4-1.2,0.6-1.9l0.9-2.3h1.2v5.3h-0.9V14
			c0-1,0-1.8,0-2.1h0c-0.1,0.3-0.2,0.9-0.5,1.7l-1,2.7h-0.6l-1-2.7c-0.3-0.8-0.5-1.4-0.5-1.7h0c0,0.3,0,1.1,0,2.1v2.2h-0.8
			L17.5,10.9C17.5,10.9,17.5,10.9,17.5,10.9z"/>
		<path fill="#0F0F0F" d="M24,10.9h1.5c1.8,0,2.6,1,2.6,2.7c0,1.7-0.8,2.7-2.6,2.7H24V10.9z M25.5,15.7c1.1,0,1.6-0.7,1.6-2.1
			s-0.5-2.1-1.6-2.1h-0.6v4.3L25.5,15.7L25.5,15.7z"/>
		<path fill="#0F0F0F" d="M29.4,10.8c0.3,0,0.5,0.2,0.5,0.5s-0.2,0.5-0.5,0.5s-0.5-0.2-0.5-0.5C28.9,11,29.1,10.8,29.4,10.8z
			 M29,12.4c0.2,0,0.6,0,0.9-0.1v3.1c0,0.4,0,0.8,0.1,0.9H29V12.4L29,12.4z"/>
	</g>
</g>
</svg>
