<?xml version="1.0" encoding="utf-8"?>
<!-- Generator: Adobe Illustrator 18.1.1, SVG Export Plug-In . SVG Version: 6.00 Build 0)  -->
<svg version="1.1" id="Layer_1" xmlns="http://www.w3.org/2000/svg" xmlns:xlink="http://www.w3.org/1999/xlink" x="0px" y="0px"
	 viewBox="-2297.6 2060.4 440 179.7" enable-background="new -2297.6 2060.4 440 179.7" xml:space="preserve">
<g>
	<g>
		<path fill="#0F0F0F" d="M-2074.3,2106.9h8.5v48.9h-8.5V2106.9z"/>
		<path fill="#0F0F0F" d="M-2054.4,2106.9h10.6l7.6,20.4c2.4,6.5,5,14,5.9,17.8h0.2c0.8-3.8,3.4-11.3,5.7-17.5l7.8-20.7h10.6v48.9
			h-8.1v-20.5c0-8.9,0.2-16.2,0.3-19.1h-0.3c-0.8,2.7-2.3,8.1-5,15.1l-9.2,24.5h-5.3l-9-24.5c-2.6-7.1-4.3-12.4-5-15.1h-0.2
			c0.1,2.8,0.3,10.2,0.3,19.1v20.5h-7V2106.9z"/>
		<path fill="#0F0F0F" d="M-1994.5,2106.9h13.6c16.5,0,23.5,9.3,23.5,24.4s-6.9,24.5-23.4,24.5h-13.6V2106.9z M-1981.1,2150.9
			c10,0,14.3-6.2,14.3-19.6c0-13.5-4.3-19.5-14.2-19.5h-5v39.2H-1981.1z"/>
		<path fill="#0F0F0F" d="M-1944.9,2106c2.8,0,4.5,1.7,4.5,4.1c0,2.5-1.7,4.3-4.5,4.3s-4.5-1.7-4.5-4.3
			C-1949.4,2107.7-1947.7,2106-1944.9,2106z M-1948.9,2120c1.7,0,5.5-0.2,8-0.6v28.3c0,4,0.1,7.3,0.6,8h-8.6V2120z"/>
	</g>
	<g>
		<g>
			<path fill="#0F0F0F" d="M-2075.5,2172.2h2.3v16.3h-2.3V2172.2z"/>
			<path fill="#0F0F0F" d="M-2069.7,2176.7c0.1,0,1.3,0,2.1-0.2v1.6c0.6-0.8,1.9-1.8,3.8-1.8c2.9,0,3.7,2,3.7,4.5v5
				c0,1.3,0,2.3,0.2,2.6h-2.4v-7.3c0-2.1-0.5-3.4-2.4-3.4c-1.3,0-2.2,0.6-2.7,1.1v9.5h-2.2V2176.7z"/>
			<path fill="#0F0F0F" d="M-2056.7,2178h-1.6v-1.3h1.7v-3.1c0.2,0,1.3,0,2.1-0.2v3.2h2.7v1.3h-2.7v7.4c0,1.6,0.4,2,1.8,2
				c0.4,0,0.8-0.1,1.1-0.2c0,0.1,0.1,0.4,0.1,0.7c0,0.2,0,0.5,0,0.6c-0.1,0.1-0.8,0.2-1.6,0.2c-2.4,0-3.4-0.7-3.4-3.3V2178z"/>
			<path fill="#0F0F0F" d="M-2048.2,2182.8c0,3.2,1.1,4.9,3.1,4.9c1.8,0,2.3-1.4,2.6-2.1c0.6,0,1.6,0.1,2,0.4c-0.6,1.8-2,3-4.6,3
				c-3.7,0-5.4-2.6-5.4-6.3c0-3.6,1.7-6.1,5.3-6.1c3.5,0,4.9,2.5,4.9,5.3c0,0.3,0,0.7,0,1H-2048.2z M-2042.6,2181.6
				c0-2.6-0.7-4-2.7-4c-1.8,0-2.8,1.3-2.9,4H-2042.6z"/>
			<path fill="#0F0F0F" d="M-2032,2186.8c3.3,0,4.4,1,4.4,2.7c0,2.2-1.8,4-6.1,4c-3.4,0-5-1.3-5-3c0-1.2,0.9-1.9,1.9-2.2
				c-0.9-0.4-1.3-1-1.3-1.8c0-1,0.7-1.7,1.8-2.3c-1-0.7-1.7-1.9-1.7-3.5c0-2.7,1.9-4.3,4.7-4.3c0.7,0,1.4,0.1,1.9,0.3h3.9v1.3h-2.6
				c0.6,0.4,1.4,1.4,1.4,2.9c0,2.5-1.9,4.2-4.7,4.2c-0.9,0-1.6-0.1-2.3-0.4c-0.4,0.3-0.7,0.7-0.7,1.2c0,0.7,0.6,1,2.4,1H-2032z
				 M-2034.2,2188.7c-0.9,0-1.4,0-1.8-0.1c-0.4,0.3-0.8,0.8-0.8,1.7c0,1.4,1.1,2.1,3.5,2.1c2.3,0,3.9-0.9,3.9-2.3
				c0-1-0.6-1.4-2.7-1.4H-2034.2z M-2030.8,2180.8c0-2.1-0.9-3.2-2.5-3.2c-1.7,0-2.5,1.2-2.5,3.3c0,2.1,0.9,3.2,2.5,3.2
				C-2031.7,2184-2030.8,2182.8-2030.8,2180.8z"/>
			<path fill="#0F0F0F" d="M-2025.5,2176.7c0.7,0,1.4-0.1,2.1-0.2v1.9h0c0.3-0.6,1.2-2,3-2c0.2,0,0.5,0,0.7,0.1
				c0,0.2,0.1,0.6,0.1,0.9c0,0.4,0,0.9-0.1,1.1c-0.2,0-0.5,0-0.9,0c-1.7,0-2.5,0.8-2.7,1.1v6.5c0,1.4,0,2.3,0.2,2.6h-2.3V2176.7z"/>
			<path fill="#0F0F0F" d="M-2016.2,2182.8c0,3.2,1.1,4.9,3.1,4.9c1.8,0,2.3-1.4,2.6-2.1c0.6,0,1.6,0.1,2,0.4c-0.6,1.8-2,3-4.6,3
				c-3.7,0-5.4-2.6-5.4-6.3c0-3.6,1.7-6.1,5.3-6.1c3.5,0,4.9,2.5,4.9,5.3c0,0.3,0,0.7,0,1H-2016.2z M-2010.6,2181.6
				c0-2.6-0.7-4-2.7-4c-1.8,0-2.8,1.3-2.9,4H-2010.6z"/>
			<path fill="#0F0F0F" d="M-2005.8,2176.7c0.7,0,1.4-0.1,2.1-0.2v1.9h0c0.3-0.6,1.2-2,3-2c0.2,0,0.5,0,0.7,0.1
				c0,0.2,0.1,0.6,0.1,0.9c0,0.4,0,0.9-0.1,1.1c-0.2,0-0.5,0-0.9,0c-1.7,0-2.5,0.8-2.7,1.1v6.5c0,1.4,0,2.3,0.2,2.6h-2.3V2176.7z"/>
			<path fill="#0F0F0F" d="M-1996.7,2172.2c0.8,0,1.3,0.5,1.3,1.2s-0.5,1.2-1.3,1.2c-0.8,0-1.3-0.5-1.3-1.2
				S-1997.5,2172.2-1996.7,2172.2z M-1997.8,2176.7c0.2,0,1.4,0,2.2-0.2v9.4c0,1.3,0,2.3,0.2,2.6h-2.3V2176.7z"/>
			<path fill="#0F0F0F" d="M-1992.4,2176.7c0.1,0,1.3,0,2.1-0.2v1.6c0.6-0.8,1.9-1.8,3.8-1.8c2.9,0,3.7,2,3.7,4.5v5
				c0,1.3,0,2.3,0.2,2.6h-2.4v-7.3c0-2.1-0.5-3.4-2.4-3.4c-1.3,0-2.2,0.6-2.7,1.1v9.5h-2.2V2176.7z"/>
			<path fill="#0F0F0F" d="M-1973.9,2186.8c3.3,0,4.4,1,4.4,2.7c0,2.2-1.8,4-6.1,4c-3.4,0-5-1.3-5-3c0-1.2,0.9-1.9,1.9-2.2
				c-0.9-0.4-1.3-1-1.3-1.8c0-1,0.7-1.7,1.8-2.3c-1-0.7-1.7-1.9-1.7-3.5c0-2.7,1.9-4.3,4.7-4.3c0.7,0,1.4,0.1,1.9,0.3h3.9v1.3h-2.6
				c0.6,0.4,1.4,1.4,1.4,2.9c0,2.5-1.9,4.2-4.7,4.2c-0.9,0-1.6-0.1-2.3-0.4c-0.4,0.3-0.7,0.7-0.7,1.2c0,0.7,0.6,1,2.4,1H-1973.9z
				 M-1976.1,2188.7c-0.9,0-1.4,0-1.8-0.1c-0.4,0.3-0.8,0.8-0.8,1.7c0,1.4,1.1,2.1,3.5,2.1c2.3,0,3.9-0.9,3.9-2.3
				c0-1-0.6-1.4-2.7-1.4H-1976.1z M-1972.7,2180.8c0-2.1-0.9-3.2-2.5-3.2c-1.7,0-2.5,1.2-2.5,3.3c0,2.1,0.9,3.2,2.5,3.2
				C-1973.6,2184-1972.7,2182.8-1972.7,2180.8z"/>
			<path fill="#0F0F0F" d="M-1966.3,2185.6c0.2,0.8,0.8,2.1,2.8,2.1c1.4,0,2.3-0.8,2.3-2.1c0-1.5-1.4-1.8-3-2.3
				c-1.7-0.6-3.5-1.1-3.5-3.4c0-1.9,1.4-3.5,4.2-3.5c3.1,0,4,1.8,4.2,2.6c-0.4,0.2-1.3,0.4-1.8,0.4c-0.2-0.6-0.7-1.8-2.5-1.8
				c-1.4,0-2.2,0.7-2.2,1.9c0,1.3,1.4,1.7,2.9,2.2c1.7,0.5,3.6,1.1,3.6,3.5c0,2.1-1.4,3.7-4.4,3.7c-2.8,0-4.2-1.4-4.5-2.8
				C-1967.8,2185.8-1966.9,2185.6-1966.3,2185.6z"/>
			<path fill="#0F0F0F" d="M-1957,2180.7h6.3v1.7h-6.3V2180.7z"/>
			<path fill="#0F0F0F" d="M-1943.4,2182.6c0-3.6,1.8-6.2,5.5-6.2c3.8,0,5.6,2.6,5.6,6.2c0,3.6-1.8,6.2-5.6,6.2
				C-1941.6,2188.8-1943.4,2186.2-1943.4,2182.6z M-1934.7,2182.6c0-3.1-0.8-5-3.2-5c-2.3,0-3.2,1.9-3.2,5s0.8,5,3.2,5
				C-1935.5,2187.6-1934.7,2185.7-1934.7,2182.6z"/>
			<path fill="#0F0F0F" d="M-1924,2186.8c3.3,0,4.4,1,4.4,2.7c0,2.2-1.8,4-6.1,4c-3.4,0-5-1.3-5-3c0-1.2,0.9-1.9,1.9-2.2
				c-0.9-0.4-1.3-1-1.3-1.8c0-1,0.7-1.7,1.8-2.3c-1-0.7-1.7-1.9-1.7-3.5c0-2.7,1.9-4.3,4.7-4.3c0.7,0,1.4,0.1,1.9,0.3h3.9v1.3h-2.6
				c0.6,0.4,1.4,1.4,1.4,2.9c0,2.5-1.9,4.2-4.7,4.2c-0.9,0-1.6-0.1-2.3-0.4c-0.4,0.3-0.7,0.7-0.7,1.2c0,0.7,0.6,1,2.4,1H-1924z
				 M-1926.2,2188.7c-0.9,0-1.4,0-1.8-0.1c-0.4,0.3-0.8,0.8-0.8,1.7c0,1.4,1.1,2.1,3.5,2.1s3.9-0.9,3.9-2.3c0-1-0.6-1.4-2.7-1.4
				H-1926.2z M-1922.8,2180.8c0-2.1-0.9-3.2-2.5-3.2c-1.7,0-2.5,1.2-2.5,3.3c0,2.1,0.9,3.2,2.5,3.2
				C-1923.7,2184-1922.8,2182.8-1922.8,2180.8z"/>
			<path fill="#0F0F0F" d="M-2075.9,2206.1c0.1,0,1.3,0,2.1-0.2v1.5c0.6-0.8,1.7-1.6,3.3-1.6c1.6,0,2.5,0.7,2.9,1.8
				c0.6-0.9,1.8-1.8,3.6-1.8c2.6,0,3.3,1.9,3.3,4.5v5.1c0,1.3,0,2.3,0.2,2.6h-2.3v-7.3c0-2.1-0.3-3.4-2.1-3.4
				c-1.2,0-2.1,0.7-2.5,1.2c0.1,0.6,0.2,1.2,0.2,1.8v7.6h-2.2v-7.3c0-2.1-0.3-3.4-2-3.4c-1.1,0-1.9,0.5-2.3,1.1v9.6h-2.2V2206.1z"/>
			<path fill="#0F0F0F" d="M-2050.3,2218.1c-0.2-0.3-0.4-0.7-0.5-1.2c-0.6,0.7-1.7,1.3-3.3,1.3c-2.5,0-3.9-1.4-3.9-3.5
				c0-2.6,2-3.7,4.8-3.7c0.9,0,1.7,0.1,2.2,0.3v-1.6c0-1.5-0.3-2.6-2.2-2.6c-1.7,0-2.5,1.1-2.7,1.8c-0.7,0-1.5-0.3-1.8-0.6
				c0.7-1.4,2.3-2.4,4.6-2.4c3.4,0,4.3,1.8,4.3,4v4.9c0,1.4,0.1,2.4,0.3,3L-2050.3,2218.1z M-2050.9,2212.3
				c-0.3-0.1-0.9-0.2-1.8-0.2c-1.7,0-3.1,0.6-3.1,2.5c0,1.8,1.1,2.3,2.4,2.3c1,0,1.8-0.3,2.4-0.9V2212.3z"/>
			<path fill="#0F0F0F" d="M-2045.5,2206.1c0.1,0,1.3,0,2.1-0.2v1.6c0.6-0.8,1.9-1.8,3.8-1.8c2.9,0,3.7,2,3.7,4.5v5
				c0,1.3,0,2.3,0.2,2.6h-2.4v-7.3c0-2.1-0.5-3.4-2.4-3.4c-1.3,0-2.2,0.6-2.7,1.1v9.5h-2.2V2206.1z"/>
			<path fill="#0F0F0F" d="M-2027,2216.3c3.3,0,4.4,1,4.4,2.7c0,2.2-1.8,4-6.1,4c-3.4,0-5-1.3-5-3c0-1.2,0.9-1.9,1.9-2.2
				c-0.9-0.4-1.3-1-1.3-1.8c0-1,0.7-1.7,1.8-2.3c-1-0.7-1.7-1.9-1.7-3.5c0-2.7,1.9-4.3,4.7-4.3c0.7,0,1.4,0.1,1.9,0.3h3.9v1.3h-2.6
				c0.6,0.4,1.4,1.4,1.4,2.9c0,2.5-1.9,4.2-4.7,4.2c-0.9,0-1.6-0.1-2.3-0.4c-0.4,0.3-0.7,0.7-0.7,1.2c0,0.7,0.6,1,2.4,1H-2027z
				 M-2029.2,2218.1c-0.9,0-1.4,0-1.8-0.1c-0.4,0.3-0.8,0.8-0.8,1.7c0,1.4,1.1,2.1,3.5,2.1c2.3,0,3.9-0.9,3.9-2.3
				c0-1-0.6-1.4-2.7-1.4H-2029.2z M-2025.8,2210.2c0-2.1-0.9-3.2-2.5-3.2c-1.7,0-2.5,1.2-2.5,3.3c0,2.1,0.9,3.2,2.5,3.2
				C-2026.7,2213.4-2025.8,2212.2-2025.8,2210.2z"/>
			<path fill="#0F0F0F" d="M-2019.9,2207.4h-1.6v-1.3h1.6v-1.1c0-2.8,1.4-3.7,3.6-3.7c0.9,0,1.4,0.1,1.6,0.2c0,0.1,0,0.3,0,0.5
				c0,0.3,0,0.7,0,0.8c-0.2-0.1-0.7-0.2-1.2-0.2c-1.4,0-1.8,0.6-1.8,2.5v1.1h2.8v1.3h-2.8v8c0,1.3,0,2.3,0.2,2.6h-2.3V2207.4z"/>
			<path fill="#0F0F0F" d="M-2014.2,2212c0-3.6,1.8-6.2,5.5-6.2c3.8,0,5.6,2.6,5.6,6.2c0,3.6-1.8,6.2-5.6,6.2
				C-2012.4,2218.2-2014.2,2215.6-2014.2,2212z M-2005.5,2212c0-3.1-0.8-5-3.2-5c-2.3,0-3.2,1.9-3.2,5s0.8,5,3.2,5
				C-2006.3,2217.1-2005.5,2215.1-2005.5,2212z"/>
			<path fill="#0F0F0F" d="M-2000.5,2201.6c0.2,0,1.4,0,2.2-0.2v14c0,1.3,0,2.3,0.2,2.6h-2.3V2201.6z"/>
			<path fill="#0F0F0F" d="M-1987.1,2218.1c-0.3-0.3-0.4-0.8-0.5-1.4c-0.7,0.8-1.9,1.4-3.4,1.4c-3.3,0-4.7-2.6-4.7-6.2
				c0-3.6,1.4-6.2,4.7-6.2c1.6,0,2.6,0.6,3.3,1.4v-5.6c0.2,0,1.4,0,2.2-0.2v13.3c0,1,0,2.4,0.3,3L-1987.1,2218.1z M-1987.7,2208.3
				c-0.6-0.7-1.6-1.1-2.6-1.1c-2.3,0-3,1.8-3,4.8c0,3.1,0.7,4.8,3,4.8c1,0,2-0.4,2.6-1.1V2208.3z"/>
			<path fill="#0F0F0F" d="M-1981.3,2215c0.2,0.8,0.8,2.1,2.8,2.1c1.4,0,2.3-0.8,2.3-2.1c0-1.5-1.4-1.8-3-2.3
				c-1.7-0.6-3.5-1.1-3.5-3.4c0-1.9,1.4-3.5,4.2-3.5c3.1,0,4,1.8,4.2,2.6c-0.4,0.2-1.3,0.4-1.8,0.4c-0.2-0.6-0.7-1.8-2.5-1.8
				c-1.4,0-2.2,0.7-2.2,1.9c0,1.3,1.4,1.7,2.9,2.2c1.7,0.5,3.6,1.1,3.6,3.5c0,2.1-1.4,3.7-4.4,3.7c-2.8,0-4.2-1.4-4.5-2.8
				C-1982.7,2215.2-1981.8,2215-1981.3,2215z"/>
			<path fill="#0F0F0F" d="M-1963.6,2218.1c-0.3-0.3-0.4-0.8-0.5-1.4c-0.7,0.8-1.9,1.4-3.4,1.4c-3.3,0-4.7-2.6-4.7-6.2
				c0-3.6,1.4-6.2,4.7-6.2c1.6,0,2.6,0.6,3.3,1.4v-5.6c0.2,0,1.4,0,2.2-0.2v13.3c0,1,0,2.4,0.3,3L-1963.6,2218.1z M-1964.2,2208.3
				c-0.6-0.7-1.6-1.1-2.6-1.1c-2.3,0-3,1.8-3,4.8c0,3.1,0.7,4.8,3,4.8c1,0,2-0.4,2.6-1.1V2208.3z"/>
			<path fill="#0F0F0F" d="M-1957.7,2201.6c0.8,0,1.3,0.5,1.3,1.2s-0.5,1.2-1.3,1.2c-0.8,0-1.3-0.5-1.3-1.2
				S-1958.5,2201.6-1957.7,2201.6z M-1958.8,2206.1c0.2,0,1.4,0,2.2-0.2v9.4c0,1.3,0,2.3,0.2,2.6h-2.3V2206.1z"/>
			<path fill="#0F0F0F" d="M-1953.4,2206.1c0.7,0,1.4-0.1,2.1-0.2v1.9h0c0.3-0.6,1.2-2,3-2c0.2,0,0.5,0,0.7,0.1
				c0,0.2,0.1,0.6,0.1,0.9c0,0.4,0,0.9-0.1,1.1c-0.2,0-0.5,0-0.9,0c-1.7,0-2.5,0.8-2.7,1.1v6.5c0,1.4,0,2.3,0.2,2.6h-2.3V2206.1z"/>
			<path fill="#0F0F0F" d="M-1944.1,2212.2c0,3.2,1.1,4.9,3.1,4.9c1.8,0,2.3-1.4,2.6-2.1c0.6,0,1.6,0.1,2,0.4c-0.6,1.8-2,3-4.6,3
				c-3.7,0-5.4-2.6-5.4-6.3c0-3.6,1.7-6.1,5.3-6.1c3.5,0,4.9,2.5,4.9,5.3c0,0.3,0,0.7,0,1H-1944.1z M-1938.6,2211c0-2.6-0.7-4-2.7-4
				c-1.8,0-2.8,1.3-2.9,4H-1938.6z"/>
			<path fill="#0F0F0F" d="M-1933.7,2201.6c0.2,0,1.4,0,2.2-0.2v9.6h0.1l4.5-4.9h2.1v0.1l-4.7,4.9l4.8,6.7v0.1h-2.4l-4.3-6.2h-0.1
				v6.2h-2.2V2201.6z"/>
			<path fill="#0F0F0F" d="M-1922.2,2207.4h-1.6v-1.3h1.7v-3.1c0.2,0,1.3,0,2.1-0.2v3.2h2.7v1.3h-2.7v7.4c0,1.6,0.4,2,1.8,2
				c0.4,0,0.8-0.1,1-0.2c0,0.1,0.1,0.4,0.1,0.7c0,0.2,0,0.5,0,0.6c-0.1,0.1-0.8,0.2-1.6,0.2c-2.4,0-3.4-0.7-3.4-3.3V2207.4z"/>
			<path fill="#0F0F0F" d="M-1916,2212c0-3.6,1.8-6.2,5.5-6.2c3.8,0,5.6,2.6,5.6,6.2c0,3.6-1.8,6.2-5.6,6.2
				C-1914.3,2218.2-1916,2215.6-1916,2212z M-1907.3,2212c0-3.1-0.8-5-3.2-5c-2.3,0-3.2,1.9-3.2,5s0.8,5,3.2,5
				C-1908.1,2217.1-1907.3,2215.1-1907.3,2212z"/>
			<path fill="#0F0F0F" d="M-1902.3,2206.1c0.7,0,1.4-0.1,2.1-0.2v1.9h0c0.3-0.6,1.2-2,3-2c0.2,0,0.5,0,0.7,0.1
				c0,0.2,0.1,0.6,0.1,0.9c0,0.4,0,0.9-0.1,1.1c-0.2,0-0.5,0-0.9,0c-1.7,0-2.5,0.8-2.7,1.1v6.5c0,1.4,0,2.3,0.2,2.6h-2.3V2206.1z"/>
			<path fill="#0F0F0F" d="M-1887.4,2218.1c-0.2-0.3-0.4-0.7-0.5-1.2c-0.6,0.7-1.7,1.3-3.3,1.3c-2.5,0-3.9-1.4-3.9-3.5
				c0-2.6,2-3.7,4.8-3.7c0.9,0,1.7,0.1,2.2,0.3v-1.6c0-1.5-0.3-2.6-2.2-2.6c-1.7,0-2.5,1.1-2.7,1.8c-0.7,0-1.5-0.3-1.8-0.6
				c0.7-1.4,2.3-2.4,4.6-2.4c3.4,0,4.3,1.8,4.3,4v4.9c0,1.4,0.1,2.4,0.3,3L-1887.4,2218.1z M-1888,2212.3c-0.3-0.1-0.9-0.2-1.8-0.2
				c-1.7,0-3.1,0.6-3.1,2.5c0,1.8,1.1,2.3,2.4,2.3c1,0,1.8-0.3,2.4-0.9V2212.3z"/>
			<path fill="#0F0F0F" d="M-1882,2207.4h-1.6v-1.3h1.7v-3.1c0.2,0,1.3,0,2.1-0.2v3.2h2.7v1.3h-2.7v7.4c0,1.6,0.4,2,1.8,2
				c0.4,0,0.8-0.1,1-0.2c0,0.1,0.1,0.4,0.1,0.7c0,0.2,0,0.5,0,0.6c-0.1,0.1-0.8,0.2-1.6,0.2c-2.4,0-3.4-0.7-3.4-3.3V2207.4z"/>
			<path fill="#0F0F0F" d="M-1873.5,2212.2c0,3.2,1.1,4.9,3.1,4.9c1.8,0,2.3-1.4,2.6-2.1c0.6,0,1.6,0.1,2,0.4c-0.6,1.8-2,3-4.6,3
				c-3.7,0-5.4-2.6-5.4-6.3c0-3.6,1.7-6.1,5.3-6.1c3.5,0,4.9,2.5,4.9,5.3c0,0.3,0,0.7,0,1H-1873.5z M-1867.9,2211c0-2.6-0.7-4-2.7-4
				c-1.8,0-2.8,1.3-2.9,4H-1867.9z"/>
			<path fill="#0F0F0F" d="M-1862.7,2207.4h-1.6v-1.3h1.7v-3.1c0.2,0,1.3,0,2.1-0.2v3.2h2.7v1.3h-2.7v7.4c0,1.6,0.4,2,1.8,2
				c0.4,0,0.8-0.1,1-0.2c0,0.1,0.1,0.4,0.1,0.7c0,0.2,0,0.5,0,0.6c-0.1,0.1-0.8,0.2-1.6,0.2c-2.4,0-3.4-0.7-3.4-3.3V2207.4z"/>
		</g>
	</g>
	<g>
		<g>
			<polygon fill="#9CBC42" points="-2199.5,2240.1 -2117.7,2158.5 -2199.4,2076.8 			"/>
		</g>
		<polygon opacity="0.93" fill="#2EB0D1" points="-2281.2,2158.4 -2199.5,2240.1 -2117.7,2158.4 		"/>
		<g>
			<polygon fill="#FF523B" points="-2297.6,2142.1 -2215.7,2142.1 -2215.8,2060.4 			"/>
		</g>
	</g>
</g>
</svg>
