<svg xmlns="http://www.w3.org/2000/svg" viewBox="-2297.6 2060.4 440 179.7"><g fill="#0F0F0F"><path d="M-2074.3 2106.9h8.5v48.9h-8.5v-48.9zM-2054.4 2106.9h10.6l7.6 20.4c2.4 6.5 5 14 5.9 17.8h.2c.8-3.8 3.4-11.3 5.7-17.5l7.8-20.7h10.6v48.9h-8.1v-20.5c0-8.9.2-16.2.3-19.1h-.3c-.8 2.7-2.3 8.1-5 15.1l-9.2 24.5h-5.3l-9-24.5c-2.6-7.1-4.3-12.4-5-15.1h-.2c.1 2.8.3 10.2.3 19.1v20.5h-7v-48.9zM-1994.5 2106.9h13.6c16.5 0 23.5 9.3 23.5 24.4s-6.9 24.5-23.4 24.5h-13.6v-48.9zm13.4 44c10 0 14.3-6.2 14.3-19.6 0-13.5-4.3-19.5-14.2-19.5h-5v39.2h4.9zM-1944.9 2106c2.8 0 4.5 1.7 4.5 4.1 0 2.5-1.7 4.3-4.5 4.3s-4.5-1.7-4.5-4.3c0-2.4 1.7-4.1 4.5-4.1zm-4 14c1.7 0 5.5-.2 8-.6v28.3c0 4 .1 7.3.6 8h-8.6V2120z"/></g><g fill="#0F0F0F"><path d="M-2075.5 2172.2h2.3v16.3h-2.3v-16.3zM-2069.7 2176.7c.1 0 1.3 0 2.1-.2v1.6c.6-.8 1.9-1.8 3.8-1.8 2.9 0 3.7 2 3.7 4.5v5c0 1.3 0 2.3.2 2.6h-2.4v-7.3c0-2.1-.5-3.4-2.4-3.4-1.3 0-2.2.6-2.7 1.1v9.5h-2.2v-11.6zM-2056.7 2178h-1.6v-1.3h1.7v-3.1c.2 0 1.3 0 2.1-.2v3.2h2.7v1.3h-2.7v7.4c0 1.6.4 2 1.8 2 .4 0 .8-.1 1.1-.2 0 .1.1.4.1.7v.6c-.1.1-.8.2-1.6.2-2.4 0-3.4-.7-3.4-3.3v-7.3zM-2048.2 2182.8c0 3.2 1.1 4.9 3.1 4.9 1.8 0 2.3-1.4 2.6-2.1.6 0 1.6.1 2 .4-.6 1.8-2 3-4.6 3-3.7 0-5.4-2.6-5.4-6.3 0-3.6 1.7-6.1 5.3-6.1 3.5 0 4.9 2.5 4.9 5.3v1h-7.9zm5.6-1.2c0-2.6-.7-4-2.7-4-1.8 0-2.8 1.3-2.9 4h5.6zM-2032 2186.8c3.3 0 4.4 1 4.4 2.7 0 2.2-1.8 4-6.1 4-3.4 0-5-1.3-5-3 0-1.2.9-1.9 1.9-2.2-.9-.4-1.3-1-1.3-1.8 0-1 .7-1.7 1.8-2.3-1-.7-1.7-1.9-1.7-3.5 0-2.7 1.9-4.3 4.7-4.3.7 0 1.4.1 1.9.3h3.9v1.3h-2.6c.6.4 1.4 1.4 1.4 2.9 0 2.5-1.9 4.2-4.7 4.2-.9 0-1.6-.1-2.3-.4-.4.3-.7.7-.7 1.2 0 .7.6 1 2.4 1h2zm-2.2 1.9c-.9 0-1.4 0-1.8-.1-.4.3-.8.8-.8 1.7 0 1.4 1.1 2.1 3.5 2.1 2.3 0 3.9-.9 3.9-2.3 0-1-.6-1.4-2.7-1.4h-2.1zm3.4-7.9c0-2.1-.9-3.2-2.5-3.2-1.7 0-2.5 1.2-2.5 3.3 0 2.1.9 3.2 2.5 3.2 1.6-.1 2.5-1.3 2.5-3.3zM-2025.5 2176.7c.7 0 1.4-.1 2.1-.2v1.9c.3-.6 1.2-2 3-2 .2 0 .5 0 .7.1 0 .2.1.6.1.9 0 .4 0 .9-.1 1.1h-.9c-1.7 0-2.5.8-2.7 1.1v6.5c0 1.4 0 2.3.2 2.6h-2.3v-12zM-2016.2 2182.8c0 3.2 1.1 4.9 3.1 4.9 1.8 0 2.3-1.4 2.6-2.1.6 0 1.6.1 2 .4-.6 1.8-2 3-4.6 3-3.7 0-5.4-2.6-5.4-6.3 0-3.6 1.7-6.1 5.3-6.1 3.5 0 4.9 2.5 4.9 5.3v1h-7.9zm5.6-1.2c0-2.6-.7-4-2.7-4-1.8 0-2.8 1.3-2.9 4h5.6zM-2005.8 2176.7c.7 0 1.4-.1 2.1-.2v1.9c.3-.6 1.2-2 3-2 .2 0 .5 0 .7.1 0 .2.1.6.1.9 0 .4 0 .9-.1 1.1h-.9c-1.7 0-2.5.8-2.7 1.1v6.5c0 1.4 0 2.3.2 2.6h-2.3v-12zM-1996.7 2172.2c.8 0 1.3.5 1.3 1.2s-.5 1.2-1.3 1.2-1.3-.5-1.3-1.2.5-1.2 1.3-1.2zm-1.1 4.5c.2 0 1.4 0 2.2-.2v9.4c0 1.3 0 2.3.2 2.6h-2.3v-11.8zM-1992.4 2176.7c.1 0 1.3 0 2.1-.2v1.6c.6-.8 1.9-1.8 3.8-1.8 2.9 0 3.7 2 3.7 4.5v5c0 1.3 0 2.3.2 2.6h-2.4v-7.3c0-2.1-.5-3.4-2.4-3.4-1.3 0-2.2.6-2.7 1.1v9.5h-2.2v-11.6zM-1973.9 2186.8c3.3 0 4.4 1 4.4 2.7 0 2.2-1.8 4-6.1 4-3.4 0-5-1.3-5-3 0-1.2.9-1.9 1.9-2.2-.9-.4-1.3-1-1.3-1.8 0-1 .7-1.7 1.8-2.3-1-.7-1.7-1.9-1.7-3.5 0-2.7 1.9-4.3 4.7-4.3.7 0 1.4.1 1.9.3h3.9v1.3h-2.6c.6.4 1.4 1.4 1.4 2.9 0 2.5-1.9 4.2-4.7 4.2-.9 0-1.6-.1-2.3-.4-.4.3-.7.7-.7 1.2 0 .7.6 1 2.4 1h2zm-2.2 1.9c-.9 0-1.4 0-1.8-.1-.4.3-.8.8-.8 1.7 0 1.4 1.1 2.1 3.5 2.1 2.3 0 3.9-.9 3.9-2.3 0-1-.6-1.4-2.7-1.4h-2.1zm3.4-7.9c0-2.1-.9-3.2-2.5-3.2-1.7 0-2.5 1.2-2.5 3.3 0 2.1.9 3.2 2.5 3.2 1.6-.1 2.5-1.3 2.5-3.3zM-1966.3 2185.6c.2.8.8 2.1 2.8 2.1 1.4 0 2.3-.8 2.3-2.1 0-1.5-1.4-1.8-3-2.3-1.7-.6-3.5-1.1-3.5-3.4 0-1.9 1.4-3.5 4.2-3.5 3.1 0 4 1.8 4.2 2.6-.4.2-1.3.4-1.8.4-.2-.6-.7-1.8-2.5-1.8-1.4 0-2.2.7-2.2 1.9 0 1.3 1.4 1.7 2.9 2.2 1.7.5 3.6 1.1 3.6 3.5 0 2.1-1.4 3.7-4.4 3.7-2.8 0-4.2-1.4-4.5-2.8.4-.3 1.3-.5 1.9-.5zM-1957 2180.7h6.3v1.7h-6.3v-1.7zM-1943.4 2182.6c0-3.6 1.8-6.2 5.5-6.2 3.8 0 5.6 2.6 5.6 6.2s-1.8 6.2-5.6 6.2c-3.7 0-5.5-2.6-5.5-6.2zm8.7 0c0-3.1-.8-5-3.2-5-2.3 0-3.2 1.9-3.2 5s.8 5 3.2 5c2.4 0 3.2-1.9 3.2-5zM-1924 2186.8c3.3 0 4.4 1 4.4 2.7 0 2.2-1.8 4-6.1 4-3.4 0-5-1.3-5-3 0-1.2.9-1.9 1.9-2.2-.9-.4-1.3-1-1.3-1.8 0-1 .7-1.7 1.8-2.3-1-.7-1.7-1.9-1.7-3.5 0-2.7 1.9-4.3 4.7-4.3.7 0 1.4.1 1.9.3h3.9v1.3h-2.6c.6.4 1.4 1.4 1.4 2.9 0 2.5-1.9 4.2-4.7 4.2-.9 0-1.6-.1-2.3-.4-.4.3-.7.7-.7 1.2 0 .7.6 1 2.4 1h2zm-2.2 1.9c-.9 0-1.4 0-1.8-.1-.4.3-.8.8-.8 1.7 0 1.4 1.1 2.1 3.5 2.1s3.9-.9 3.9-2.3c0-1-.6-1.4-2.7-1.4h-2.1zm3.4-7.9c0-2.1-.9-3.2-2.5-3.2-1.7 0-2.5 1.2-2.5 3.3 0 2.1.9 3.2 2.5 3.2 1.6-.1 2.5-1.3 2.5-3.3zM-2075.9 2206.1c.1 0 1.3 0 2.1-.2v1.5c.6-.8 1.7-1.6 3.3-1.6 1.6 0 2.5.7 2.9 1.8.6-.9 1.8-1.8 3.6-1.8 2.6 0 3.3 1.9 3.3 4.5v5.1c0 1.3 0 2.3.2 2.6h-2.3v-7.3c0-2.1-.3-3.4-2.1-3.4-1.2 0-2.1.7-2.5 1.2.1.6.2 1.2.2 1.8v7.6h-2.2v-7.3c0-2.1-.3-3.4-2-3.4-1.1 0-1.9.5-2.3 1.1v9.6h-2.2v-11.8zM-2050.3 2218.1c-.2-.3-.4-.7-.5-1.2-.6.7-1.7 1.3-3.3 1.3-2.5 0-3.9-1.4-3.9-3.5 0-2.6 2-3.7 4.8-3.7.9 0 1.7.1 2.2.3v-1.6c0-1.5-.3-2.6-2.2-2.6-1.7 0-2.5 1.1-2.7 1.8-.7 0-1.5-.3-1.8-.6.7-1.4 2.3-2.4 4.6-2.4 3.4 0 4.3 1.8 4.3 4v4.9c0 1.4.1 2.4.3 3l-1.8.3zm-.6-5.8c-.3-.1-.9-.2-1.8-.2-1.7 0-3.1.6-3.1 2.5 0 1.8 1.1 2.3 2.4 2.3 1 0 1.8-.3 2.4-.9v-3.7zM-2045.5 2206.1c.1 0 1.3 0 2.1-.2v1.6c.6-.8 1.9-1.8 3.8-1.8 2.9 0 3.7 2 3.7 4.5v5c0 1.3 0 2.3.2 2.6h-2.4v-7.3c0-2.1-.5-3.4-2.4-3.4-1.3 0-2.2.6-2.7 1.1v9.5h-2.2v-11.6zM-2027 2216.3c3.3 0 4.4 1 4.4 2.7 0 2.2-1.8 4-6.1 4-3.4 0-5-1.3-5-3 0-1.2.9-1.9 1.9-2.2-.9-.4-1.3-1-1.3-1.8 0-1 .7-1.7 1.8-2.3-1-.7-1.7-1.9-1.7-3.5 0-2.7 1.9-4.3 4.7-4.3.7 0 1.4.1 1.9.3h3.9v1.3h-2.6c.6.4 1.4 1.4 1.4 2.9 0 2.5-1.9 4.2-4.7 4.2-.9 0-1.6-.1-2.3-.4-.4.3-.7.7-.7 1.2 0 .7.6 1 2.4 1h2zm-2.2 1.8c-.9 0-1.4 0-1.8-.1-.4.3-.8.8-.8 1.7 0 1.4 1.1 2.1 3.5 2.1 2.3 0 3.9-.9 3.9-2.3 0-1-.6-1.4-2.7-1.4h-2.1zm3.4-7.9c0-2.1-.9-3.2-2.5-3.2-1.7 0-2.5 1.2-2.5 3.3 0 2.1.9 3.2 2.5 3.2 1.6-.1 2.5-1.3 2.5-3.3zM-2019.9 2207.4h-1.6v-1.3h1.6v-1.1c0-2.8 1.4-3.7 3.6-3.7.9 0 1.4.1 1.6.2v1.3c-.2-.1-.7-.2-1.2-.2-1.4 0-1.8.6-1.8 2.5v1.1h2.8v1.3h-2.8v8c0 1.3 0 2.3.2 2.6h-2.3v-10.7zM-2014.2 2212c0-3.6 1.8-6.2 5.5-6.2 3.8 0 5.6 2.6 5.6 6.2s-1.8 6.2-5.6 6.2c-3.7 0-5.5-2.6-5.5-6.2zm8.7 0c0-3.1-.8-5-3.2-5-2.3 0-3.2 1.9-3.2 5s.8 5 3.2 5c2.4.1 3.2-1.9 3.2-5zM-2000.5 2201.6c.2 0 1.4 0 2.2-.2v14c0 1.3 0 2.3.2 2.6h-2.3v-16.4zM-1987.1 2218.1c-.3-.3-.4-.8-.5-1.4-.7.8-1.9 1.4-3.4 1.4-3.3 0-4.7-2.6-4.7-6.2s1.4-6.2 4.7-6.2c1.6 0 2.6.6 3.3 1.4v-5.6c.2 0 1.4 0 2.2-.2v13.3c0 1 0 2.4.3 3l-1.9.5zm-.6-9.8c-.6-.7-1.6-1.1-2.6-1.1-2.3 0-3 1.8-3 4.8 0 3.1.7 4.8 3 4.8 1 0 2-.4 2.6-1.1v-7.4zM-1981.3 2215c.2.8.8 2.1 2.8 2.1 1.4 0 2.3-.8 2.3-2.1 0-1.5-1.4-1.8-3-2.3-1.7-.6-3.5-1.1-3.5-3.4 0-1.9 1.4-3.5 4.2-3.5 3.1 0 4 1.8 4.2 2.6-.4.2-1.3.4-1.8.4-.2-.6-.7-1.8-2.5-1.8-1.4 0-2.2.7-2.2 1.9 0 1.3 1.4 1.7 2.9 2.2 1.7.5 3.6 1.1 3.6 3.5 0 2.1-1.4 3.7-4.4 3.7-2.8 0-4.2-1.4-4.5-2.8.5-.3 1.4-.5 1.9-.5zM-1963.6 2218.1c-.3-.3-.4-.8-.5-1.4-.7.8-1.9 1.4-3.4 1.4-3.3 0-4.7-2.6-4.7-6.2s1.4-6.2 4.7-6.2c1.6 0 2.6.6 3.3 1.4v-5.6c.2 0 1.4 0 2.2-.2v13.3c0 1 0 2.4.3 3l-1.9.5zm-.6-9.8c-.6-.7-1.6-1.1-2.6-1.1-2.3 0-3 1.8-3 4.8 0 3.1.7 4.8 3 4.8 1 0 2-.4 2.6-1.1v-7.4zM-1957.7 2201.6c.8 0 1.3.5 1.3 1.2s-.5 1.2-1.3 1.2-1.3-.5-1.3-1.2.5-1.2 1.3-1.2zm-1.1 4.5c.2 0 1.4 0 2.2-.2v9.4c0 1.3 0 2.3.2 2.6h-2.3v-11.8zM-1953.4 2206.1c.7 0 1.4-.1 2.1-.2v1.9c.3-.6 1.2-2 3-2 .2 0 .5 0 .7.1 0 .2.1.6.1.9 0 .4 0 .9-.1 1.1h-.9c-1.7 0-2.5.8-2.7 1.1v6.5c0 1.4 0 2.3.2 2.6h-2.3v-12zM-1944.1 2212.2c0 3.2 1.1 4.9 3.1 4.9 1.8 0 2.3-1.4 2.6-2.1.6 0 1.6.1 2 .4-.6 1.8-2 3-4.6 3-3.7 0-5.4-2.6-5.4-6.3 0-3.6 1.7-6.1 5.3-6.1 3.5 0 4.9 2.5 4.9 5.3v1h-7.9zm5.5-1.2c0-2.6-.7-4-2.7-4-1.8 0-2.8 1.3-2.9 4h5.6zM-1933.7 2201.6c.2 0 1.4 0 2.2-.2v9.6h.1l4.5-4.9h2.1v.1l-4.7 4.9 4.8 6.7v.1h-2.4l-4.3-6.2h-.1v6.2h-2.2v-16.3zM-1922.2 2207.4h-1.6v-1.3h1.7v-3.1c.2 0 1.3 0 2.1-.2v3.2h2.7v1.3h-2.7v7.4c0 1.6.4 2 1.8 2 .4 0 .8-.1 1-.2 0 .1.1.4.1.7v.6c-.1.1-.8.2-1.6.2-2.4 0-3.4-.7-3.4-3.3v-7.3zM-1916 2212c0-3.6 1.8-6.2 5.5-6.2 3.8 0 5.6 2.6 5.6 6.2s-1.8 6.2-5.6 6.2-5.5-2.6-5.5-6.2zm8.7 0c0-3.1-.8-5-3.2-5-2.3 0-3.2 1.9-3.2 5s.8 5 3.2 5c2.4.1 3.2-1.9 3.2-5zM-1902.3 2206.1c.7 0 1.4-.1 2.1-.2v1.9c.3-.6 1.2-2 3-2 .2 0 .5 0 .7.1 0 .2.1.6.1.9 0 .4 0 .9-.1 1.1h-.9c-1.7 0-2.5.8-2.7 1.1v6.5c0 1.4 0 2.3.2 2.6h-2.3v-12zM-1887.4 2218.1c-.2-.3-.4-.7-.5-1.2-.6.7-1.7 1.3-3.3 1.3-2.5 0-3.9-1.4-3.9-3.5 0-2.6 2-3.7 4.8-3.7.9 0 1.7.1 2.2.3v-1.6c0-1.5-.3-2.6-2.2-2.6-1.7 0-2.5 1.1-2.7 1.8-.7 0-1.5-.3-1.8-.6.7-1.4 2.3-2.4 4.6-2.4 3.4 0 4.3 1.8 4.3 4v4.9c0 1.4.1 2.4.3 3l-1.8.3zm-.6-5.8c-.3-.1-.9-.2-1.8-.2-1.7 0-3.1.6-3.1 2.5 0 1.8 1.1 2.3 2.4 2.3 1 0 1.8-.3 2.4-.9v-3.7zM-1882 2207.4h-1.6v-1.3h1.7v-3.1c.2 0 1.3 0 2.1-.2v3.2h2.7v1.3h-2.7v7.4c0 1.6.4 2 1.8 2 .4 0 .8-.1 1-.2 0 .1.1.4.1.7v.6c-.1.1-.8.2-1.6.2-2.4 0-3.4-.7-3.4-3.3v-7.3zM-1873.5 2212.2c0 3.2 1.1 4.9 3.1 4.9 1.8 0 2.3-1.4 2.6-2.1.6 0 1.6.1 2 .4-.6 1.8-2 3-4.6 3-3.7 0-5.4-2.6-5.4-6.3 0-3.6 1.7-6.1 5.3-6.1 3.5 0 4.9 2.5 4.9 5.3v1h-7.9zm5.6-1.2c0-2.6-.7-4-2.7-4-1.8 0-2.8 1.3-2.9 4h5.6zM-1862.7 2207.4h-1.6v-1.3h1.7v-3.1c.2 0 1.3 0 2.1-.2v3.2h2.7v1.3h-2.7v7.4c0 1.6.4 2 1.8 2 .4 0 .8-.1 1-.2 0 .1.1.4.1.7v.6c-.1.1-.8.2-1.6.2-2.4 0-3.4-.7-3.4-3.3v-7.3z"/></g><path fill="#9CBC42" d="M-2199.5 2240.1l81.8-81.6-81.7-81.7z"/><path opacity=".93" fill="#2EB0D1" d="M-2281.2 2158.4l81.7 81.7 81.8-81.7z"/><path fill="#FF523B" d="M-2297.6 2142.1h81.9l-.1-81.7z"/></svg>