<?xml version="1.0" encoding="utf-8"?>
<!-- Generator: Adobe Illustrator 18.1.1, SVG Export Plug-In . SVG Version: 6.00 Build 0)  -->
<svg version="1.1" id="Layer_1" xmlns="http://www.w3.org/2000/svg" xmlns:xlink="http://www.w3.org/1999/xlink" x="0px" y="0px"
	 width="2000px" height="2000px" viewBox="0 0 2000 2000" enable-background="new 0 0 2000 2000" xml:space="preserve">
<rect x="31.4" y="29.5" transform="matrix(0.7071 0.7071 -0.7071 0.7071 50.0533 -21.8811)" fill="#2EB0D1" width="40" height="40"/>
<rect x="147.7" y="45.9" transform="matrix(0.7071 0.7071 -0.7071 0.7071 79.2971 -92.482)" fill="#FF523B" width="7.1" height="7.1"/>
<g>
	<defs>
		<rect id="SVGID_1_" x="45" y="37.3" width="12.9" height="24.4"/>
	</defs>
	<clipPath id="SVGID_2_">
		<use xlink:href="#SVGID_1_"  overflow="visible"/>
	</clipPath>
	<path clip-path="url(#SVGID_2_)" fill="#FFFFFF" d="M50.6,47.2c-0.9,0.3-1.5,1-1.5,2.1c0,1.5,1.1,1.9,3.6,2.6
		c0.8-0.3,1.6-1,1.6-2.1C54.3,48.3,52.7,47.8,50.6,47.2 M48.2,56.5c0.3,1.8,1.8,2.5,3.4,2.5c1.5,0,2.6-0.6,2.6-1.8
		c0-1-0.6-1.7-2.3-2.2l-2.5-0.7c-2.6-0.8-3.8-2.1-3.8-4.2c0-2,1.2-3.2,2.8-3.6c-2-0.8-2.8-2.6-2.8-4.2c0-3.8,3.1-5,6-5
		c3.6,0,5.9,1.4,6.1,4.4l-3.5,0.4c-0.1-1.5-1.1-2.1-2.6-2.1c-1.6,0-2.4,0.7-2.4,1.9c0,0.9,0.5,1.6,2.1,2l2.3,0.7
		c2.6,0.8,4.3,1.9,4.3,4.5c0,2-1.2,3.3-2.9,3.5c1.7,0.7,2.8,2.4,2.8,4.2c0,3.5-2.8,4.8-6.4,4.8c-3.7,0-6-1.4-6.5-4.3L48.2,56.5z"/>
</g>
<g>
	<polyline fill="none" stroke="#FF523B" stroke-miterlimit="10" points="237.6,81.1 261,49 237.6,16.9 	"/>
</g>
</svg>
