<?xml version="1.0" encoding="utf-8"?>
<!-- Generator: Adobe Illustrator 18.1.1, SVG Export Plug-In . SVG Version: 6.00 Build 0)  -->
<svg version="1.1" id="Layer_1" xmlns="http://www.w3.org/2000/svg" xmlns:xlink="http://www.w3.org/1999/xlink" x="0px" y="0px"
	 width="400px" height="200px" viewBox="0 0 400 200" enable-background="new 0 0 400 200" xml:space="preserve">
<g>
	<g>
		<polygon fill="#FFD766" points="54.9,101.2 100.9,55.2 54.9,9.2 		"/>
	</g>
	<polygon opacity="0.9" fill="#49B249" points="8.9,55.2 54.9,101.2 100.9,55.2 	"/>
	<g>
		<polygon fill="#FF523B" points="-0.3,46 45.8,46 45.7,0 		"/>
	</g>
</g>
<g>
	<path fill="#0F0F0F" d="M125.4,26.2h4.8v27.6h-4.8V26.2z"/>
	<path fill="#0F0F0F" d="M136.6,26.2h6l4.3,11.5c1.3,3.7,2.8,7.9,3.3,10h0.1c0.5-2.2,1.9-6.3,3.2-9.9l4.4-11.7h6v27.6h-4.6V42.2
		c0-5,0.1-9.1,0.2-10.7h-0.2c-0.4,1.5-1.3,4.6-2.8,8.5l-5.2,13.8h-3l-5.1-13.8c-1.5-4-2.4-7-2.8-8.5h-0.1c0.1,1.6,0.2,5.7,0.2,10.7
		v11.5h-3.9V26.2z"/>
	<path fill="#0F0F0F" d="M170.3,26.2h7.6c9.3,0,13.2,5.2,13.2,13.7s-3.9,13.8-13.2,13.8h-7.7V26.2z M177.9,51c5.6,0,8-3.5,8-11.1
		s-2.4-11-8-11h-2.8v22H177.9z"/>
	<path fill="#0F0F0F" d="M198.2,25.6c1.6,0,2.6,0.9,2.6,2.3c0,1.4-1,2.4-2.6,2.4c-1.6,0-2.5-1-2.5-2.4
		C195.7,26.6,196.7,25.6,198.2,25.6z M196,33.6c1,0,3.1-0.1,4.5-0.3v15.9c0,2.2,0,4.1,0.3,4.5H196V33.6z"/>
</g>
<g>
	<g>
		<path fill="#0F0F0F" d="M124.7,62.9h1.3v9.2h-1.3V62.9z"/>
		<path fill="#0F0F0F" d="M128,65.5c0.1,0,0.7,0,1.2-0.1v0.9c0.3-0.5,1.1-1,2.1-1c1.6,0,2.1,1.1,2.1,2.5v2.8c0,0.7,0,1.3,0.1,1.5
			h-1.3V68c0-1.2-0.3-1.9-1.4-1.9c-0.7,0-1.2,0.3-1.5,0.6v5.4H128V65.5z"/>
		<path fill="#0F0F0F" d="M135.3,66.2h-0.9v-0.7h1v-1.7c0.1,0,0.7,0,1.2-0.1v1.8h1.5v0.7h-1.5v4.2c0,0.9,0.2,1.1,1,1.1
			c0.2,0,0.5,0,0.6-0.1c0,0.1,0,0.2,0,0.4c0,0.1,0,0.3,0,0.3c-0.1,0.1-0.4,0.1-0.9,0.1c-1.3,0-1.9-0.4-1.9-1.9V66.2z"/>
		<path fill="#0F0F0F" d="M140.1,68.9c0,1.8,0.6,2.7,1.7,2.7c1,0,1.3-0.8,1.4-1.2c0.4,0,0.9,0.1,1.1,0.2c-0.4,1-1.1,1.7-2.6,1.7
			c-2.1,0-3.1-1.5-3.1-3.5c0-2,1-3.4,3-3.4c1.9,0,2.8,1.4,2.8,3c0,0.2,0,0.4,0,0.6H140.1z M143.2,68.2c0-1.5-0.4-2.3-1.5-2.3
			c-1,0-1.6,0.7-1.6,2.3H143.2z"/>
		<path fill="#0F0F0F" d="M149.2,71.2c1.9,0,2.5,0.6,2.5,1.5c0,1.2-1,2.2-3.4,2.2c-1.9,0-2.8-0.7-2.8-1.7c0-0.7,0.5-1.1,1.1-1.2
			c-0.5-0.2-0.7-0.6-0.7-1c0-0.5,0.4-1,1-1.3c-0.6-0.4-0.9-1.1-0.9-2c0-1.5,1.1-2.4,2.7-2.4c0.4,0,0.8,0.1,1.1,0.2h2.2v0.7h-1.4
			c0.3,0.2,0.8,0.8,0.8,1.7c0,1.4-1.1,2.4-2.7,2.4c-0.5,0-0.9-0.1-1.3-0.2c-0.2,0.2-0.4,0.4-0.4,0.7c0,0.4,0.3,0.6,1.4,0.6H149.2z
			 M148,72.2c-0.5,0-0.8,0-1-0.1c-0.2,0.2-0.5,0.5-0.5,1c0,0.8,0.6,1.2,2,1.2s2.2-0.5,2.2-1.3c0-0.6-0.3-0.8-1.5-0.8H148z
			 M149.9,67.7c0-1.2-0.5-1.8-1.4-1.8c-0.9,0-1.4,0.7-1.4,1.8c0,1.2,0.5,1.8,1.4,1.8C149.4,69.6,149.9,68.9,149.9,67.7z"/>
		<path fill="#0F0F0F" d="M152.9,65.5c0.4,0,0.8,0,1.2-0.1v1.1h0c0.2-0.3,0.7-1.1,1.7-1.1c0.1,0,0.3,0,0.4,0c0,0.1,0,0.3,0,0.5
			c0,0.2,0,0.5,0,0.6c-0.1,0-0.3,0-0.5,0c-1,0-1.4,0.5-1.5,0.6v3.7c0,0.8,0,1.3,0.1,1.4h-1.3V65.5z"/>
		<path fill="#0F0F0F" d="M158.1,68.9c0,1.8,0.6,2.7,1.7,2.7c1,0,1.3-0.8,1.4-1.2c0.4,0,0.9,0.1,1.1,0.2c-0.4,1-1.1,1.7-2.6,1.7
			c-2.1,0-3.1-1.5-3.1-3.5c0-2,1-3.4,3-3.4c1.9,0,2.8,1.4,2.8,3c0,0.2,0,0.4,0,0.6H158.1z M161.2,68.2c0-1.5-0.4-2.3-1.5-2.3
			c-1,0-1.6,0.7-1.6,2.3H161.2z"/>
		<path fill="#0F0F0F" d="M164,65.5c0.4,0,0.8,0,1.2-0.1v1.1h0c0.2-0.3,0.7-1.1,1.7-1.1c0.1,0,0.3,0,0.4,0c0,0.1,0,0.3,0,0.5
			c0,0.2,0,0.5,0,0.6c-0.1,0-0.3,0-0.5,0c-1,0-1.4,0.5-1.5,0.6v3.7c0,0.8,0,1.3,0.1,1.4H164V65.5z"/>
		<path fill="#0F0F0F" d="M169.1,62.9c0.4,0,0.7,0.3,0.7,0.7c0,0.4-0.3,0.7-0.7,0.7c-0.5,0-0.7-0.3-0.7-0.7
			C168.4,63.2,168.6,62.9,169.1,62.9z M168.5,65.5c0.1,0,0.8,0,1.2-0.1v5.3c0,0.7,0,1.3,0.1,1.5h-1.3V65.5z"/>
		<path fill="#0F0F0F" d="M171.5,65.5c0.1,0,0.7,0,1.2-0.1v0.9c0.3-0.5,1.1-1,2.1-1c1.6,0,2.1,1.1,2.1,2.5v2.8c0,0.7,0,1.3,0.1,1.5
			h-1.3V68c0-1.2-0.3-1.9-1.4-1.9c-0.7,0-1.2,0.3-1.5,0.6v5.4h-1.2V65.5z"/>
		<path fill="#0F0F0F" d="M181.9,71.2c1.9,0,2.5,0.6,2.5,1.5c0,1.2-1,2.2-3.4,2.2c-1.9,0-2.8-0.7-2.8-1.7c0-0.7,0.5-1.1,1.1-1.2
			c-0.5-0.2-0.7-0.6-0.7-1c0-0.5,0.4-1,1-1.3c-0.6-0.4-0.9-1.1-0.9-2c0-1.5,1.1-2.4,2.7-2.4c0.4,0,0.8,0.1,1.1,0.2h2.2v0.7H183
			c0.3,0.2,0.8,0.8,0.8,1.7c0,1.4-1.1,2.4-2.7,2.4c-0.5,0-0.9-0.1-1.3-0.2c-0.2,0.2-0.4,0.4-0.4,0.7c0,0.4,0.3,0.6,1.4,0.6H181.9z
			 M180.7,72.2c-0.5,0-0.8,0-1-0.1c-0.2,0.2-0.5,0.5-0.5,1c0,0.8,0.6,1.2,2,1.2c1.3,0,2.2-0.5,2.2-1.3c0-0.6-0.3-0.8-1.5-0.8H180.7z
			 M182.6,67.7c0-1.2-0.5-1.8-1.4-1.8c-0.9,0-1.4,0.7-1.4,1.8c0,1.2,0.5,1.8,1.4,1.8C182.1,69.6,182.6,68.9,182.6,67.7z"/>
		<path fill="#0F0F0F" d="M186.2,70.5c0.1,0.4,0.5,1.2,1.6,1.2c0.8,0,1.3-0.5,1.3-1.2c0-0.8-0.8-1-1.7-1.3c-0.9-0.3-2-0.6-2-1.9
			c0-1.1,0.8-1.9,2.4-1.9c1.8,0,2.3,1,2.4,1.5c-0.2,0.1-0.7,0.2-1,0.2c-0.1-0.3-0.4-1-1.4-1c-0.8,0-1.3,0.4-1.3,1.1
			c0,0.7,0.8,1,1.7,1.2c1,0.3,2,0.6,2,2c0,1.2-0.8,2.1-2.5,2.1c-1.6,0-2.3-0.8-2.5-1.6C185.4,70.6,185.9,70.5,186.2,70.5z"/>
		<path fill="#0F0F0F" d="M191.4,67.7h3.5v1h-3.5V67.7z"/>
		<path fill="#0F0F0F" d="M199.1,68.8c0-2,1-3.5,3.1-3.5c2.2,0,3.1,1.5,3.1,3.5c0,2-1,3.5-3.1,3.5C200.1,72.3,199.1,70.8,199.1,68.8
			z M204,68.8c0-1.8-0.5-2.8-1.8-2.8c-1.3,0-1.8,1.1-1.8,2.8c0,1.8,0.5,2.8,1.8,2.8C203.5,71.6,204,70.5,204,68.8z"/>
		<path fill="#0F0F0F" d="M210,71.2c1.9,0,2.5,0.6,2.5,1.5c0,1.2-1,2.2-3.4,2.2c-1.9,0-2.8-0.7-2.8-1.7c0-0.7,0.5-1.1,1.1-1.2
			c-0.5-0.2-0.7-0.6-0.7-1c0-0.5,0.4-1,1-1.3c-0.6-0.4-0.9-1.1-0.9-2c0-1.5,1.1-2.4,2.7-2.4c0.4,0,0.8,0.1,1.1,0.2h2.2v0.7h-1.4
			c0.3,0.2,0.8,0.8,0.8,1.7c0,1.4-1.1,2.4-2.7,2.4c-0.5,0-0.9-0.1-1.3-0.2c-0.2,0.2-0.4,0.4-0.4,0.7c0,0.4,0.3,0.6,1.4,0.6H210z
			 M208.8,72.2c-0.5,0-0.8,0-1-0.1c-0.2,0.2-0.5,0.5-0.5,1c0,0.8,0.6,1.2,2,1.2c1.3,0,2.2-0.5,2.2-1.3c0-0.6-0.3-0.8-1.5-0.8H208.8z
			 M210.7,67.7c0-1.2-0.5-1.8-1.4-1.8c-0.9,0-1.4,0.7-1.4,1.8c0,1.2,0.5,1.8,1.4,1.8C210.2,69.6,210.7,68.9,210.7,67.7z"/>
		<path fill="#0F0F0F" d="M124.5,82c0.1,0,0.7,0,1.2-0.1v0.9c0.3-0.5,0.9-0.9,1.9-0.9c0.9,0,1.4,0.4,1.6,1c0.3-0.5,1-1,2-1
			c1.5,0,1.9,1.1,1.9,2.5v2.9c0,0.7,0,1.3,0.1,1.5h-1.3v-4.1c0-1.2-0.2-1.9-1.2-1.9c-0.7,0-1.2,0.4-1.4,0.7c0.1,0.3,0.1,0.7,0.1,1
			v4.3h-1.2v-4.1c0-1.2-0.2-1.9-1.1-1.9c-0.6,0-1.1,0.3-1.3,0.6v5.4h-1.2V82z"/>
		<path fill="#0F0F0F" d="M138.9,88.8c-0.1-0.2-0.2-0.4-0.3-0.7c-0.4,0.4-0.9,0.7-1.8,0.7c-1.4,0-2.2-0.8-2.2-2
			c0-1.5,1.1-2.1,2.7-2.1c0.5,0,1,0.1,1.2,0.1V84c0-0.9-0.2-1.5-1.2-1.5c-0.9,0-1.4,0.6-1.5,1c-0.4,0-0.9-0.2-1-0.4
			c0.4-0.8,1.3-1.3,2.6-1.3c1.9,0,2.4,1,2.4,2.2v2.7c0,0.8,0,1.4,0.2,1.7L138.9,88.8z M138.6,85.5c-0.2-0.1-0.5-0.1-1-0.1
			c-0.9,0-1.7,0.3-1.7,1.4c0,1,0.6,1.3,1.4,1.3c0.6,0,1-0.2,1.4-0.5V85.5z"/>
		<path fill="#0F0F0F" d="M141.6,82c0.1,0,0.7,0,1.2-0.1v0.9c0.3-0.5,1.1-1,2.1-1c1.6,0,2.1,1.1,2.1,2.5v2.8c0,0.7,0,1.3,0.1,1.5
			h-1.3v-4.1c0-1.2-0.3-1.9-1.4-1.9c-0.7,0-1.2,0.3-1.5,0.6v5.4h-1.2V82z"/>
		<path fill="#0F0F0F" d="M152,87.7c1.9,0,2.5,0.6,2.5,1.5c0,1.2-1,2.2-3.4,2.2c-1.9,0-2.8-0.7-2.8-1.7c0-0.7,0.5-1.1,1.1-1.2
			c-0.5-0.2-0.7-0.6-0.7-1c0-0.5,0.4-1,1-1.3c-0.6-0.4-0.9-1.1-0.9-2c0-1.5,1.1-2.4,2.7-2.4c0.4,0,0.8,0.1,1.1,0.2h2.2v0.7h-1.4
			c0.3,0.2,0.8,0.8,0.8,1.7c0,1.4-1.1,2.4-2.7,2.4c-0.5,0-0.9-0.1-1.3-0.2c-0.2,0.2-0.4,0.4-0.4,0.7c0,0.4,0.3,0.6,1.4,0.6H152z
			 M150.8,88.8c-0.5,0-0.8,0-1-0.1c-0.2,0.2-0.5,0.5-0.5,1c0,0.8,0.6,1.2,2,1.2c1.3,0,2.2-0.5,2.2-1.3c0-0.6-0.3-0.8-1.5-0.8H150.8z
			 M152.7,84.3c0-1.2-0.5-1.8-1.4-1.8c-0.9,0-1.4,0.7-1.4,1.8c0,1.2,0.5,1.8,1.4,1.8C152.2,86.1,152.7,85.5,152.7,84.3z"/>
		<path fill="#0F0F0F" d="M156,82.7h-0.9V82h0.9v-0.6c0-1.6,0.8-2.1,2-2.1c0.5,0,0.8,0.1,0.9,0.1c0,0.1,0,0.2,0,0.3
			c0,0.2,0,0.4,0,0.4c-0.1-0.1-0.4-0.1-0.7-0.1c-0.8,0-1,0.4-1,1.4V82h1.6v0.7h-1.6v4.5c0,0.7,0,1.3,0.1,1.5H156V82.7z"/>
		<path fill="#0F0F0F" d="M159.3,85.3c0-2,1-3.5,3.1-3.5c2.2,0,3.1,1.5,3.1,3.5c0,2-1,3.5-3.1,3.5C160.2,88.8,159.3,87.4,159.3,85.3
			z M164.2,85.3c0-1.8-0.5-2.8-1.8-2.8c-1.3,0-1.8,1.1-1.8,2.8s0.5,2.8,1.8,2.8C163.7,88.2,164.2,87.1,164.2,85.3z"/>
		<path fill="#0F0F0F" d="M167,79.5c0.1,0,0.8,0,1.2-0.1v7.9c0,0.7,0,1.3,0.1,1.5H167V79.5z"/>
		<path fill="#0F0F0F" d="M174.5,88.8c-0.1-0.2-0.2-0.4-0.3-0.8c-0.4,0.4-1.1,0.8-1.9,0.8c-1.9,0-2.6-1.5-2.6-3.5
			c0-2,0.8-3.5,2.6-3.5c0.9,0,1.5,0.3,1.9,0.8v-3.2c0.1,0,0.8,0,1.2-0.1v7.5c0,0.6,0,1.4,0.2,1.7L174.5,88.8z M174.2,83.2
			c-0.4-0.4-0.9-0.6-1.5-0.6c-1.3,0-1.7,1-1.7,2.7c0,1.7,0.4,2.7,1.7,2.7c0.6,0,1.1-0.2,1.5-0.6V83.2z"/>
		<path fill="#0F0F0F" d="M177.8,87c0.1,0.4,0.5,1.2,1.6,1.2c0.8,0,1.3-0.5,1.3-1.2c0-0.8-0.8-1-1.7-1.3c-0.9-0.3-2-0.6-2-1.9
			c0-1.1,0.8-1.9,2.4-1.9c1.8,0,2.3,1,2.4,1.5c-0.2,0.1-0.7,0.2-1,0.2c-0.1-0.3-0.4-1-1.4-1c-0.8,0-1.3,0.4-1.3,1.1
			c0,0.7,0.8,1,1.7,1.2c1,0.3,2,0.6,2,2c0,1.2-0.8,2.1-2.5,2.1c-1.6,0-2.3-0.8-2.5-1.6C177,87.1,177.5,87,177.8,87z"/>
		<path fill="#0F0F0F" d="M187.7,88.8c-0.1-0.2-0.2-0.4-0.3-0.8c-0.4,0.4-1.1,0.8-1.9,0.8c-1.9,0-2.6-1.5-2.6-3.5
			c0-2,0.8-3.5,2.6-3.5c0.9,0,1.5,0.3,1.9,0.8v-3.2c0.1,0,0.8,0,1.2-0.1v7.5c0,0.6,0,1.4,0.2,1.7L187.7,88.8z M187.4,83.2
			c-0.4-0.4-0.9-0.6-1.5-0.6c-1.3,0-1.7,1-1.7,2.7c0,1.7,0.4,2.7,1.7,2.7c0.6,0,1.1-0.2,1.5-0.6V83.2z"/>
		<path fill="#0F0F0F" d="M191,79.5c0.4,0,0.7,0.3,0.7,0.7s-0.3,0.7-0.7,0.7c-0.5,0-0.7-0.3-0.7-0.7S190.6,79.5,191,79.5z M190.4,82
			c0.1,0,0.8,0,1.2-0.1v5.3c0,0.7,0,1.3,0.1,1.5h-1.3V82z"/>
		<path fill="#0F0F0F" d="M193.5,82c0.4,0,0.8,0,1.2-0.1V83h0c0.2-0.3,0.7-1.1,1.7-1.1c0.1,0,0.3,0,0.4,0c0,0.1,0,0.3,0,0.5
			c0,0.2,0,0.5,0,0.6c-0.1,0-0.3,0-0.5,0c-1,0-1.4,0.5-1.5,0.6v3.7c0,0.8,0,1.3,0.1,1.4h-1.3V82z"/>
		<path fill="#0F0F0F" d="M198.7,85.4c0,1.8,0.6,2.7,1.7,2.7c1,0,1.3-0.8,1.4-1.2c0.4,0,0.9,0.1,1.1,0.2c-0.4,1-1.1,1.7-2.6,1.7
			c-2.1,0-3.1-1.5-3.1-3.5c0-2,1-3.4,3-3.4c1.9,0,2.8,1.4,2.8,3c0,0.2,0,0.4,0,0.6H198.7z M201.8,84.8c0-1.5-0.4-2.3-1.5-2.3
			c-1,0-1.6,0.7-1.6,2.3H201.8z"/>
		<path fill="#0F0F0F" d="M204.5,79.5c0.1,0,0.8,0,1.2-0.1v5.4h0l2.5-2.7h1.2v0.1l-2.6,2.7l2.7,3.8v0.1h-1.4l-2.4-3.5h0v3.5h-1.2
			V79.5z"/>
		<path fill="#0F0F0F" d="M211,82.7h-0.9V82h1v-1.7c0.1,0,0.7,0,1.2-0.1V82h1.5v0.7h-1.5v4.2c0,0.9,0.2,1.1,1,1.1
			c0.2,0,0.5,0,0.6-0.1c0,0.1,0,0.2,0,0.4c0,0.1,0,0.3,0,0.3c-0.1,0.1-0.4,0.1-0.9,0.1c-1.3,0-1.9-0.4-1.9-1.9V82.7z"/>
		<path fill="#0F0F0F" d="M214.5,85.3c0-2,1-3.5,3.1-3.5c2.2,0,3.1,1.5,3.1,3.5c0,2-1,3.5-3.1,3.5C215.5,88.8,214.5,87.4,214.5,85.3
			z M219.4,85.3c0-1.8-0.5-2.8-1.8-2.8c-1.3,0-1.8,1.1-1.8,2.8s0.5,2.8,1.8,2.8C218.9,88.2,219.4,87.1,219.4,85.3z"/>
		<path fill="#0F0F0F" d="M222.2,82c0.4,0,0.8,0,1.2-0.1V83h0c0.2-0.3,0.7-1.1,1.7-1.1c0.1,0,0.3,0,0.4,0c0,0.1,0,0.3,0,0.5
			c0,0.2,0,0.5,0,0.6c-0.1,0-0.3,0-0.5,0c-1,0-1.4,0.5-1.5,0.6v3.7c0,0.8,0,1.3,0.1,1.4h-1.3V82z"/>
		<path fill="#0F0F0F" d="M230.6,88.8c-0.1-0.2-0.2-0.4-0.3-0.7c-0.4,0.4-0.9,0.7-1.8,0.7c-1.4,0-2.2-0.8-2.2-2
			c0-1.5,1.1-2.1,2.7-2.1c0.5,0,1,0.1,1.2,0.1V84c0-0.9-0.2-1.5-1.2-1.5c-0.9,0-1.4,0.6-1.5,1c-0.4,0-0.9-0.2-1-0.4
			c0.4-0.8,1.3-1.3,2.6-1.3c1.9,0,2.4,1,2.4,2.2v2.7c0,0.8,0,1.4,0.2,1.7L230.6,88.8z M230.3,85.5c-0.2-0.1-0.5-0.1-1-0.1
			c-0.9,0-1.7,0.3-1.7,1.4c0,1,0.6,1.3,1.4,1.3c0.6,0,1-0.2,1.4-0.5V85.5z"/>
		<path fill="#0F0F0F" d="M233.6,82.7h-0.9V82h1v-1.7c0.1,0,0.7,0,1.2-0.1V82h1.5v0.7h-1.5v4.2c0,0.9,0.2,1.1,1,1.1
			c0.2,0,0.5,0,0.6-0.1c0,0.1,0,0.2,0,0.4c0,0.1,0,0.3,0,0.3c-0.1,0.1-0.4,0.1-0.9,0.1c-1.3,0-1.9-0.4-1.9-1.9V82.7z"/>
		<path fill="#0F0F0F" d="M238.4,85.4c0,1.8,0.6,2.7,1.7,2.7c1,0,1.3-0.8,1.4-1.2c0.4,0,0.9,0.1,1.1,0.2c-0.4,1-1.1,1.7-2.6,1.7
			c-2.1,0-3.1-1.5-3.1-3.5c0-2,1-3.4,3-3.4c1.9,0,2.8,1.4,2.8,3c0,0.2,0,0.4,0,0.6H238.4z M241.6,84.8c0-1.5-0.4-2.3-1.5-2.3
			c-1,0-1.6,0.7-1.6,2.3H241.6z"/>
		<path fill="#0F0F0F" d="M244.5,82.7h-0.9V82h1v-1.7c0.1,0,0.7,0,1.2-0.1V82h1.5v0.7h-1.5v4.2c0,0.9,0.2,1.1,1,1.1
			c0.2,0,0.5,0,0.6-0.1c0,0.1,0,0.2,0,0.4c0,0.1,0,0.3,0,0.3c-0.1,0.1-0.4,0.1-0.9,0.1c-1.3,0-1.9-0.4-1.9-1.9V82.7z"/>
	</g>
</g>
</svg>
