<svg xmlns="http://www.w3.org/2000/svg" width="400" height="200" viewBox="0 0 400 200"><path fill="#FFD766" d="M54.9 101l45.8-45.8L54.9 9.3z"/><path opacity=".9" fill="#49B249" d="M9 55.2L54.9 101l45.8-45.8z"/><path fill="#FF523B" d="M-.3 45.9h46.2L45.6 0z"/><g fill="#0F0F0F"><path d="M131 31.9h7.8v45.9H131V31.9zM150.1 31.9h10.1l7 19.4c2.3 6.2 4.7 13.2 5.4 16.7h.4c.8-3.5 3.1-10.5 5.4-16.3l7.4-19.4h10.1v45.5h-7.8V58.3c0-8.2.4-15.2.4-17.9h-.8c-.8 2.7-2.3 7.8-4.7 14.4l-8.5 22.9h-5.1L161 54.8c-2.3-6.6-3.9-11.7-4.7-14.4h-.4c0 2.7.4 9.7.4 17.9v19.4h-6.6V31.9h.4zM206.4 31.9h12.8c15.5 0 22.1 8.5 22.1 22.9s-6.6 23.3-22.1 23.3h-12.8V31.9zm12.5 41.2c9.3 0 13.2-5.8 13.2-18.7s-3.9-18.3-13.2-18.3h-4.7V73h4.7zM253.1 31.1c2.7 0 4.3 1.6 4.3 3.9s-1.6 3.9-4.3 3.9-4.3-1.6-4.3-3.9 1.5-3.9 4.3-3.9zm-3.9 13.2c1.6 0 5.1-.4 7.4-.4v26.8c0 3.9 0 7 .4 7.4h-7.8V44.3z"/></g></svg>