<?xml version="1.0" encoding="utf-8"?>
<!-- Generator: Adobe Illustrator 18.1.1, SVG Export Plug-In . SVG Version: 6.00 Build 0)  -->
<svg version="1.1" id="Layer_1" xmlns="http://www.w3.org/2000/svg" xmlns:xlink="http://www.w3.org/1999/xlink" x="0px" y="0px"
	 width="400px" height="200px" viewBox="0 0 400 200" enable-background="new 0 0 400 200" xml:space="preserve">
<g>
	<g>
		<g>
			<polygon fill="#FFD766" points="54.9,101 100.7,55.2 54.9,9.3 			"/>
		</g>
		<polygon opacity="0.9" fill="#49B249" enable-background="new    " points="9,55.2 54.9,101 100.7,55.2 		"/>
		<g>
			<polygon fill="#FF523B" points="-0.3,45.9 45.9,45.9 45.6,0 			"/>
		</g>
	</g>
	<g>
		<path fill="#0F0F0F" d="M131,31.9h7.8v45.9H131V31.9z"/>
		<path fill="#0F0F0F" d="M150.1,31.9h10.1l7,19.4c2.3,6.2,4.7,13.2,5.4,16.7h0.4c0.8-3.5,3.1-10.5,5.4-16.3l7.4-19.4h10.1v45.5
			h-7.8V58.3c0-8.2,0.4-15.2,0.4-17.9h-0.8c-0.8,2.7-2.3,7.8-4.7,14.4l-8.5,22.9h-5.1L161,54.8c-2.3-6.6-3.9-11.7-4.7-14.4h-0.4
			c0,2.7,0.4,9.7,0.4,17.9v19.4h-6.6V31.9H150.1z"/>
		<path fill="#0F0F0F" d="M206.4,31.9h12.8c15.5,0,22.1,8.5,22.1,22.9s-6.6,23.3-22.1,23.3h-12.8V31.9L206.4,31.9z M218.9,73.1
			c9.3,0,13.2-5.8,13.2-18.7s-3.9-18.3-13.2-18.3h-4.7v36.9H218.9z"/>
		<path fill="#0F0F0F" d="M253.1,31.1c2.7,0,4.3,1.6,4.3,3.9c0,2.3-1.6,3.9-4.3,3.9s-4.3-1.6-4.3-3.9S250.3,31.1,253.1,31.1z
			 M249.2,44.3c1.6,0,5.1-0.4,7.4-0.4v26.8c0,3.9,0,7,0.4,7.4h-7.8V44.3L249.2,44.3z"/>
	</g>
</g>
</svg>
