<?xml version="1.0" encoding="utf-8"?>
<!-- Generator: Adobe Illustrator 17.1.0, SVG Export Plug-In . SVG Version: 6.00 Build 0)  -->
<!DOCTYPE svg PUBLIC "-//W3C//DTD SVG 1.1//EN" "http://www.w3.org/Graphics/SVG/1.1/DTD/svg11.dtd">
<svg version="1.1" id="Layer_1" xmlns="http://www.w3.org/2000/svg" xmlns:xlink="http://www.w3.org/1999/xlink" x="0px" y="0px"
	 width="30px" height="30px" viewBox="0 0 30 30" enable-background="new 0 0 30 30" xml:space="preserve">
<g id="Share_2_">
	<g>
		<path fill-rule="evenodd" clip-rule="evenodd" fill="#F15640" d="M24.1,24.7H5.8V10.6h5.7l1.4-1.4l0,0H5.8c-0.8,0-1.4,0.6-1.4,1.4
			v14.1c0,0.8,0.6,1.4,1.4,1.4h18.3c0.8,0,1.4-0.6,1.4-1.4v-11L24.1,15V24.7z M10.2,19h1.4c1-5.6,5.9-9.9,11.7-9.9
			c0.2,0,0.5,0,0.7,0l-2.6,2.6c-0.3,0.3-0.3,0.7,0,1c0.1,0.1,0.3,0.2,0.5,0.2c0.2,0,0.4-0.1,0.5-0.2l4.2-4.3l-4.2-4.3
			c-0.3-0.3-0.7-0.3-1,0s-0.3,0.7,0,1l2.6,2.6c-0.2,0-0.4,0-0.7,0C16.8,7.8,11.3,12.7,10.2,19z"/>
	</g>
</g>
</svg>
