<?xml version="1.0" encoding="utf-8"?>
<!-- Generated by IcoMoon.io -->
<!DOCTYPE svg PUBLIC "-//W3C//DTD SVG 1.1//EN" "http://www.w3.org/Graphics/SVG/1.1/DTD/svg11.dtd">
<svg version="1.1" xmlns="http://www.w3.org/2000/svg" xmlns:xlink="http://www.w3.org/1999/xlink" width="32" height="32" viewBox="0 0 32 32">
<path fill="#000000" d="M26.536 0h-19.938c-1.438 0-2.063 1.063-2.063 2.063v3.979h-1.091c-0.541 0-0.979 0.439-0.979 0.979s0.438 0.979 0.979 0.979h1.091v4.024h-0.998c-0.541 0-0.979 0.438-0.979 0.979s0.438 0.979 0.979 0.979h0.998v4.045h-1.019c-0.541 0-0.979 0.439-0.979 0.98s0.438 0.98 0.979 0.98h1.019v4.015h-1.019c-0.541 0-0.979 0.439-0.979 0.98s0.438 0.98 0.979 0.98h1.019v4.040c0 1.657 1.298 2 2.017 2h19.984c1.657 0 3-1.343 3-3v-26c0-1.657-1.343-3-3-3zM6.535 30v-4.040h1.042c0.541 0 0.979-0.439 0.979-0.98s-0.438-0.98-0.979-0.98h-1.042v-4.014h1.042c0.541 0 0.979-0.439 0.979-0.98s-0.438-0.98-0.979-0.98h-1.042v-4.045h1.063c0.541 0 0.979-0.438 0.979-0.979s-0.438-0.979-0.979-0.979h-1.063v-4.024h0.97c0.541 0 0.979-0.439 0.979-0.979s-0.438-0.979-0.979-0.979h-0.97v-3.978c0-0.023 0.002-0.043 0.005-0.060 0.016-0.001 0.035-0.002 0.059-0.002h15.938v28h-16.001zM27.536 29c0 0.552-0.448 1-1 1h-2v-28h2c0.552 0 1 0.448 1 1v26z"></path>
</svg>
