<?xml version="1.0" encoding="utf-8"?>
<!-- Generated by IcoMoon.io -->
<!DOCTYPE svg PUBLIC "-//W3C//DTD SVG 1.1//EN" "http://www.w3.org/Graphics/SVG/1.1/DTD/svg11.dtd">
<svg version="1.1" xmlns="http://www.w3.org/2000/svg" xmlns:xlink="http://www.w3.org/1999/xlink" width="32" height="32" viewBox="0 0 32 32">
<path fill="#000000" d="M31.979 14.79c-0.043-0.354-0.175-0.678-0.378-0.952h0.005l-0.027-0.027c-0.102-0.135-0.223-0.254-0.357-0.36l-13.040-12.607c-1.132-1.132-3.11-1.134-4.243 0l-13.038 12.508c-0.282 0.262-0.902 0.972-0.902 1.667v14.985c0 1.099 0.9 2 2 2h28c1.099 0 2-0.901 2-2v-14.945c0.007-0.090-0.002-0.18-0.020-0.269zM8.431 22.698l-6.433 5.924v-11.599l6.433 5.675zM10.486 23.523c0.072-0.047 0.139-0.102 0.199-0.169 0.011-0.013 0.020-0.029 0.030-0.042l4.412-4.063c0.226-0.183 0.495-0.279 0.777-0.279 0.287 0 0.574 0.101 0.767 0.25l11.988 10.784h-25.21l7.038-6.483zM23.671 22.83l6.328-5.616v11.308l-6.328-5.692zM3.243 13.838l12.11-11.579c0.19-0.188 0.441-0.293 0.707-0.293s0.518 0.105 0.708 0.293l11.293 10.761h-0.030l1.715 1.744-7.572 6.72-4.227-3.802c-1.177-0.923-2.868-0.963-4.115 0.043l-3.922 3.612-7.556-6.667 0.844-0.831h0.046z"></path>
</svg>
