<?xml version="1.0" encoding="utf-8"?>
<!-- Generated by IcoMoon.io -->
<!DOCTYPE svg PUBLIC "-//W3C//DTD SVG 1.1//EN" "http://www.w3.org/Graphics/SVG/1.1/DTD/svg11.dtd">
<svg version="1.1" xmlns="http://www.w3.org/2000/svg" xmlns:xlink="http://www.w3.org/1999/xlink" width="32" height="32" viewBox="0 0 32 32">
<path fill="#000000" d="M31.982 7.024c-0.023-0.319-0.197-0.609-0.468-0.779l-8.912-5.561c-0.363-0.226-0.826-0.198-1.158 0.072l-5.444 4.404-5.444-4.404c-0.331-0.268-0.798-0.298-1.158-0.072l-8.912 5.561c-0.272 0.17-0.446 0.459-0.468 0.779s0.108 0.63 0.353 0.836l5.163 4.338-4.423 3.474c-0.253 0.197-0.395 0.506-0.382 0.826s0.177 0.614 0.445 0.793l4.093 2.729c-0.201 0.183-0.33 0.444-0.33 0.738v4.011c0 0.348 0.181 0.67 0.476 0.852l10.062 5.701c0.16 0.099 0.342 0.148 0.524 0.148s0.364-0.050 0.525-0.148l9.944-5.701c0.296-0.183 0.476-0.505 0.476-0.852v-4.704c0-0.064-0.008-0.128-0.019-0.189l3.877-2.584c0.267-0.177 0.431-0.471 0.445-0.791s-0.128-0.627-0.38-0.825l-4.404-3.473 5.166-4.34c0.245-0.206 0.377-0.516 0.354-0.836zM23.021 12.208l-7.021 4.4-7.021-4.399 7.021-4.569 7.021 4.569zM2.712 7.214l7.139-4.456 4.449 3.599-7.104 4.624-4.484-3.768zM7.185 13.444l7.061 4.425-4.002 3.064-6.813-4.541 3.753-2.947zM6.938 21.132l2.792 1.861c0.354 0.236 0.822 0.221 1.162-0.038l4.044-3.095v8.837l-7.998-4.49v-3.076zM24.944 24.208l-8.008 4.553v-8.993l4.145 3.186c0.178 0.137 0.395 0.207 0.61 0.207 0.194 0 0.387-0.055 0.555-0.168l2.698-1.799v3.014zM28.546 16.39l-6.814 4.541-3.983-3.061 7.063-4.426 3.733 2.945zM24.802 10.982l-7.105-4.624 4.45-3.599 7.14 4.456-4.485 3.767z"></path>
</svg>
