<?xml version="1.0" encoding="utf-8"?>
<!-- Generated by IcoMoon.io -->
<!DOCTYPE svg PUBLIC "-//W3C//DTD SVG 1.1//EN" "http://www.w3.org/Graphics/SVG/1.1/DTD/svg11.dtd">
<svg version="1.1" xmlns="http://www.w3.org/2000/svg" xmlns:xlink="http://www.w3.org/1999/xlink" width="32" height="32" viewBox="0 0 32 32">
<path fill="#000000" d="M15.888 31.977c-7.539 0-12.886-5.227-12.886-12.431 0-3.824 2.293-7.944 2.39-8.116 0.199-0.354 0.59-0.547 0.998-0.502 0.404 0.052 0.736 0.343 0.84 0.736 0.006 0.024 0.624 2.336 1.439 3.62 0.548 0.864 1.104 1.474 1.729 1.898-0.423-1.833-0.747-4.591-0.22-7.421 1.448-7.768 7.562-9.627 7.824-9.701 0.337-0.097 0.695-0.010 0.951 0.224s0.373 0.586 0.306 0.927c-0.010 0.054-1.020 5.493 1.123 10.127 0.195 0.421 0.466 0.91 0.758 1.399 0.083-0.672 0.212-1.386 0.41-2.080 0.786-2.749 2.819-3.688 2.904-3.726 0.339-0.154 0.735-0.104 1.027 0.126s0.433 0.603 0.365 0.969c-0.011 0.068-0.294 1.938 1.298 4.592 1.438 2.396 1.852 3.949 1.852 6.927 0 7.203-5.514 12.43-13.111 12.43zM6.115 14.615c-0.549 1.385-1.115 3.226-1.115 4.932 0 6.044 4.506 10.431 10.886 10.431 6.438 0 11.11-4.386 11.11-10.431 0-2.611-0.323-3.822-1.567-5.899-0.832-1.386-1.243-2.633-1.439-3.625-0.198 0.321-0.382 0.712-0.517 1.184-0.61 2.131-0.456 4.623-0.454 4.649 0.029 0.446-0.242 0.859-0.664 1.008s-0.892 0.002-1.151-0.364c-0.075-0.107-1.854-2.624-2.637-4.32-1.628-3.518-1.601-7.323-1.434-9.514-1.648 0.96-4.177 3.104-4.989 7.466-0.791 4.244 0.746 8.488 0.762 8.529 0.133 0.346 0.063 0.739-0.181 1.018-0.245 0.277-0.622 0.401-0.986 0.314-0.124-0.030-2.938-0.762-4.761-3.634-0.325-0.514-0.617-1.137-0.864-1.742z"></path>
</svg>
