<?xml version="1.0" encoding="utf-8"?>
<!-- Generated by IcoMoon.io -->
<!DOCTYPE svg PUBLIC "-//W3C//DTD SVG 1.1//EN" "http://www.w3.org/Graphics/SVG/1.1/DTD/svg11.dtd">
<svg version="1.1" xmlns="http://www.w3.org/2000/svg" xmlns:xlink="http://www.w3.org/1999/xlink" width="32" height="32" viewBox="0 0 32 32">
<path fill="#000000" d="M4.519 2.043l22.992 13.956-23.023 13.957 0.031-27.913zM4.519 0.043c-0.335 0-0.669 0.084-0.971 0.252-0.635 0.352-1.029 1.022-1.029 1.748l-0.031 27.913c0 0.727 0.393 1.395 1.028 1.748 0.303 0.168 0.636 0.252 0.971 0.252 0.366 0 0.734-0.101 1.056-0.302l23.023-13.957c0.588-0.364 0.945-1.007 0.945-1.698s-0.358-1.334-0.945-1.698l-22.991-13.957c-0.322-0.2-0.689-0.301-1.056-0.301v0z"></path>
</svg>
