<?xml version="1.0" encoding="utf-8"?>
<!-- Generated by IcoMoon.io -->
<!DOCTYPE svg PUBLIC "-//W3C//DTD SVG 1.1//EN" "http://www.w3.org/Graphics/SVG/1.1/DTD/svg11.dtd">
<svg version="1.1" xmlns="http://www.w3.org/2000/svg" xmlns:xlink="http://www.w3.org/1999/xlink" width="32" height="32" viewBox="0 0 32 32">
<path fill="#000000" d="M31.968 15.937l-3.672-12.722c-0.12-0.433-0.514-0.734-0.964-0.734h-22.98c-0.453 0-0.849 0.304-0.967 0.743l-3.356 12.073c-0.062 0.235-0.032 0.469 0.063 0.673-0.054 0.181-0.092 0.37-0.092 0.568v10.979c0 1.105 0.895 2 2 2h28c1.105 0 2-0.895 2-2v-10.979c0-0.053-0.012-0.104-0.015-0.157 0.026-0.143 0.025-0.295-0.017-0.446zM5.122 4.482h21.449l2.91 10.058h-9.323c-0.045 2.401-1.747 4.052-4.158 4.052s-4.082-1.652-4.127-4.053h-9.556l2.804-10.057zM30 27.518h-28v-10.979h8.223c0.873 2.514 2.993 4.052 5.777 4.052s4.936-1.539 5.809-4.053h8.191v10.979z"></path>
</svg>
