<?xml version="1.0" encoding="utf-8"?>
<!-- Generated by IcoMoon.io -->
<!DOCTYPE svg PUBLIC "-//W3C//DTD SVG 1.1//EN" "http://www.w3.org/Graphics/SVG/1.1/DTD/svg11.dtd">
<svg version="1.1" xmlns="http://www.w3.org/2000/svg" xmlns:xlink="http://www.w3.org/1999/xlink" width="32" height="32" viewBox="0 0 32 32">
<path fill="#000000" d="M32.010 15.925c0 0.552-0.447 0.999-0.999 0.999h-14.027v10.131c0 2.724-2.216 4.94-4.941 4.94s-4.941-2.216-4.941-4.94c0-0.552 0.447-1 1-1s0.999 0.448 0.999 1c0 1.622 1.319 2.942 2.942 2.942s2.942-1.32 2.942-2.942v-10.131h-13.996c-0.552 0-1-0.448-1-0.999 0-7.728 5.654-12.629 14.995-12.953v-1.968c0-0.552 0.447-0.999 0.999-0.999s0.999 0.448 0.999 0.999v1.968c9.344 0.324 15.026 5.225 15.026 12.953zM29.974 14.925c-0.493-6.267-5.59-9.973-13.989-9.973s-13.466 3.706-13.958 9.972h27.947z"></path>
</svg>
