<?xml version="1.0" encoding="utf-8"?>
<!-- Generated by IcoMoon.io -->
<!DOCTYPE svg PUBLIC "-//W3C//DTD SVG 1.1//EN" "http://www.w3.org/Graphics/SVG/1.1/DTD/svg11.dtd">
<svg version="1.1" xmlns="http://www.w3.org/2000/svg" xmlns:xlink="http://www.w3.org/1999/xlink" width="32" height="32" viewBox="0 0 32 32">
<path fill="#000000" d="M24.776 23.023c-3.167 0-4.965-1.488-6.154-2.474-0.421-0.349-0.804-0.684-1.152-0.989-0.529-0.464-1.188-1.042-1.417-1.122-0.007 0-0.116-0.005-0.123-0.006-0.037 0.003-0.13 0.021-0.139 0.023-0.159 0.064-0.722 0.549-1.174 0.938-0.411 0.352-0.879 0.755-1.408 1.168l-0.097 0.074c-1.358 1.061-3.050 2.38-6.036 2.38-2.219 0-4.404-1.004-5.705-2.621-0.873-1.084-1.79-2.97-1.208-5.796 0.071-0.342 0.313-0.622 0.638-0.739 0.328-0.118 0.688-0.053 0.957 0.168 0.020 0.014 0.706 0.542 1.846 0.542 0.574 0 1.172-0.136 1.776-0.405 1.035-0.461 1.773-1.754 2.553-2.627 1.068-1.192 2.277-2.544 4.271-2.559 1.377 0 2.618 0.509 3.726 1.515 1.104-1.002 2.337-1.508 3.677-1.508 2.035 0.015 3.268 1.368 4.358 2.563 0.795 0.871 1.546 2.163 2.581 2.624 0.604 0.268 1.209 0.405 1.797 0.405 1.183 0 1.922-0.541 1.951-0.565 0.274-0.203 0.635-0.256 0.953-0.132s0.552 0.402 0.616 0.739c0.534 2.795-0.405 4.669-1.287 5.749-1.337 1.637-3.559 2.655-5.8 2.655zM15.96 16.433c0.031 0 0.115 0.003 0.145 0.006 0.001 0 0.146 0.011 0.146 0.012 0.011 0.001 0.094 0.012 0.103 0.014 0.724 0.102 1.395 0.692 2.413 1.584 0.334 0.294 0.703 0.617 1.108 0.953 1.087 0.901 2.441 2.020 4.901 2.020 1.666 0 3.305-0.738 4.274-1.927 0.637-0.78 0.969-1.71 0.99-2.774-0.47 0.146-1.040 0.256-1.698 0.256-0.864 0-1.736-0.194-2.593-0.574-1.414-0.628-2.384-2.16-3.24-3.098-1.079-1.184-1.796-1.909-2.878-1.918-1.442 0-2.373 0.908-2.951 1.591-0.189 0.223-0.463 0.351-0.753 0.351v0c-0.29 0-0.565-0.129-0.752-0.351-0.579-0.685-1.513-1.598-2.932-1.598-1.097 0.008-1.794 0.728-2.844 1.902-0.845 0.944-1.803 2.483-3.226 3.115-0.856 0.381-1.722 0.574-2.572 0.574-0.638 0-1.189-0.107-1.645-0.251-0.001 1.085 0.316 2.029 0.948 2.814 0.936 1.161 2.533 1.883 4.17 1.883 2.313 0 3.591-0.998 4.827-1.963l0.097-0.076c0.502-0.392 0.945-0.773 1.334-1.108 0.891-0.765 1.479-1.271 2.114-1.384v0c0.001 0 0.303-0.050 0.512-0.050z"></path>
</svg>
