<?xml version="1.0" encoding="utf-8"?>
<!-- Generated by IcoMoon.io -->
<!DOCTYPE svg PUBLIC "-//W3C//DTD SVG 1.1//EN" "http://www.w3.org/Graphics/SVG/1.1/DTD/svg11.dtd">
<svg version="1.1" xmlns="http://www.w3.org/2000/svg" xmlns:xlink="http://www.w3.org/1999/xlink" width="32" height="32" viewBox="0 0 32 32">
<path fill="#000000" d="M30.991 22.044c0-0.017 0.005-0.034 0.005-0.051v-20.845c0.012-0.109 0.008-0.223-0.018-0.336-0.085-0.466-0.491-0.82-0.982-0.82-0.184 0-0.355 0.053-0.503 0.14l-18.683 4.864c-0.337 0.083-0.586 0.335-0.688 0.646-0.078 0.142-0.125 0.302-0.125 0.475v17.892c-0.952-0.637-2.169-1.020-3.496-1.020-3.048 0-5.52 2.019-5.52 4.509s2.472 4.51 5.52 4.51c3.049 0 5.519-2.019 5.519-4.509 0-0.127-0.011-0.252-0.023-0.377 0-0.001 0-0.002 0-0.003v-20.364l17-4.425v16.68c-0.951-0.637-2.169-1.020-3.496-1.020-3.048 0-5.52 2.020-5.52 4.509 0 2.49 2.472 4.509 5.52 4.509 3.049 0 5.519-2.019 5.519-4.509-0-0.154-0.010-0.305-0.029-0.453zM6.522 29.998c-2.080 0-3.53-1.319-3.53-2.5s1.45-2.498 3.53-2.498c1.851 0 3.2 1.044 3.475 2.107v0.012c0 0.101 0.020 0.197 0.047 0.288 0.002 0.031 0.007 0.061 0.007 0.093 0 1.181-1.45 2.5-3.529 2.5zM25.491 24.998c-2.061 0-3.498-1.318-3.498-2.5s1.437-2.498 3.498-2.498c2.061 0 3.498 1.317 3.498 2.498s-1.436 2.5-3.498 2.5z"></path>
</svg>
