<?xml version="1.0" encoding="utf-8"?>
<!-- Generated by IcoMoon.io -->
<!DOCTYPE svg PUBLIC "-//W3C//DTD SVG 1.1//EN" "http://www.w3.org/Graphics/SVG/1.1/DTD/svg11.dtd">
<svg version="1.1" xmlns="http://www.w3.org/2000/svg" xmlns:xlink="http://www.w3.org/1999/xlink" width="32" height="32" viewBox="0 0 32 32">
<path fill="#000000" d="M28.373 4.515c-0.371-0.346-0.86-0.538-1.364-0.538-0.046 0-0.092 0.002-0.137 0.005-0.029 0.002-0.349 0.021-0.852 0.021-0.833 0-2.459-0.057-3.999-0.436-1.989-0.489-4.285-2.755-4.953-3.202-0.336-0.225-0.724-0.337-1.111-0.337-0.386 0-0.774 0.112-1.111 0.336-0.081 0.054-2.485 2.626-4.836 3.203-1.539 0.379-3.197 0.436-4.029 0.436-0.503 0-0.824-0.019-0.856-0.022-0.044-0.003-0.088-0.005-0.132-0.005-0.506 0-0.996 0.193-1.368 0.54-0.405 0.378-0.635 0.907-0.635 1.46v5.001c0 18.488 12.098 20.869 12.611 20.962 0.117 0.020 0.236 0.032 0.354 0.032s0.237-0.011 0.353-0.032c0.514-0.093 12.7-2.474 12.7-20.962v-5.001c0.001-0.554-0.23-1.084-0.635-1.462zM27.009 10.978c0 17.029-11.053 18.993-11.053 18.993s-10.965-1.965-10.965-18.993c0-4.365 0-5.001 0-5.001s0.378 0.027 0.99 0.027c1.049 0 2.813-0.077 4.505-0.493 2.77-0.679 5.47-3.482 5.47-3.482s2.82 2.802 5.587 3.482c1.694 0.416 3.427 0.493 4.476 0.493 0.611 0 0.99-0.027 0.99-0.027s0 0.636 0 5.001zM20.238 10.82c-0.39-0.39-1.024-0.39-1.414 0l-2.829 2.829-2.829-2.829c-0.39-0.39-1.024-0.39-1.415 0s-0.39 1.024 0 1.414l2.829 2.829-2.829 2.828c-0.39 0.39-0.39 1.023 0 1.414s1.024 0.39 1.415 0l2.829-2.828 2.829 2.828c0.39 0.39 1.023 0.39 1.414 0s0.39-1.024 0-1.414l-2.829-2.829 2.828-2.829c0.39-0.39 0.39-1.024 0-1.414z"></path>
</svg>
