<?xml version="1.0" encoding="utf-8"?>
<!-- Generated by IcoMoon.io -->
<!DOCTYPE svg PUBLIC "-//W3C//DTD SVG 1.1//EN" "http://www.w3.org/Graphics/SVG/1.1/DTD/svg11.dtd">
<svg version="1.1" xmlns="http://www.w3.org/2000/svg" xmlns:xlink="http://www.w3.org/1999/xlink" width="32" height="32" viewBox="0 0 32 32">
<path fill="#000000" d="M16 0c-8.836 0-16 7.163-16 16s7.163 16 16 16c8.837 0 16-7.163 16-16s-7.163-16-16-16zM2 16c0-3.508 1.3-6.718 3.441-9.177l19.745 19.745c-2.46 2.152-5.673 3.463-9.186 3.463-7.72 0-14-6.312-14-14.032zM26.595 25.149l-19.738-19.738c2.456-2.123 5.651-3.412 9.143-3.412 7.72 0 14 6.28 14 14 0 3.489-1.286 6.689-3.405 9.149z"></path>
</svg>
