<?xml version="1.0" encoding="utf-8"?>
<!-- Generated by IcoMoon.io -->
<!DOCTYPE svg PUBLIC "-//W3C//DTD SVG 1.1//EN" "http://www.w3.org/Graphics/SVG/1.1/DTD/svg11.dtd">
<svg version="1.1" xmlns="http://www.w3.org/2000/svg" xmlns:xlink="http://www.w3.org/1999/xlink" width="32" height="32" viewBox="0 0 32 32">
<path fill="#000000" d="M16 0c-8.836 0-16 7.163-16 16s7.163 16 16 16 16-7.163 16-16-7.163-16-16-16zM20 2.593c4.507 1.343 8.052 4.9 9.397 9.407h-6.486c-0.701-1.204-1.706-2.209-2.91-2.908v-6.499zM21.988 16.006c0 3.311-2.681 5.994-5.989 5.994s-5.989-2.683-5.989-5.994 2.681-5.995 5.989-5.995 5.989 2.684 5.989 5.995zM14 2.154c0.653-0.094 1.32-0.144 2-0.144s1.346 0.051 2 0.144v6.119c-0.64-0.165-1.308-0.262-2-0.262s-1.36 0.097-2 0.262v-6.119zM12 2.593v6.499c-1.205 0.7-2.21 1.704-2.91 2.908h-6.487c1.345-4.507 4.89-8.063 9.397-9.407zM2.010 16.005c0-0.682 0.058-1.349 0.152-2.005h6.106c-0.166 0.641-0.258 1.312-0.258 2.006 0 0.689 0.091 1.357 0.255 1.994h-6.105c-0.093-0.652-0.151-1.317-0.151-1.995zM12 29.416c-4.511-1.344-8.056-4.905-9.4-9.416h6.484c0.701 1.208 1.708 2.217 2.916 2.919v6.498zM18 29.855c-0.654 0.093-1.321 0.145-2 0.145s-1.347-0.052-2-0.145v-6.118c0.64 0.166 1.308 0.262 2 0.262s1.36-0.097 2-0.262v6.118zM20 29.416v-6.498c1.208-0.701 2.215-1.71 2.916-2.918h6.483c-1.343 4.511-4.89 8.072-9.399 9.416zM23.735 18c0.164-0.637 0.255-1.305 0.255-1.994 0-0.694-0.091-1.364-0.258-2.005h6.107c0.094 0.656 0.152 1.323 0.152 2.005 0 0.678-0.058 1.343-0.151 1.995h-6.105z"></path>
</svg>
