<?xml version="1.0" encoding="utf-8"?>
<!-- Generator: Adobe Illustrator 19.0.0, SVG Export Plug-In . SVG Version: 6.00 Build 0)  -->
<svg version="1.1" id="Layer_1" xmlns="http://www.w3.org/2000/svg" xmlns:xlink="http://www.w3.org/1999/xlink" x="0px" y="0px"
	 width="32px" height="32px" viewBox="-404 579.55 32 32" enable-background="new -404 579.55 32 32" xml:space="preserve">
<path fill="#FFFFFF" d="M-388,581.971l4.296,8.909l9.769,1.452l-7.075,7.057l0.238,1.416l1.415,8.443l-8.644-4.649l-8.643,4.652
	l1.415-8.444l0.237-1.416l-7.073-7.059l9.768-1.452l0.642-1.329L-388,581.971L-388,581.971z M-388.001,580.036
	c-0.896,0-1.712,0.505-2.093,1.296l-3.622,7.52l-8.335,1.239c-0.856,0.128-1.567,0.713-1.843,1.512
	c-0.276,0.802-0.067,1.684,0.537,2.286l6.106,6.1l-1.417,8.458c-0.143,0.852,0.226,1.707,0.949,2.206
	c0.397,0.273,0.864,0.411,1.332,0.411c0.385,0,0.77-0.093,1.119-0.28l7.265-3.912l7.266,3.912c0.349,0.187,0.735,0.28,1.118,0.28
	c0.468,0,0.934-0.138,1.333-0.411c0.722-0.498,1.091-1.353,0.948-2.206l-1.417-8.458l6.11-6.1c0.605-0.601,0.811-1.485,0.536-2.286
	c-0.276-0.8-0.988-1.385-1.843-1.512l-8.333-1.239l-3.624-7.52c-0.378-0.791-1.195-1.296-2.093-1.296l0,0H-388.001z"/>
</svg>
