<?xml version="1.0" encoding="utf-8"?>
<!-- Generator: Adobe Illustrator 19.0.0, SVG Export Plug-In . SVG Version: 6.00 Build 0)  -->
<svg version="1.1" id="Layer_1" xmlns="http://www.w3.org/2000/svg" xmlns:xlink="http://www.w3.org/1999/xlink" x="0px" y="0px"
	 width="32px" height="32px" viewBox="-404 579.55 32 32" enable-background="new -404 579.55 32 32" xml:space="preserve">
<path fill="#FFFFFF" d="M-382.75,582.529c-5,0-6.333-3-12.666-3c-4.084,0-6.584,3.084-6.584,3.084v27.958c0,0.552,0.448,1,1,1
	s1-0.448,1-1v-12.746c1.055-0.68,2.511-1.296,4.334-1.296c6.333,0,8.166,3,13.166,3s8.5-3,8.5-3v-17
	C-374,579.529-377.75,582.529-382.75,582.529z M-376,595.51c-1.13,0.737-3.524,2.019-6.5,2.019c-1.966,0-3.308-0.54-5.007-1.223
	c-2.071-0.832-4.419-1.777-8.159-1.777c-1.709,0-3.159,0.43-4.334,1.005v-12.108c0.753-0.685,2.394-1.897,4.584-1.897
	c2.941,0,4.597,0.714,6.35,1.469c1.746,0.752,3.552,1.531,6.316,1.531c2.664,0,5.004-0.737,6.75-1.529v12.509V595.51z"/>
</svg>
