<svg xmlns="http://www.w3.org/2000/svg" width="32" height="32" viewBox="-404 579.55 32 32"><path fill="#FFF" d="M-392.025 590.388l-.02-7.22c-.01-.403-.345-.643-.75-.653h-.512c-.405-.01-.725.342-.716.746l.028 4.852-8.32-8.242a1 1 0 1 0-1.415 1.414l8.285 8.207-4.72.013a.822.822 0 0 0-.84.746v.512c.01.405.344.74.748.748l7.172-.03c.008 0 .013.003.02.003l.366.008a.69.69 0 0 0 .513-.203c.132-.13.178-.31.175-.514l-.04-.366c0-.007.027-.012.027-.02zm8.212.898c.13.13.31.21.512.204l.365-.008c.007 0 .012-.002.02-.004l7.172.03a.772.772 0 0 0 .747-.747v-.512a.822.822 0 0 0-.84-.746l-4.72-.012 8.285-8.207a1 1 0 0 0-1.415-1.414l-8.32 8.24.027-4.85c.01-.405-.31-.757-.715-.748h-.513c-.405.01-.74.25-.747.655l-.02 7.22c0 .006.026.01.026.02l-.04.365c-.005.203.043.384.174.514zm-8.374 8.496a.692.692 0 0 0-.512-.204l-.365.01-.02.002-7.173-.032a.772.772 0 0 0-.748.747v.514c.06.475.435.754.84.744l4.726.012-8.29 8.238a1 1 0 1 0 1.414 1.414l8.32-8.268-.027 4.878c-.01.404.312.756.716.747h.513c.405-.01.74-.25.748-.655l.02-7.22c0-.006-.026-.01-.026-.018l.04-.397c.005-.203-.043-.384-.174-.514v.002zm11.626 1.796l4.725-.012c.404.01.78-.27.84-.745v-.513a.772.772 0 0 0-.748-.747h-7.172c-.008 0-.013-.003-.02-.003l-.428-.01c-.2-.005-.384.137-.512.268-.13.13-.178.31-.174.514l.04.365c0 .008-.026.012-.026.02l.02 7.218c.01.404.344.644.748.654h.544c.404.01.724-.342.715-.746l-.026-4.828 8.352 8.22a1 1 0 0 0 1.414-1.414l-8.29-8.238v-.002z"/></svg>