<?xml version="1.0" encoding="utf-8"?>
<!-- Generator: Adobe Illustrator 19.0.0, SVG Export Plug-In . SVG Version: 6.00 Build 0)  -->
<svg version="1.1" id="Layer_1" xmlns="http://www.w3.org/2000/svg" xmlns:xlink="http://www.w3.org/1999/xlink" x="0px" y="0px"
	 width="32px" height="32px" viewBox="-404 579.55 32 32" enable-background="new -404 579.55 32 32" xml:space="preserve">
<path fill="#FFFFFF" d="M-403.318,588.981l14.847,8.085c0.149,0.081,0.313,0.122,0.479,0.122c0.163,0,0.326-0.04,0.474-0.12
	l15.003-8.085c0.327-0.176,0.531-0.52,0.526-0.892c-0.005-0.372-0.216-0.711-0.547-0.88l-14.848-7.54
	c-0.283-0.143-0.617-0.144-0.902-0.002l-15.002,7.54c-0.332,0.167-0.545,0.505-0.551,0.877
	C-403.845,588.458-403.643,588.803-403.318,588.981z M-387.839,581.684l12.693,6.446l-12.843,6.921l-12.693-6.912L-387.839,581.684
	L-387.839,581.684z M-372.708,594.56l-2.968-1.507l-2.143,1.155l2.5,1.27l-12.842,6.921l-12.694-6.912l2.666-1.34l-2.136-1.164
	l-3.135,1.575c-0.332,0.167-0.545,0.505-0.551,0.877c-0.006,0.372,0.196,0.717,0.521,0.895l14.847,8.085
	c0.149,0.081,0.313,0.122,0.479,0.122c0.163,0,0.326-0.04,0.475-0.12l15.003-8.085c0.327-0.176,0.53-0.52,0.526-0.892
	s-0.215-0.711-0.547-0.88H-372.708z M-372.708,601.56l-2.811-1.382l-2.143,1.155l2.344,1.145l-12.843,6.921l-12.694-6.912
	l2.479-1.121l-2.136-1.164l-2.947,1.357c-0.332,0.167-0.545,0.505-0.551,0.877c-0.006,0.372,0.196,0.717,0.521,0.895l14.847,8.085
	c0.149,0.081,0.313,0.122,0.479,0.122c0.163,0,0.326-0.04,0.474-0.12l15.003-8.085c0.327-0.176,0.53-0.52,0.526-0.892
	c-0.005-0.373-0.215-0.712-0.547-0.88L-372.708,601.56z"/>
</svg>
