<?xml version="1.0" encoding="utf-8"?>
<!-- Generator: Adobe Illustrator 19.0.0, SVG Export Plug-In . SVG Version: 6.00 Build 0)  -->
<svg version="1.1" id="Layer_1" xmlns="http://www.w3.org/2000/svg" xmlns:xlink="http://www.w3.org/1999/xlink" x="0px" y="0px"
	 width="32px" height="32px" viewBox="-404 579.55 32 32" enable-background="new -404 579.55 32 32" xml:space="preserve">
<path fill="#FFFFFF" d="M-372.293,609.832l-8.845-8.899c1.894-2.262,3.034-5.18,3.034-8.366c0-7.189-5.797-13.018-12.986-13.018
	s-13.017,5.828-13.017,13.017c0,7.189,5.828,13.017,13.017,13.017c3.282,0,6.271-1.218,8.553-3.221l8.829,8.884
	c0.39,0.391,1.024,0.391,1.414,0c0.39-0.391,0.391-1.024,0-1.415L-372.293,609.832z M-391.107,603.55c-6.048,0-11-4.951-11-11
	s4.952-11,11-11s11,4.952,11,11C-380.107,598.598-385.058,603.55-391.107,603.55z M-386.107,591.55h-10c-0.552,0-1,0.448-1,1
	s0.448,1,1,1h10c0.552,0,1-0.448,1-1S-385.555,591.55-386.107,591.55z"/>
</svg>
