<?xml version="1.0" encoding="utf-8"?>
<!-- Generator: Adobe Illustrator 19.0.0, SVG Export Plug-In . SVG Version: 6.00 Build 0)  -->
<svg version="1.1" id="Layer_1" xmlns="http://www.w3.org/2000/svg" xmlns:xlink="http://www.w3.org/1999/xlink" x="0px" y="0px"
	 width="32px" height="32px" viewBox="-404 579.55 32 32" enable-background="new -404 579.55 32 32" xml:space="preserve">
<path fill="#FFFFFF" d="M-380,579.55h-11c-1.104,0-2,0.895-2,2h11v8h8v16h-7v2h7c1.105,0,2-0.895,2-2v-18L-380,579.55L-380,579.55z
	 M-380,587.55v-5.172l5.171,5.172H-380z M-402,583.55c-1.105,0-2,0.896-2,2v24c0,1.105,0.895,2,2,2h17c1.105,0,2-0.895,2-2v-18
	l-8-8.001L-402,583.55L-402,583.55z M-385,609.55h-17v-24h9v8h8V609.55z M-391,591.55v-5.172l5.171,5.172H-391z"/>
</svg>
