<?xml version="1.0" encoding="UTF-8"?>
<svg width="15px" height="20px" viewBox="0 0 15 20" version="1.1" xmlns="http://www.w3.org/2000/svg" xmlns:xlink="http://www.w3.org/1999/xlink">
    <!-- Generator: Sketch 48.1 (47250) - http://www.bohemiancoding.com/sketch -->
    <title>money</title>
    <desc>Created with Sketch.</desc>
    <defs></defs>
    <g id="Page-1" stroke="none" stroke-width="1" fill="none" fill-rule="evenodd">
        <g id="money" fill="#FFFFFF">
            <g id="icon-bag-nok" fill-rule="nonzero">
                <path d="M13.7,10.1 C13,8.9 12.1,7.9 11.3,7.1 C10.8,6.5 10.2,5.9 10,5.5 C10.3,5.3 10.6,5.1 10.8,4.9 C11,4.7 11,4.4 10.8,4.2 C10.7,4 10.4,4 10.2,4.1 C10.4,3.4 10.9,2.6 11.8,1.9 C12,1.8 12.1,1.5 11.9,1.3 C11.9,1.2 11.3,0 10,0 C9.2,0 8.9,0.5 8.8,0.8 C8.7,1 8.7,1 8.5,1 C8.1,1 7.7,0.8 7.2,0.5 C6.7,0.3 6.1,0 5.5,0 C4.3,0 3.3,1 3.1,1.1 C3,1.3 3,1.4 3,1.5 C3,1.6 3.1,1.8 3.2,1.9 C3.9,2.5 4.5,3.2 4.8,4 C4.8,4 4.8,4 4.8,4 C4.6,4 4.3,4 4.1,4.1 C4,4.3 4,4.7 4.1,4.9 C4.3,5.1 4.5,5.3 4.9,5.5 C4.7,5.9 4.1,6.5 3.6,7.1 C2.9,7.9 2,8.9 1.2,10.1 C0.4,11.6 0,13 0,14.5 C0,16.5 0.8,18 2.2,18.9 C3.5,19.7 5.1,20 7.5,20 C9.9,20 11.5,19.7 12.8,18.9 C14.3,18 15,16.5 15,14.5 C15,13 14.6,11.6 13.7,10.1 Z M4.3,1.5 C4.6,1.3 5.1,1 5.5,1 C5.9,1 6.3,1.2 6.8,1.5 C7.3,1.7 7.9,2 8.5,2 C9.3,2 9.6,1.5 9.7,1.2 C9.8,1 9.8,1 10,1 C10.4,1 10.6,1.2 10.8,1.4 C9.4,2.6 9.1,4.1 9,4.8 C8.7,4.9 8.2,5 7.5,5 C6.8,5 6.3,4.9 6,4.8 C5.9,4.2 5.6,2.7 4.3,1.5 Z M7.5,19 C2.9,19 1,17.7 1,14.5 C1,11.5 2.9,9.4 4.4,7.8 C5.1,7 5.6,6.4 5.9,5.8 C6.3,5.9 6.8,6 7.5,6 C8.2,6 8.7,5.9 9.1,5.8 C9.3,6.4 9.9,7 10.6,7.7 C12,9.3 14,11.4 14,14.4 C14,17.7 12.1,19 7.5,19 Z" id="Shape"></path>
            </g>
            <text id="KR" font-family="LucidaGrande-Bold, Lucida Grande" font-size="3.4000001" font-weight="bold">
                <tspan x="5" y="15">KR</tspan>
            </text>
        </g>
    </g>
</svg>