<?xml version="1.0" encoding="utf-8"?>
<!-- Generator: Adobe Illustrator 19.0.0, SVG Export Plug-In . SVG Version: 6.00 Build 0)  -->
<svg version="1.1" id="Layer_1" xmlns="http://www.w3.org/2000/svg" xmlns:xlink="http://www.w3.org/1999/xlink" x="0px" y="0px"
	 width="32px" height="32px" viewBox="-404 579.55 32 32" enable-background="new -404 579.55 32 32" xml:space="preserve">
<path fill="#FFFFFF" d="M-379,591.584h-14.28l-0.518-2.321c-0.883-3.293,0.65-6.576,4.159-7.516c3.473-0.93,6.534,1.061,7.432,4.41
	l0.425,1.687c0.143,0.534,0.691,0.85,1.225,0.707s0.85-0.691,0.707-1.224l-0.425-1.686c-1.187-4.433-5.325-7.045-9.881-5.824
	c-4.574,1.226-6.741,5.607-5.573,9.966l0.402,1.803H-397c-2.206,0-4,1.794-4,4v12c0,2.206,1.794,4,4,4h18c2.206,0,4-1.794,4-4v-12
	c0-2.206-1.794-4-4-4V591.584z M-377,607.585c0,1.102-0.898,2-2,2h-18c-1.103,0-2-0.898-2-2v-12c0-1.102,0.897-2,2-2h18
	c1.102,0,2,0.898,2,2V607.585z M-388,597.585c-1.104,0-2,0.895-2,2c0,0.738,0.405,1.376,1,1.723v3.277c0,0.552,0.448,1,1,1
	s1-0.448,1-1v-3.277c0.595-0.346,1-0.985,1-1.723C-386,598.48-386.895,597.585-388,597.585z"/>
</svg>
