<?xml version="1.0" encoding="utf-8"?>
<!-- Generator: Adobe Illustrator 19.0.0, SVG Export Plug-In . SVG Version: 6.00 Build 0)  -->
<svg version="1.1" id="Layer_1" xmlns="http://www.w3.org/2000/svg" xmlns:xlink="http://www.w3.org/1999/xlink" x="0px" y="0px"
	 width="32px" height="32px" viewBox="-404 579.55 32 32" enable-background="new -404 579.55 32 32" xml:space="preserve">
<path fill="#FFFFFF" d="M-383.509,579.55c-4.971,0-9,4.036-9,9.014c0,2.232,0.813,4.269,2.155,5.844
	c-0.276-0.017-0.557,0.076-0.768,0.287l-10.075,10.137c-0.39,0.39-0.39,1.024,0,1.414c0.007,0.008,0.016,0.012,0.024,0.02
	c0.002,0.003,0.004,0.006,0.006,0.008l4.904,4.997c0.39,0.39,1.023,0.39,1.414,0s0.39-1.024,0-1.414l-4.234-4.314l2.578-2.594
	l4.242,4.322c0.39,0.39,1.024,0.39,1.414,0c0.39-0.39,0.39-1.024,0-1.414l-4.245-4.326l5.387-5.421
	c0.209-0.209,0.302-0.485,0.288-0.758c1.582,1.384,3.646,2.228,5.912,2.228c4.971,0,9-4.036,9-9.015s-4.029-9.014-9-9.014
	L-383.509,579.55z M-383.509,595.55c-3.852,0-7-3.133-7-7s3.148-7,7-7s7,3.133,7,7S-379.657,595.55-383.509,595.55z"/>
</svg>
