<?xml version="1.0" encoding="utf-8"?>
<!-- Generator: Adobe Illustrator 19.0.0, SVG Export Plug-In . SVG Version: 6.00 Build 0)  -->
<svg version="1.1" id="Layer_1" xmlns="http://www.w3.org/2000/svg" xmlns:xlink="http://www.w3.org/1999/xlink" x="0px" y="0px"
	 width="32px" height="32px" viewBox="-404 579.55 32 32" enable-background="new -404 579.55 32 32" xml:space="preserve">
<path fill="#FFFFFF" d="M-379,591.55h-1v-3.816c0-4.589-3.32-8.184-8.037-8.184c-4.736,0-7.963,3.671-7.963,8.184v3.816h-1
	c-2.206,0-4,1.794-4,4v12c0,2.206,1.794,4,4,4h18c2.206,0,4-1.794,4-4v-12C-375,593.344-376.794,591.55-379,591.55z M-394,587.734
	c0-3.409,2.33-6.184,5.963-6.184c3.596,0,6.037,2.716,6.037,6.184v3.816h-12V587.734z M-377,607.55c0,1.102-0.898,2-2,2h-18
	c-1.103,0-2-0.898-2-2v-12c0-1.102,0.897-2,2-2h18c1.102,0,2,0.898,2,2V607.55z M-388,597.55c-1.104,0-2,0.895-2,2
	c0,0.738,0.405,1.376,1,1.723v3.277c0,0.552,0.448,1,1,1s1-0.448,1-1v-3.277c0.595-0.346,1-0.985,1-1.723
	C-386,598.445-386.895,597.55-388,597.55z"/>
</svg>
