<?xml version="1.0" encoding="utf-8"?>
<!-- Generator: Adobe Illustrator 21.1.0, SVG Export Plug-In . SVG Version: 6.00 Build 0)  -->
<svg version="1.1" id="Layer_1" xmlns="http://www.w3.org/2000/svg" xmlns:xlink="http://www.w3.org/1999/xlink" x="0px" y="0px"
	 viewBox="0 0 20 20" style="enable-background:new 0 0 20 20;" xml:space="preserve">
<style type="text/css">
	.st0{fill:#FFFFFF;}
</style>
<path class="st0" d="M19.5,18C19.5,18,19.5,18,19.5,18c-1.3,0-2.7-0.9-3.2-1.2c-0.6,0.1-1.2,0.2-1.8,0.2c-1.4,0-2.8-0.4-3.8-1.1
	C9.6,15.1,9,14.1,9,13s0.6-2.1,1.7-2.9c1-0.7,2.4-1.1,3.8-1.1s2.8,0.4,3.8,1.1c1.1,0.8,1.7,1.8,1.7,2.9c0,1-0.5,1.9-1.3,2.6
	c0.1,0.2,0.3,0.7,1.1,1.5c0.1,0.1,0.2,0.2,0.2,0.4C20,17.8,19.8,18,19.5,18L19.5,18z M16.4,15.8c0.1,0,0.2,0,0.3,0.1
	c0,0,0.7,0.5,1.5,0.8c-0.5-0.8-0.5-1.2-0.5-1.4c0-0.1,0.1-0.2,0.2-0.3c0.7-0.6,1.1-1.3,1.1-2c0-0.8-0.4-1.5-1.3-2.1
	c-0.9-0.6-2-0.9-3.2-0.9s-2.4,0.3-3.2,0.9C10.4,11.5,10,12.2,10,13s0.4,1.5,1.3,2.1c0.9,0.6,2,0.9,3.2,0.9c0.6,0,1.2-0.1,1.7-0.2
	C16.3,15.8,16.3,15.8,16.4,15.8L16.4,15.8z"/>
<path class="st0" d="M0.5,19c-0.2,0-0.4-0.1-0.5-0.4s0-0.4,0.2-0.6c1.7-1,2.4-2.5,2.6-3.2C1,13.5,0,11.5,0,9.5c0-1,0.3-2,0.8-3
	c0.5-0.9,1.2-1.7,2.1-2.4C4.6,2.8,7,2,9.5,2c2.3,0,4.5,0.6,6.2,1.8c1.7,1.2,2.9,2.8,3.2,4.6c0,0.3-0.1,0.5-0.4,0.6S18,8.9,17.9,8.6
	c-0.3-1.5-1.3-2.9-2.8-3.9C13.6,3.6,11.6,3,9.5,3C4.8,3,1,5.9,1,9.5c0,1.8,1,3.6,2.8,4.8C3.9,14.4,4,14.6,4,14.8
	c-0.1,0.4-0.5,1.6-1.6,2.8c1.3-0.5,2.7-1.2,3.7-2c0.1-0.1,0.3-0.1,0.4-0.1c0.9,0.3,1.9,0.4,3,0.4c0.3,0,0.5,0.2,0.5,0.5
	S9.8,17,9.5,17c-1,0-2-0.1-3-0.4c-0.4,0.3-1.2,0.8-2.2,1.3C2.8,18.6,1.5,19,0.5,19L0.5,19z"/>
</svg>
