<svg xmlns="http://www.w3.org/2000/svg" width="32" height="32" viewBox="-404 579.55 32 32"><path fill="#FFF" d="M-390.725 600.78c7.217 0 12.81-4.122 12.723-10.24 0-5.41-5.726-9.738-12.943-9.738s-13.068 4.327-13.068 9.74c0 3.37 1.653 6.964 5.106 8.73 0 .02-.006.035-.006.057 0 1.464-1.22 3.473-1.7 4.3h.002a.737.737 0 0 0 .68 1.03c.06.002.157-.01.192-.01.01 0 .013 0 .013.003 2.552-.417 6.32-3.29 6.88-3.97.572.085.96.1 1.44.1.203 0 .42-.004.677-.004h.003zm-2.94-2.153l-1.28 1.064c-.298.344-1.59 1.42-2.7 2.12.676-1.927.647-2.538.647-2.538l.094-1.224-1.09-.556c-2.77-1.417-4.016-4.367-4.016-6.95 0-4.302 4.965-7.74 11.068-7.74S-380 586.24-380 590.543c-.018 4.77-4.558 8.27-10.66 8.27 0 0-.93.036-1.887-.105l-1.117-.078-.002-.003zm21.676-.008c0-2.71-1.058-4.778-3.7-6.33-.064.72-.27 1.495-.494 2.174 1.708 1.18 2.195 2.393 2.195 4.155 0 2.156-1.004 3.72-3.34 4.916l-.995.494s.104 2.563.257 3.21c-1.95-1.43-2.622-2.624-2.622-2.624l-1.052.162c-.416.06-1.54.06-1.54.06-2.718 0-4.73-.647-6.45-1.99.467-.03-2.786-.028-2.86.035 1.987 2.426 5.234 3.956 9.31 3.956h.584c.415 0 .75-.01 1.245-.083.484.587 3.195 3.172 5.4 3.532 0-.003.003-.003.013-.003.03 0 .115.01.167.01a.638.638 0 0 0 .588-.89h.002c-.415-.715-1.067-2.805-1.067-4.07 0-.02-.006-.033-.006-.05 2.985-1.527 4.367-3.754 4.367-6.666z"/></svg>