<?xml version="1.0" encoding="utf-8"?>
<!-- Generator: Adobe Illustrator 21.1.0, SVG Export Plug-In . SVG Version: 6.00 Build 0)  -->
<svg version="1.1" id="Layer_1" xmlns="http://www.w3.org/2000/svg" xmlns:xlink="http://www.w3.org/1999/xlink" x="0px" y="0px"
	 viewBox="0 0 20 20" style="enable-background:new 0 0 20 20;" xml:space="preserve">
<style type="text/css">
	.st0{fill:#FFFFFF;}
</style>
<path class="st0" d="M8.5,20c-2.3,0-4.4-0.9-6-2.5S0,13.8,0,11.5s0.9-4.4,2.5-6S6.2,3,8.5,3C8.8,3,9,3.2,9,3.5V11h7.5
	c0.3,0,0.5,0.2,0.5,0.5c0,2.3-0.9,4.4-2.5,6S10.8,20,8.5,20z M8,4c-3.9,0.3-7,3.5-7,7.5C1,15.6,4.4,19,8.5,19c4,0,7.2-3.1,7.5-7H8.5
	C8.2,12,8,11.8,8,11.5V4z"/>
<path class="st0" d="M18.5,10h-8C10.2,10,10,9.8,10,9.5v-8C10,1.2,10.2,1,10.5,1c2.3,0,4.4,0.9,6,2.5s2.5,3.7,2.5,6
	C19,9.8,18.8,10,18.5,10z M11,9h7c-0.2-3.7-3.2-6.7-7-7C11,2,11,9,11,9z"/>
</svg>
