<?xml version="1.0" encoding="UTF-8"?>
<svg width="32px" height="33px" viewBox="0 0 32 33" version="1.1" xmlns="http://www.w3.org/2000/svg" xmlns:xlink="http://www.w3.org/1999/xlink">
    <!-- Generator: Sketch 48.1 (47250) - http://www.bohemiancoding.com/sketch -->
    <title>icon-chart-pie</title>
    <desc>Created with Sketch.</desc>
    <defs></defs>
    <g id="Page-1" stroke="none" stroke-width="1" fill="none" fill-rule="evenodd">
        <g id="icon-chart-pie" fill="#FFFFFF" fill-rule="nonzero">
            <path d="M17.988,3.47 C17.4357153,3.47 16.988,3.91771525 16.988,4.47 C16.988,5.02228475 17.4357153,5.47 17.988,5.47 C25.064,5.47 30,10.64 30,17.716 C30,24.793 24.243,30.55 17.166,30.55 C10.089,30.55 4.918,25.437 4.918,18.36 C4.918,17.8077153 4.47028475,17.36 3.918,17.36 C3.36571525,17.36 2.918,17.8077153 2.918,18.36 C2.918,26.54 8.988,32.55 17.166,32.55 C25.346,32.55 32,25.896 32,17.716 C32,9.538 26.166,3.469 17.988,3.469 L17.988,3.47 Z M15.008,14.558 L15.008,1.55 C15.008,0.99771525 14.5602847,0.55 14.008,0.55 C10.2872995,0.531805539 6.7137288,2.0018008 4.0827648,4.6327648 C1.4518008,7.2637288 -0.0181944612,10.8372995 5.68434189e-14,14.558 C5.68434189e-14,15.1102847 0.44771525,15.558 1,15.558 L14.008,15.558 C14.5602847,15.558 15.008,15.1102847 15.008,14.558 Z M13.008,13.558 L2.041,13.558 C2.525,7.668 7.119,3.074 13.009,2.591 L13.009,13.559 L13.008,13.558 Z" id="Shape"></path>
        </g>
    </g>
</svg>