<?xml version="1.0" encoding="utf-8"?>
<!-- Generator: Adobe Illustrator 19.0.0, SVG Export Plug-In . SVG Version: 6.00 Build 0)  -->
<svg version="1.1" id="Layer_1" xmlns="http://www.w3.org/2000/svg" xmlns:xlink="http://www.w3.org/1999/xlink" x="0px" y="0px"
	 width="32px" height="32px" viewBox="-404 579.55 32 32" enable-background="new -404 579.55 32 32" xml:space="preserve">
<path fill="#FFFFFF" d="M-384.983,611.542c-9.088,0-9.159-0.377-10.284-1.224c-0.597-0.449-1.723-0.76-5.838-1.028
	c-0.298-0.02-0.583-0.134-0.773-0.365c-0.087-0.107-2.143-3.105-2.143-7.907c0-4.733,1.472-6.889,1.534-6.989
	c0.183-0.293,0.503-0.47,0.848-0.47c3.379,0,8.062-4.313,11.21-11.841c0.544-1.302,0.657-2.159,2.657-2.159
	c1.137,0,2.413,0.815,3.042,1.859c1.291,2.135,0.636,6.721,0.029,9.171c2.063-0.017,5.796-0.044,7.573-0.044
	c2.471,0,4.107,1.473,4.156,3.627c0.017,0.711-0.077,1.619-0.282,2.089c0.544,0.543,1.245,1.361,1.276,2.414
	c0.038,1.36-0.852,2.395-1.421,2.989c0.131,0.395,0.392,0.92,0.366,1.547c-0.063,1.542-1.253,2.535-1.994,3.054
	c0.061,0.422,0.11,1.218-0.026,1.834c-0.535,2.456-4.137,3.443-9.928,3.443H-384.983z M-400.575,607.262
	c3.584,0.297,5.5,0.698,6.511,1.459c0.782,0.589,0.662,0.823,9.081,0.823c2.568,0,7.59-0.107,7.976-1.87
	c0.153-0.705-0.59-1.398-0.593-1.404c-0.203-0.501,0.023-1.089,0.518-1.305c0.008-0.004,2.005-0.719,2.05-1.835
	c0.03-0.713-0.46-1.142-0.471-1.16c-0.291-0.452-0.185-1.072,0.257-1.38c0.005-0.004,1.299-0.788,1.267-1.857
	c-0.024-0.849-1.143-1.447-1.177-1.466c-0.25-0.143-0.432-0.39-0.489-0.674c-0.056-0.282,0.007-0.579,0.183-0.808
	c0,0,0.509-0.808,0.49-1.566c-0.037-1.623-1.782-1.674-2.156-1.674c-2.523,0-9.001,0.025-9.001,0.025
	c-0.349,0.002-0.652-0.164-0.84-0.443c-0.188-0.279-0.201-0.627-0.091-0.944c0.977-2.813,1.523-7.228,0.616-8.736
	c-0.267-0.445-0.328-0.889-1.328-0.889c-0.139,0-0.469,0.11-0.813,0.929c-3.341,7.995-8.332,12.62-12.421,13.037
	c-0.353,0.804-1.016,2.47-1.016,5.493C-402.022,604.102-401.045,606.49-400.575,607.262z"/>
</svg>
