<?xml version="1.0" encoding="utf-8"?>
<!-- Generator: Adobe Illustrator 19.0.0, SVG Export Plug-In . SVG Version: 6.00 Build 0)  -->
<svg version="1.1" id="Layer_1" xmlns="http://www.w3.org/2000/svg" xmlns:xlink="http://www.w3.org/1999/xlink" x="0px" y="0px"
	 width="32px" height="32px" viewBox="-404 579.55 32 32" enable-background="new -404 579.55 32 32" xml:space="preserve">
<path fill="#FFFFFF" d="M-387.886,579.539c-6.559,0-12.114,5.587-12.114,12.204c0,6.93,6.439,14.017,10.77,18.998
	c0.017,0.02,0.716,0.797,1.579,0.797h0.076c0.863,0,1.558-0.777,1.575-0.797c4.064-4.672,10-12.377,10-18.998
	C-376,585.125-380.333,579.539-387.886,579.539z M-387.485,609.399c-0.035,0.035-0.086,0.074-0.131,0.107
	c-0.046-0.032-0.096-0.072-0.133-0.107l-0.523-0.602c-4.106-4.71-9.729-11.161-9.729-17.055c0-5.532,4.632-10.205,10.114-10.205
	c6.829,0,9.886,5.125,9.886,10.205c0,4.474-3.192,10.416-9.485,17.657H-387.485z M-387.965,585.594c-3.313,0-6,2.686-6,6
	c0,3.314,2.687,6,6,6c3.313,0,6-2.687,6-6S-384.651,585.594-387.965,585.594z M-387.965,595.594c-2.206,0-4.046-1.838-4.046-4.044
	s1.794-4,4-4c2.207,0,4,1.794,4,4C-384.01,593.756-385.758,595.594-387.965,595.594z"/>
</svg>
