<?xml version="1.0" encoding="utf-8"?>
<!-- Generator: Adobe Illustrator 19.0.0, SVG Export Plug-In . SVG Version: 6.00 Build 0)  -->
<svg version="1.1" id="Layer_1" xmlns="http://www.w3.org/2000/svg" xmlns:xlink="http://www.w3.org/1999/xlink" x="0px" y="0px"
	 width="32px" height="32px" viewBox="-404 579.55 32 32" enable-background="new -404 579.55 32 32" xml:space="preserve">
<path fill="#FFFFFF" d="M-374.602,585.478c-0.867-0.624-3.283-1.453-13.406-1.453c-10.848,0-12.458,0.952-12.975,1.264
	c-2.749,1.652-3.01,8.963-3.034,10.445c0.033,1.958,0.349,8.473,3.032,10.084c0.515,0.311,2.116,1.257,12.976,1.257
	c10.13,0,12.543-0.825,13.406-1.447c2.343-1.686,2.612-7.49,2.619-9.92c-0.006-1.954-0.211-8.496-2.619-10.23H-374.602z
	 M-375.77,604.006c-0.349,0.251-2.349,1.07-12.239,1.07c-9.56,0-11.566-0.742-11.945-0.971c-0.965-0.579-1.984-3.652-2.063-8.376
	c0.079-4.713,1.111-8.153,2.066-8.726c0.38-0.229,2.393-0.978,11.944-0.978c9.881,0,11.887,0.824,12.239,1.076
	c0.857,0.617,1.773,3.865,1.787,8.614c-0.014,4.823-0.936,7.678-1.787,8.291H-375.77z M-381.487,594.763l-8.998-5.521
	c-0.309-0.187-0.694-0.191-1.008-0.014c-0.314,0.177-0.509,0.511-0.509,0.871v11.045c0,0.36,0.194,0.694,0.509,0.871
	c0.152,0.086,0.322,0.129,0.491,0.129c0.178,0,0.358-0.048,0.517-0.143l8.998-5.524c0.3-0.181,0.483-0.506,0.483-0.857
	S-381.187,594.944-381.487,594.763z M-390.002,599.372v-7.503l6.063,3.751L-390.002,599.372z"/>
</svg>
