<svg xmlns="http://www.w3.org/2000/svg" width="32" height="32" viewBox="-404 579.55 32 32"><path fill="#FFF" d="M-374 582.547h-8.007v-1.993a1 1 0 0 0-2 0v1.992h-8v-1.992a1 1 0 0 0-2 0v1.992H-402a2 2 0 0 0-2 2v25a2 2 0 0 0 2 2h28a2 2 0 0 0 2-2v-25a2 2 0 0 0-2-2zm0 27h-28v-25h7.993v1.007a1 1 0 0 0 2 0v-1.007h8v1.008a1 1 0 0 0 2 0v-1.008H-374v25zm-7-14h2a1 1 0 0 0 1-1v-2a1 1 0 0 0-1-1h-2a1 1 0 0 0-1 1v2a1 1 0 0 0 1 1zm0 8h2a1 1 0 0 0 1-1v-2a1 1 0 0 0-1-1h-2a1 1 0 0 0-1 1v2a1 1 0 0 0 1 1zm-6-4h-2a1 1 0 0 0-1 1v2a1 1 0 0 0 1 1h2a1 1 0 0 0 1-1v-2a1 1 0 0 0-1-1zm0-8h-2a1 1 0 0 0-1 1v2a1 1 0 0 0 1 1h2a1 1 0 0 0 1-1v-2a1 1 0 0 0-1-1zm-8 0h-2a1 1 0 0 0-1 1v2a1 1 0 0 0 1 1h2a1 1 0 0 0 1-1v-2a1 1 0 0 0-1-1zm0 8h-2a1 1 0 0 0-1 1v2a1 1 0 0 0 1 1h2a1 1 0 0 0 1-1v-2a1 1 0 0 0-1-1z"/></svg>