<svg xmlns="http://www.w3.org/2000/svg" width="32" height="32" viewBox="-404 579.55 32 32"><path d="M-384.51 579.543c-6.903 0-12.5 5.596-12.5 12.5 0 3.08 1.116 5.896 2.96 8.074l-3.978 4.003-4.227-4.267a1 1 0 0 0-1.414 1.414l4.232 4.27-4.26 4.288a1 1 0 1 0 1.413 1.414l4.255-4.282 4.265 4.305a1 1 0 0 0 1.414-1.414l-4.27-4.31 3.982-4.006a12.447 12.447 0 0 0 8.13 3.01c6.903 0 12.5-5.597 12.5-12.5 0-6.905-5.597-12.5-12.5-12.5zm0 23.017c-5.807 0-10.516-4.71-10.516-10.517 0-5.808 4.71-10.517 10.517-10.517s10.518 4.708 10.518 10.517c0 5.808-4.708 10.517-10.517 10.517z"/></svg>