<svg xmlns="http://www.w3.org/2000/svg" width="32" height="32" viewBox="-404 579.55 32 32"><path d="M-374.227 587.516H-378v-7.952h-20v7.952h-3.773a2.23 2.23 0 0 0-2.228 2.23v13.558c0 1.23 1 2.23 2.227 2.23H-398v6h20v-6h3.773c1.23 0 2.23-1 2.23-2.23v-13.56c0-1.23-1-2.23-2.23-2.228zM-396 581.534h16v5.982h-16v-5.982zm16 28h-16v-11.01h16v11.01zm6.002-6.23a.23.23 0 0 1-.23.23H-378v-7.01h-20v7.01h-3.773a.228.228 0 0 1-.228-.23v-13.558a.23.23 0 0 1 .227-.23h27.546a.23.23 0 0 1 .23.23v13.56zM-378 591.533h-1a1 1 0 0 0 0 2h1a1 1 0 0 0 0-2z"/></svg>