<svg xmlns="http://www.w3.org/2000/svg" width="32" height="32" viewBox="-404 579.55 32 32"><path d="M-385.82 582.065c.12 0 .188.005.188.005h2.61l-.013 3h-2.594c-1.426 0-1.394 1.22-1.394 1.22v4.755h5.05l-.704 2.996h-4.363v14.994h-2.998l-.002-14.993h-3.982l-.008-2.995h3.99v-4.662c.002-4.065 3.378-4.318 4.218-4.318h.002zm2.8.006h.004-.005zm-2.8-2.005c-.72 0-2.124.12-3.455.92-1.26.76-2.76 2.312-2.76 5.397v2.662h-1.992a2 2 0 0 0-2 2.007l.008 2.996a2 2 0 0 0 2 1.993h1.983l.002 12.993a2 2 0 0 0 2 2h2.997a2 2 0 0 0 2-2V596.04h2.363a2 2 0 0 0 1.92-1.437l.704-2.996a1.998 1.998 0 0 0-.32-1.76 1.998 1.998 0 0 0-1.6-.803h-3.052v-1.973h1.988a2 2 0 0 0 2-1.99l.014-2.9a1.998 1.998 0 0 0-1.995-2.11h-2.56a4.937 4.937 0 0 0-.245-.005z"/></svg>