<svg xmlns="http://www.w3.org/2000/svg" width="32" height="32" viewBox="-404 579.55 32 32"><path d="M-382.75 582.53c-5 0-6.333-3-12.666-3-4.084 0-6.584 3.083-6.584 3.083v27.958a1 1 0 0 0 2 0v-12.745c1.055-.68 2.51-1.296 4.334-1.296 6.333 0 8.166 3 13.166 3s8.5-3 8.5-3v-17s-3.75 3-8.75 3zm6.75 12.98c-1.13.737-3.524 2.02-6.5 2.02-1.966 0-3.308-.54-5.007-1.224-2.07-.832-4.42-1.777-8.16-1.777-1.708 0-3.158.43-4.333 1.004v-12.108c.753-.685 2.394-1.897 4.584-1.897 2.94 0 4.597.713 6.35 1.468 1.746.752 3.552 1.53 6.316 1.53 2.664 0 5.004-.736 6.75-1.528v12.51z"/></svg>