<svg xmlns="http://www.w3.org/2000/svg" width="32" height="32" viewBox="-404 579.55 32 32"><path d="M-372.022 580.258c.005-.203-.043-.384-.174-.513a.688.688 0 0 0-.512-.204l-.366.01c-.007 0-.012.003-.02.004l-9.172-.032a.772.772 0 0 0-.747.748v.513c.06.476.435.755.84.746l6.725.013-8.005 7.956a12.448 12.448 0 0 0-8.024-2.92c-6.904 0-12.5 5.597-12.5 12.5s5.596 12.5 12.5 12.5c6.903 0 12.5-5.595 12.5-12.5 0-3.127-1.152-5.985-3.052-8.177l8.03-7.98-.03 6.85c-.01.403.31.754.715.745h.513c.405-.01.74-.25.747-.655l.02-9.22c0-.007-.026-.01-.026-.02l.04-.365h-.002zm-8.94 18.82c0 5.81-4.71 10.518-10.517 10.518-5.807 0-10.516-4.71-10.516-10.517 0-5.81 4.708-10.518 10.517-10.518 5.81 0 10.518 4.708 10.518 10.517z"/></svg>