<svg xmlns="http://www.w3.org/2000/svg" width="32" height="32" viewBox="-404 579.55 32 32"><path d="M-388.008 581.55c3.396 0 6.998 2.86 6.998 4.995v4.997c0 1.924-.8 5.604-2.945 7.293a2 2 0 0 0 .402 3.388l8.703 4.127c.068.03.834.16.834 1.23v1.952l-27.983.002v-2.03c0-.794.597-1.043.836-1.153l8.782-4.144a1.997 1.997 0 0 0 .416-3.376c-2.078-1.668-3.046-5.335-3.046-7.287v-4.997c0-2.09 3.638-4.995 7.004-4.995zm0-2c-4.416 0-9.004 3.686-9.004 6.995v4.997c0 2.184.997 6.6 3.793 8.847l-8.782 4.144s-1.998.89-1.998 2v3c0 1.105.895 2 1.998 2h27.986c1.105 0 2-.896 2-2v-3c0-1.176-2-2-2-2l-8.703-4.127c2.77-2.18 3.71-6.464 3.71-8.864v-4.997c0-3.31-4.583-6.995-9-6.995h.002z"/></svg>