<svg xmlns="http://www.w3.org/2000/svg" width="32" height="32" viewBox="-404 579.55 32 32"><path d="M-384.983 611.542c-9.088 0-9.16-.377-10.284-1.224-.597-.45-1.723-.76-5.838-1.028-.298-.02-.583-.134-.773-.365-.087-.107-2.143-3.105-2.143-7.907 0-4.733 1.47-6.89 1.533-6.99a1 1 0 0 1 .848-.47c3.38 0 8.063-4.312 11.21-11.84.545-1.302.658-2.16 2.658-2.16 1.137 0 2.413.816 3.042 1.86 1.29 2.135.636 6.72.03 9.17 2.062-.016 5.795-.043 7.572-.043 2.47 0 4.107 1.473 4.156 3.627.017.71-.077 1.62-.282 2.09.544.542 1.245 1.36 1.276 2.413.038 1.36-.852 2.395-1.42 2.99.13.394.39.92.365 1.546-.063 1.543-1.253 2.536-1.994 3.055.06.422.11 1.218-.026 1.834-.535 2.455-4.137 3.442-9.928 3.442h-.003zm-15.592-4.28c3.584.297 5.5.698 6.51 1.46.783.588.663.822 9.082.822 2.568 0 7.59-.107 7.976-1.87.153-.705-.59-1.398-.593-1.404-.203-.5.023-1.09.518-1.305.008-.004 2.005-.72 2.05-1.835.03-.713-.46-1.142-.47-1.16-.292-.452-.186-1.072.256-1.38.005-.004 1.3-.788 1.267-1.857-.023-.85-1.142-1.447-1.176-1.466a1.006 1.006 0 0 1-.306-1.482s.51-.808.49-1.566c-.037-1.624-1.782-1.675-2.156-1.675-2.523 0-9 .025-9 .025a.99.99 0 0 1-.84-.443c-.19-.28-.202-.627-.092-.944.977-2.813 1.523-7.228.616-8.736-.267-.445-.328-.89-1.328-.89-.14 0-.47.11-.813.93-3.34 7.995-8.332 12.62-12.42 13.037-.354.804-1.017 2.47-1.017 5.493 0 3.085.977 5.473 1.447 6.245z"/></svg>