<svg xmlns="http://www.w3.org/2000/svg" width="32" height="32" viewBox="-404 579.55 32 32"><path d="M-380.155 587.674c-1.395-3.7-4.393-6.045-8.92-6.045-5.763 0-9.794 4.278-10.14 9.86-2.78.89-4.785 3.723-4.785 6.932 0 3.93 3.09 7.25 6.745 7.25h2.89a1 1 0 0 0 0-2h-2.89c-2.572 0-4.776-2.405-4.776-5.25 0-2.514 1.762-4.783 3.973-5.163l.907-.157-.08-.916-.008-.01c0-4.872 3.205-8.546 8.16-8.546 3.973 0 6.205 1.958 7.236 5.296l.214.688.72.015c3.716.077 6.973 3.09 6.973 6.835 0 3.408-2.26 7.206-5.678 7.206h-2.285a1 1 0 0 0 0 2l2.277-.002c5-.132 7.603-4.91 7.603-9.203 0-4.616-3.617-8.305-8.14-8.79h.002zm-7.095 7.968c-.006-.006-.008-.01-.01-.016l-.254-.264a.693.693 0 0 0-.508-.218.696.696 0 0 0-.51.218l-.252.264c-.005.005-.006.01-.01.016l-3.61 3.992a.77.77 0 0 0 0 1.058l.25.17c.28.293.733.2 1.012-.094l2.128-2.373v10.076a1 1 0 0 0 2 0v-10.065l2.2 2.426c.278.293.73.388 1.01.096l.252-.17a.773.773 0 0 0 0-1.06l-3.7-4.054h.002z"/></svg>