<svg xmlns="http://www.w3.org/2000/svg" width="32" height="32" viewBox="-404 579.55 32 32"><path d="M-398.998 591.67v-11.12a1 1 0 0 0-2 0v11.12a4.016 4.016 0 0 0-3.013 3.88 4.018 4.018 0 0 0 3.012 3.88v11.12a1 1 0 0 0 2 0v-11.12a4.014 4.014 0 0 0 3.01-3.88 4.013 4.013 0 0 0-3.01-3.88zm-.99 5.88h-.01a2.003 2.003 0 0 1-2.003-2c0-1.1.892-1.995 1.99-2h.022c1.1.006 1.99.9 1.99 2s-.89 1.994-1.99 2zm12.99.12v-17.12a1 1 0 0 0-2 0v17.12a4.015 4.015 0 0 0-3.012 3.88 4.018 4.018 0 0 0 3.012 3.88v5.12a1 1 0 0 0 2 0v-5.12a4.015 4.015 0 0 0 3.01-3.88 4.016 4.016 0 0 0-3.01-3.88zm-.99 5.88h-.01c-.004 0-.01 0-.014.002-1.098-.006-1.99-.9-1.99-2.002s.894-1.996 1.994-2h.02c1.1.005 1.992.9 1.992 2s-.892 1.994-1.99 2zm12.99-17.88v-5.12a1 1 0 0 0-2 0v5.12c-1.73.446-3.012 2.013-3.012 3.88s1.284 3.435 3.012 3.88v17.12a1 1 0 0 0 2 0v-17.12a4.015 4.015 0 0 0 3.01-3.88 4.017 4.017 0 0 0-3.01-3.88zm-.99 5.88h-.023c-1.1-.005-1.992-.9-1.992-2s.892-1.995 1.99-2h.024a2.004 2.004 0 0 1 1.99 2c0 1.1-.89 1.994-1.99 2z"/></svg>