<svg xmlns="http://www.w3.org/2000/svg" width="32" height="32" viewBox="-404 579.55 32 32"><path d="M-372.228 595.593l-15.01-15.724a.998.998 0 0 0-1.444 0l-15.09 15.723a1 1 0 1 0 1.444 1.385l1.344-1.4v14.962a1 1 0 0 0 1 1h6.986a1 1 0 0 0 1-.997l.03-9.99h7.97v9.987a1 1 0 0 0 1 1h6.983a1 1 0 0 0 1-1v-14.968l1.343 1.407a1 1 0 0 0 1.413.028 1 1 0 0 0 .03-1.413l.002-.002zm-4.787-1.83v15.776h-4.983v-9.987a1 1 0 0 0-1-1h-9.965a1 1 0 0 0-1 .997l-.03 9.99h-4.99V593.76a.998.998 0 0 0-.032-.24l11.055-11.52 10.982 11.508c-.02.08-.036.165-.036.252z"/></svg>