<svg xmlns="http://www.w3.org/2000/svg" width="32" height="32" viewBox="-404 579.55 32 32"><path d="M-388.456 607.63c-.002-.006-.008-.01-.012-.015l-2.873-4.49a.75.75 0 0 0-.993-.265l-.256.157c-.343.188-.336.673-.132 1.008l1.84 2.857c-.156-.035-.315-.063-.47-.103a11.805 11.805 0 0 1-7.485-5.99 11.714 11.714 0 0 1-.766-8.99c.954-3.002 3.118-5.453 5.915-6.9a.97.97 0 0 0-.892-1.725c-3.258 1.686-5.763 4.54-6.874 8.036a13.645 13.645 0 0 0 .892 10.474 13.76 13.76 0 0 0 8.72 6.973c.043.01.087.017.13.03l-2.54 1.287a.672.672 0 0 0-.255.948l.098.256c.206.335.558.454.9.266l4.652-2.38c.006-.005.012-.004.018-.008l.312-.17a.68.68 0 0 0 .256-.953l-.186-.303h.002zm13.015-18.055c-1.784-3.447-4.863-5.99-8.618-6.973-.267-.07-.54-.124-.814-.18l2.494-1.264c.344-.19.55-.614.345-.95l-.1-.254a.75.75 0 0 0-.99-.267l-4.65 2.38c-.007.004-.013.003-.02.007l-.31.17a.673.673 0 0 0-.333.423.672.672 0 0 0 .077.53l.186.304c.003.007.008.01.012.016l2.873 4.49a.75.75 0 0 0 .992.265l.226-.156c.344-.188.366-.673.163-1.008l-1.85-2.87c.408.063.812.138 1.208.242 3.226.845 5.856 3.027 7.387 5.986a11.707 11.707 0 0 1 .765 8.99 11.716 11.716 0 0 1-5.818 6.902.97.97 0 0 0 .894 1.723 13.643 13.643 0 0 0 6.776-8.036 13.64 13.64 0 0 0-.893-10.473v.005z"/></svg>