<svg xmlns="http://www.w3.org/2000/svg" width="32" height="32" viewBox="-404 579.55 32 32"><path d="M-380.687 605.652l-6.296-3.488c2.34-1.84 2.976-5.46 2.976-7.488v-4.223c0-2.796-3.715-5.91-7.447-5.91-3.73 0-7.544 3.114-7.544 5.91v4.223c0 1.845.78 5.576 3.144 7.47l-6.458 3.504s-1.688.752-1.688 1.69v2.533c0 .933.757 1.69 1.688 1.69h21.625c.93 0 1.69-.757 1.69-1.69v-2.533c0-.994-1.69-1.69-1.69-1.688zm-.312 3.913h-21v-1.788a3.16 3.16 0 0 1 .502-.298c.047-.022.094-.045.14-.07l6.458-3.504a2 2 0 0 0 .298-3.318c-1.677-1.345-2.396-4.322-2.396-5.91v-4.224c0-1.437 2.708-3.91 5.544-3.91 2.89 0 5.447 2.44 5.447 3.91v4.223c0 1.566-.486 4.557-2.212 5.915a2.003 2.003 0 0 0 .278 3.328l6.297 3.488a2.4 2.4 0 0 0 .184.09c.147.062.328.166.46.258v1.81zm7.31-8.892l-6.39-3.488c2.34-1.84 3.07-5.46 3.07-7.488v-4.223c0-2.796-3.807-5.94-7.54-5.94-2.424 0-4.903 1.318-6.347 3.006.823.05 1.73.052 2.514.302a6.216 6.216 0 0 1 3.833-1.308c2.89 0 5.54 2.47 5.54 3.942v4.223c0 1.565-.58 4.556-2.305 5.914a2 2 0 0 0 .278 3.328l6.39 3.488a2.4 2.4 0 0 0 .183.09c.148.062.33.166.462.258v1.78h-4.037c.61.46.795 1.117 1.03 2h3.32a1.69 1.69 0 0 0 1.688-1.69v-2.503c0-.995-1.69-1.69-1.69-1.69l.003-.002z"/></svg>