<svg id="Layer_1" xmlns="http://www.w3.org/2000/svg" width="30" height="30" viewBox="-405 580.5 30 30"><style>.st0{opacity:.1}</style><path class="st0" d="M-397.9 610.5v-6.8c0-.5.3-.6.5-.7l5-2.4c.4-.2.6-.5.7-.9 0-.4-.1-.8-.4-1-1.2-.9-1.7-3-1.7-4.1v-2.8c0-1.2 2.1-2.8 4-2.8s4 1.6 4 2.8v2.8c0 1.1-.5 3.2-1.7 4.1-.3.2-.5.6-.4 1 0 .4.3.7.7.9l4.9 2.3s.5.1.5.7v6.8h1.1V603c0-.7-1.1-1.1-1.1-1.1l-4.9-2.3c1.6-1.2 2.1-3.7 2.1-5v-2.8c0-1.9-2.6-4-5.1-4-2.5 0-5.1 2.1-5.1 4v2.8c0 1.2.6 3.7 2.2 5l-5 2.4s-1.1.5-1.1 1.1v7.4h.8z"/></svg>