<svg xmlns="http://www.w3.org/2000/svg" width="1320.7" height="44.2" viewBox="-1113 978.8 1320.7 44.2"><path fill="#E95441" d="M-604.3 1006.6l-7.1-7.1-7.1 7.1zM-673.9 999.5l7.1 7.1 7-7.1zM-725.8 1010.1l7.1-7.1-7.1-7zM-770.2 1000.6h-10.1l.1 10zM-824.7 1023l-8.5-8.5-8.5 8.5zM-885.5 996l-7.1 7.1 7.1 7zM-942 1010.6v-10.1h-10zM-997.4 1010.6v-10.1h-10zM-1090.5 998.8l8.6 8.5 8.5-8.5zM-1105.9 996.4l-7.1 7.1 7.1 7.1zM-1061.1 984.3l7.1 7.1 7.1-7.1zM-1020.4 1022.7l-7-7.1-7.1 7.1zM-967.7 995l-8.6 8.5 8.5 8.5zM-924.1 1006h10.1v-10zM-868.2 999.9l7.1 7.1 7.1-7zM-808.8 1010.6l7.1-7.1-7.1-7.1zM-753.3 995v12h12zM-690.8 996.4l-7.1 7.1 7.1 7.1zM-647.9 990.8h12v-12zM-581 1011v-10h-10z"/><g><path fill="#8CBD22" d="M-538.7 995.2l7.1 7.1 7.1-7.1z"/><path fill="#E95441" d="M-469.1 1002.3l-7.1-7.1-7 7.1z"/><path fill="#8CBD22" d="M-417.2 991.7l-7.1 7.1 7.1 7z"/><path fill="#E95441" d="M-372.8 1001.2h10.1l-.1-10zM-318.3 978.8l8.5 8.5 8.5-8.5zM-257.5 1005.8l7.1-7.1-7.1-7z"/><path fill="#2EB0D1" d="M-201 991.2v10.1h10z"/><path fill="#E95441" d="M-145.6 991.2v10.1h10z"/><path fill="#8CBD22" d="M-52.5 1003l-8.6-8.5-8.5 8.5z"/><path fill="#2EB0D1" d="M-37.1 1005.4l7.1-7.1-7.1-7.1z"/><path fill="#E95441" d="M-81.9 1017.5l-7.1-7.1-7.1 7.1zM-122.6 979.1l7 7.1 7.1-7.1z"/><path fill="#8CBD22" d="M-175.3 1006.8l8.6-8.5-8.5-8.5zM-218.9 995.8H-229v10zM-274.8 1001.9l-7.1-7.1-7.1 7zM-334.2 991.2l-7.1 7.1 7.1 7.1z"/><path fill="#2EB0D1" d="M-389.7 1006.8v-12h-12zM-452.2 1005.4l7.1-7.1-7.1-7.1z"/><path fill="#E95441" d="M-495.1 1011h-12v12z"/><path fill="#2EB0D1" d="M-562 990.8v10h10z"/></g></svg>