<svg xmlns="http://www.w3.org/2000/svg" width="925.1" height="44.2" viewBox="-132 398.7 925.1 44.2"><path fill="#8CBD22" d="M376.7 426.5l-7.1-7.1-7.1 7.1z"/><path fill="#E95441" d="M307.1 419.4l7.1 7.1 7-7.1z"/><path fill="#8CBD22" d="M255.2 430l7.1-7.1-7.1-7z"/><path fill="#E95441" d="M210.8 420.5h-10.1l.1 10zM156.3 442.9l-8.5-8.5-8.5 8.5zM95.5 415.9l-7.1 7.1 7.1 7z"/><path fill="#2EB0D1" d="M39 430.5v-10.1H29z"/><path fill="#E95441" d="M-16.4 430.5v-10.1h-10z"/><path fill="#8CBD22" d="M-109.5 418.7l8.6 8.5 8.5-8.5z"/><path fill="#2EB0D1" d="M-124.9 416.3l-7.1 7.1 7.1 7.1z"/><path fill="#E95441" d="M-80.1 404.2l7.1 7.1 7.1-7.1zM-39.4 442.6l-7-7.1-7.1 7.1z"/><path fill="#8CBD22" d="M13.3 414.9l-8.6 8.5 8.5 8.5zM56.9 425.9H67v-10zM112.8 419.8l7.1 7.1 7.1-7zM172.2 430.5l7.1-7.1-7.1-7.1z"/><path fill="#2EB0D1" d="M227.7 414.9v12h12zM290.2 416.3l-7.1 7.1 7.1 7.1z"/><path fill="#E95441" d="M333.1 410.7h12v-12z"/><path fill="#2EB0D1" d="M400 430.9v-10h-10z"/></svg>