<svg xmlns="http://www.w3.org/2000/svg" viewBox="0 0 30 30"><path fill="#FFD766" d="M6.5 19l5.3-5.4-5.3-5.3z"/><path opacity=".9" fill="#49B249" d="M1.1 13.6L6.5 19l5.3-5.4z"/><path fill="#FF523B" d="M.1 12.6h5.3V7.3z"/><g fill="#0F0F0F"><path d="M15.3 10.9h.9v5.3h-.9v-5.3zM17.5 10.9h1.2l.8 2.2c.3.7.5 1.5.6 1.9.1-.4.4-1.2.6-1.9l.9-2.3h1.2v5.3h-.9V14v-2.1c-.1.3-.2.9-.5 1.7l-1 2.7h-.6l-1-2.7c-.3-.8-.5-1.4-.5-1.7V16.2h-.8v-5.3zM24 10.9h1.5c1.8 0 2.6 1 2.6 2.7 0 1.7-.8 2.7-2.6 2.7H24v-5.4zm1.5 4.8c1.1 0 1.6-.7 1.6-2.1s-.5-2.1-1.6-2.1h-.6v4.3l.6-.1zM29.4 10.8c.3 0 .5.2.5.5s-.2.5-.5.5-.5-.2-.5-.5.2-.5.5-.5zm-.4 1.6c.2 0 .6 0 .9-.1v3.1c0 .4 0 .8.1.9h-1v-3.9z"/></g></svg>