<svg xmlns="http://www.w3.org/2000/svg" xmlns:xlink="http://www.w3.org/1999/xlink" width="2000" height="2000" viewBox="0 0 2000 2000"><path fill="#2EB0D1" d="M51.397 21.18L79.68 49.466 51.398 77.75 23.113 49.464z"/><path fill="#FF523B" d="M151.28 44.413l5.02 5.02-5.02 5.02-5.02-5.02z"/><defs><path id="a" d="M45 37.3h12.9v24.4H45z"/></defs><clipPath id="b"><use xlink:href="#a" overflow="visible"/></clipPath><path clip-path="url(#b)" fill="#FFF" d="M50.6 47.2c-.9.3-1.5 1-1.5 2.1 0 1.5 1.1 1.9 3.6 2.6.8-.3 1.6-1 1.6-2.1 0-1.5-1.6-2-3.7-2.6m-2.4 9.3c.3 1.8 1.8 2.5 3.4 2.5 1.5 0 2.6-.6 2.6-1.8 0-1-.6-1.7-2.3-2.2l-2.5-.7c-2.6-.8-3.8-2.1-3.8-4.2 0-2 1.2-3.2 2.8-3.6-2-.8-2.8-2.6-2.8-4.2 0-3.8 3.1-5 6-5 3.6 0 5.9 1.4 6.1 4.4l-3.5.4c-.1-1.5-1.1-2.1-2.6-2.1-1.6 0-2.4.7-2.4 1.9 0 .9.5 1.6 2.1 2l2.3.7c2.6.8 4.3 1.9 4.3 4.5 0 2-1.2 3.3-2.9 3.5 1.7.7 2.8 2.4 2.8 4.2 0 3.5-2.8 4.8-6.4 4.8-3.7 0-6-1.4-6.5-4.3l3.3-.8z"/><g><path fill="none" stroke="#FF523B" stroke-miterlimit="10" d="M237.6 81.1L261 49l-23.4-32.1"/></g></svg>