<svg xmlns="http://www.w3.org/2000/svg" width="400" height="200" viewBox="0 0 400 200"><path fill="#FFD766" d="M54.9 101.2l46-46-46-46z"/><path opacity=".9" fill="#49B249" d="M8.9 55.2l46 46 46-46z"/><path fill="#FF523B" d="M-.3 46h46.1l-.1-46z"/><g fill="#0F0F0F"><path d="M125.4 26.2h4.8v27.6h-4.8V26.2zM136.6 26.2h6l4.3 11.5c1.3 3.7 2.8 7.9 3.3 10h.1c.5-2.2 1.9-6.3 3.2-9.9l4.4-11.7h6v27.6h-4.6V42.2c0-5 .1-9.1.2-10.7h-.2c-.4 1.5-1.3 4.6-2.8 8.5l-5.2 13.8h-3L143.2 40c-1.5-4-2.4-7-2.8-8.5h-.1c.1 1.6.2 5.7.2 10.7v11.5h-3.9V26.2zM170.3 26.2h7.6c9.3 0 13.2 5.2 13.2 13.7s-3.9 13.8-13.2 13.8h-7.7V26.2zm7.6 24.8c5.6 0 8-3.5 8-11.1s-2.4-11-8-11h-2.8v22h2.8zM198.2 25.6c1.6 0 2.6.9 2.6 2.3s-1 2.4-2.6 2.4-2.5-1-2.5-2.4c0-1.3 1-2.3 2.5-2.3zm-2.2 8c1 0 3.1-.1 4.5-.3v15.9c0 2.2 0 4.1.3 4.5H196V33.6z"/></g><g><g fill="#0F0F0F"><path d="M124.7 62.9h1.3v9.2h-1.3v-9.2zM128 65.5c.1 0 .7 0 1.2-.1v.9c.3-.5 1.1-1 2.1-1 1.6 0 2.1 1.1 2.1 2.5v2.8c0 .7 0 1.3.1 1.5h-1.3V68c0-1.2-.3-1.9-1.4-1.9-.7 0-1.2.3-1.5.6v5.4H128v-6.6zM135.3 66.2h-.9v-.7h1v-1.7c.1 0 .7 0 1.2-.1v1.8h1.5v.7h-1.5v4.2c0 .9.2 1.1 1 1.1.2 0 .5 0 .6-.1v.7c-.1.1-.4.1-.9.1-1.3 0-1.9-.4-1.9-1.9v-4.1zM140.1 68.9c0 1.8.6 2.7 1.7 2.7 1 0 1.3-.8 1.4-1.2.4 0 .9.1 1.1.2-.4 1-1.1 1.7-2.6 1.7-2.1 0-3.1-1.5-3.1-3.5s1-3.4 3-3.4c1.9 0 2.8 1.4 2.8 3v.6h-4.3zm3.1-.7c0-1.5-.4-2.3-1.5-2.3-1 0-1.6.7-1.6 2.3h3.1zM149.2 71.2c1.9 0 2.5.6 2.5 1.5 0 1.2-1 2.2-3.4 2.2-1.9 0-2.8-.7-2.8-1.7 0-.7.5-1.1 1.1-1.2-.5-.2-.7-.6-.7-1 0-.5.4-1 1-1.3-.6-.4-.9-1.1-.9-2 0-1.5 1.1-2.4 2.7-2.4.4 0 .8.1 1.1.2h2.2v.7h-1.4c.3.2.8.8.8 1.7 0 1.4-1.1 2.4-2.7 2.4-.5 0-.9-.1-1.3-.2-.2.2-.4.4-.4.7 0 .4.3.6 1.4.6h.8zm-1.2 1c-.5 0-.8 0-1-.1-.2.2-.5.5-.5 1 0 .8.6 1.2 2 1.2s2.2-.5 2.2-1.3c0-.6-.3-.8-1.5-.8H148zm1.9-4.5c0-1.2-.5-1.8-1.4-1.8-.9 0-1.4.7-1.4 1.8 0 1.2.5 1.8 1.4 1.8.9.1 1.4-.6 1.4-1.8zM152.9 65.5c.4 0 .8 0 1.2-.1v1.1c.2-.3.7-1.1 1.7-1.1h.4v1.1h-.5c-1 0-1.4.5-1.5.6v3.7c0 .8 0 1.3.1 1.4H153v-6.7zM158.1 68.9c0 1.8.6 2.7 1.7 2.7 1 0 1.3-.8 1.4-1.2.4 0 .9.1 1.1.2-.4 1-1.1 1.7-2.6 1.7-2.1 0-3.1-1.5-3.1-3.5s1-3.4 3-3.4c1.9 0 2.8 1.4 2.8 3v.6h-4.3zm3.1-.7c0-1.5-.4-2.3-1.5-2.3-1 0-1.6.7-1.6 2.3h3.1zM164 65.5c.4 0 .8 0 1.2-.1v1.1c.2-.3.7-1.1 1.7-1.1h.4v1.1h-.5c-1 0-1.4.5-1.5.6v3.7c0 .8 0 1.3.1 1.4H164v-6.7zM169.1 62.9c.4 0 .7.3.7.7 0 .4-.3.7-.7.7-.5 0-.7-.3-.7-.7 0-.4.2-.7.7-.7zm-.6 2.6c.1 0 .8 0 1.2-.1v5.3c0 .7 0 1.3.1 1.5h-1.3v-6.7zM171.5 65.5c.1 0 .7 0 1.2-.1v.9c.3-.5 1.1-1 2.1-1 1.6 0 2.1 1.1 2.1 2.5v2.8c0 .7 0 1.3.1 1.5h-1.3V68c0-1.2-.3-1.9-1.4-1.9-.7 0-1.2.3-1.5.6v5.4h-1.2v-6.6zM181.9 71.2c1.9 0 2.5.6 2.5 1.5 0 1.2-1 2.2-3.4 2.2-1.9 0-2.8-.7-2.8-1.7 0-.7.5-1.1 1.1-1.2-.5-.2-.7-.6-.7-1 0-.5.4-1 1-1.3-.6-.4-.9-1.1-.9-2 0-1.5 1.1-2.4 2.7-2.4.4 0 .8.1 1.1.2h2.2v.7H183c.3.2.8.8.8 1.7 0 1.4-1.1 2.4-2.7 2.4-.5 0-.9-.1-1.3-.2-.2.2-.4.4-.4.7 0 .4.3.6 1.4.6h1.1zm-1.2 1c-.5 0-.8 0-1-.1-.2.2-.5.5-.5 1 0 .8.6 1.2 2 1.2 1.3 0 2.2-.5 2.2-1.3 0-.6-.3-.8-1.5-.8h-1.2zm1.9-4.5c0-1.2-.5-1.8-1.4-1.8-.9 0-1.4.7-1.4 1.8 0 1.2.5 1.8 1.4 1.8.9.1 1.4-.6 1.4-1.8zM186.2 70.5c.1.4.5 1.2 1.6 1.2.8 0 1.3-.5 1.3-1.2 0-.8-.8-1-1.7-1.3-.9-.3-2-.6-2-1.9 0-1.1.8-1.9 2.4-1.9 1.8 0 2.3 1 2.4 1.5-.2.1-.7.2-1 .2-.1-.3-.4-1-1.4-1-.8 0-1.3.4-1.3 1.1 0 .7.8 1 1.7 1.2 1 .3 2 .6 2 2 0 1.2-.8 2.1-2.5 2.1-1.6 0-2.3-.8-2.5-1.6.2-.3.7-.4 1-.4zM191.4 67.7h3.5v1h-3.5v-1zM199.1 68.8c0-2 1-3.5 3.1-3.5 2.2 0 3.1 1.5 3.1 3.5s-1 3.5-3.1 3.5-3.1-1.5-3.1-3.5zm4.9 0c0-1.8-.5-2.8-1.8-2.8s-1.8 1.1-1.8 2.8c0 1.8.5 2.8 1.8 2.8s1.8-1.1 1.8-2.8zM210 71.2c1.9 0 2.5.6 2.5 1.5 0 1.2-1 2.2-3.4 2.2-1.9 0-2.8-.7-2.8-1.7 0-.7.5-1.1 1.1-1.2-.5-.2-.7-.6-.7-1 0-.5.4-1 1-1.3-.6-.4-.9-1.1-.9-2 0-1.5 1.1-2.4 2.7-2.4.4 0 .8.1 1.1.2h2.2v.7h-1.4c.3.2.8.8.8 1.7 0 1.4-1.1 2.4-2.7 2.4-.5 0-.9-.1-1.3-.2-.2.2-.4.4-.4.7 0 .4.3.6 1.4.6h.8zm-1.2 1c-.5 0-.8 0-1-.1-.2.2-.5.5-.5 1 0 .8.6 1.2 2 1.2 1.3 0 2.2-.5 2.2-1.3 0-.6-.3-.8-1.5-.8h-1.2zm1.9-4.5c0-1.2-.5-1.8-1.4-1.8-.9 0-1.4.7-1.4 1.8 0 1.2.5 1.8 1.4 1.8.9.1 1.4-.6 1.4-1.8zM124.5 82c.1 0 .7 0 1.2-.1v.9c.3-.5.9-.9 1.9-.9.9 0 1.4.4 1.6 1 .3-.5 1-1 2-1 1.5 0 1.9 1.1 1.9 2.5v2.9c0 .7 0 1.3.1 1.5h-1.3v-4.1c0-1.2-.2-1.9-1.2-1.9-.7 0-1.2.4-1.4.7.1.3.1.7.1 1v4.3h-1.2v-4.1c0-1.2-.2-1.9-1.1-1.9-.6 0-1.1.3-1.3.6v5.4h-1.2V82zM138.9 88.8c-.1-.2-.2-.4-.3-.7-.4.4-.9.7-1.8.7-1.4 0-2.2-.8-2.2-2 0-1.5 1.1-2.1 2.7-2.1.5 0 1 .1 1.2.1V84c0-.9-.2-1.5-1.2-1.5-.9 0-1.4.6-1.5 1-.4 0-.9-.2-1-.4.4-.8 1.3-1.3 2.6-1.3 1.9 0 2.4 1 2.4 2.2v2.7c0 .8 0 1.4.2 1.7l-1.1.4zm-.3-3.3c-.2-.1-.5-.1-1-.1-.9 0-1.7.3-1.7 1.4 0 1 .6 1.3 1.4 1.3.6 0 1-.2 1.4-.5v-2.1zM141.6 82c.1 0 .7 0 1.2-.1v.9c.3-.5 1.1-1 2.1-1 1.6 0 2.1 1.1 2.1 2.5v2.8c0 .7 0 1.3.1 1.5h-1.3v-4.1c0-1.2-.3-1.9-1.4-1.9-.7 0-1.2.3-1.5.6v5.4h-1.2V82zM152 87.7c1.9 0 2.5.6 2.5 1.5 0 1.2-1 2.2-3.4 2.2-1.9 0-2.8-.7-2.8-1.7 0-.7.5-1.1 1.1-1.2-.5-.2-.7-.6-.7-1 0-.5.4-1 1-1.3-.6-.4-.9-1.1-.9-2 0-1.5 1.1-2.4 2.7-2.4.4 0 .8.1 1.1.2h2.2v.7h-1.4c.3.2.8.8.8 1.7 0 1.4-1.1 2.4-2.7 2.4-.5 0-.9-.1-1.3-.2-.2.2-.4.4-.4.7 0 .4.3.6 1.4.6h.8zm-1.2 1.1c-.5 0-.8 0-1-.1-.2.2-.5.5-.5 1 0 .8.6 1.2 2 1.2 1.3 0 2.2-.5 2.2-1.3 0-.6-.3-.8-1.5-.8h-1.2zm1.9-4.5c0-1.2-.5-1.8-1.4-1.8-.9 0-1.4.7-1.4 1.8 0 1.2.5 1.8 1.4 1.8.9 0 1.4-.6 1.4-1.8zM156 82.7h-.9V82h.9v-.6c0-1.6.8-2.1 2-2.1.5 0 .8.1.9.1v.7c-.1-.1-.4-.1-.7-.1-.8 0-1 .4-1 1.4v.6h1.6v.7h-1.6v4.5c0 .7 0 1.3.1 1.5H156v-6zM159.3 85.3c0-2 1-3.5 3.1-3.5 2.2 0 3.1 1.5 3.1 3.5s-1 3.5-3.1 3.5c-2.2 0-3.1-1.4-3.1-3.5zm4.9 0c0-1.8-.5-2.8-1.8-2.8s-1.8 1.1-1.8 2.8.5 2.8 1.8 2.8c1.3.1 1.8-1 1.8-2.8zM167 79.5c.1 0 .8 0 1.2-.1v7.9c0 .7 0 1.3.1 1.5H167v-9.3zM174.5 88.8c-.1-.2-.2-.4-.3-.8-.4.4-1.1.8-1.9.8-1.9 0-2.6-1.5-2.6-3.5s.8-3.5 2.6-3.5c.9 0 1.5.3 1.9.8v-3.2c.1 0 .8 0 1.2-.1v7.5c0 .6 0 1.4.2 1.7l-1.1.3zm-.3-5.6c-.4-.4-.9-.6-1.5-.6-1.3 0-1.7 1-1.7 2.7 0 1.7.4 2.7 1.7 2.7.6 0 1.1-.2 1.5-.6v-4.2zM177.8 87c.1.4.5 1.2 1.6 1.2.8 0 1.3-.5 1.3-1.2 0-.8-.8-1-1.7-1.3-.9-.3-2-.6-2-1.9 0-1.1.8-1.9 2.4-1.9 1.8 0 2.3 1 2.4 1.5-.2.1-.7.2-1 .2-.1-.3-.4-1-1.4-1-.8 0-1.3.4-1.3 1.1 0 .7.8 1 1.7 1.2 1 .3 2 .6 2 2 0 1.2-.8 2.1-2.5 2.1-1.6 0-2.3-.8-2.5-1.6.2-.3.7-.4 1-.4zM187.7 88.8c-.1-.2-.2-.4-.3-.8-.4.4-1.1.8-1.9.8-1.9 0-2.6-1.5-2.6-3.5s.8-3.5 2.6-3.5c.9 0 1.5.3 1.9.8v-3.2c.1 0 .8 0 1.2-.1v7.5c0 .6 0 1.4.2 1.7l-1.1.3zm-.3-5.6c-.4-.4-.9-.6-1.5-.6-1.3 0-1.7 1-1.7 2.7 0 1.7.4 2.7 1.7 2.7.6 0 1.1-.2 1.5-.6v-4.2zM191 79.5c.4 0 .7.3.7.7s-.3.7-.7.7c-.5 0-.7-.3-.7-.7s.3-.7.7-.7zm-.6 2.5c.1 0 .8 0 1.2-.1v5.3c0 .7 0 1.3.1 1.5h-1.3V82zM193.5 82c.4 0 .8 0 1.2-.1V83c.2-.3.7-1.1 1.7-1.1h.4V83h-.5c-1 0-1.4.5-1.5.6v3.7c0 .8 0 1.3.1 1.4h-1.3V82zM198.7 85.4c0 1.8.6 2.7 1.7 2.7 1 0 1.3-.8 1.4-1.2.4 0 .9.1 1.1.2-.4 1-1.1 1.7-2.6 1.7-2.1 0-3.1-1.5-3.1-3.5s1-3.4 3-3.4c1.9 0 2.8 1.4 2.8 3v.6h-4.3zm3.1-.6c0-1.5-.4-2.3-1.5-2.3-1 0-1.6.7-1.6 2.3h3.1zM204.5 79.5c.1 0 .8 0 1.2-.1v5.4l2.5-2.7h1.2v.1l-2.6 2.7 2.7 3.8v.1h-1.4l-2.4-3.5v3.5h-1.2v-9.3zM211 82.7h-.9V82h1v-1.7c.1 0 .7 0 1.2-.1V82h1.5v.7h-1.5v4.2c0 .9.2 1.1 1 1.1.2 0 .5 0 .6-.1v.7c-.1.1-.4.1-.9.1-1.3 0-1.9-.4-1.9-1.9v-4.1zM214.5 85.3c0-2 1-3.5 3.1-3.5 2.2 0 3.1 1.5 3.1 3.5s-1 3.5-3.1 3.5-3.1-1.4-3.1-3.5zm4.9 0c0-1.8-.5-2.8-1.8-2.8s-1.8 1.1-1.8 2.8.5 2.8 1.8 2.8c1.3.1 1.8-1 1.8-2.8zM222.2 82c.4 0 .8 0 1.2-.1V83c.2-.3.7-1.1 1.7-1.1h.4V83h-.5c-1 0-1.4.5-1.5.6v3.7c0 .8 0 1.3.1 1.4h-1.3V82zM230.6 88.8c-.1-.2-.2-.4-.3-.7-.4.4-.9.7-1.8.7-1.4 0-2.2-.8-2.2-2 0-1.5 1.1-2.1 2.7-2.1.5 0 1 .1 1.2.1V84c0-.9-.2-1.5-1.2-1.5-.9 0-1.4.6-1.5 1-.4 0-.9-.2-1-.4.4-.8 1.3-1.3 2.6-1.3 1.9 0 2.4 1 2.4 2.2v2.7c0 .8 0 1.4.2 1.7l-1.1.4zm-.3-3.3c-.2-.1-.5-.1-1-.1-.9 0-1.7.3-1.7 1.4 0 1 .6 1.3 1.4 1.3.6 0 1-.2 1.4-.5v-2.1zM233.6 82.7h-.9V82h1v-1.7c.1 0 .7 0 1.2-.1V82h1.5v.7h-1.5v4.2c0 .9.2 1.1 1 1.1.2 0 .5 0 .6-.1v.7c-.1.1-.4.1-.9.1-1.3 0-1.9-.4-1.9-1.9v-4.1zM238.4 85.4c0 1.8.6 2.7 1.7 2.7 1 0 1.3-.8 1.4-1.2.4 0 .9.1 1.1.2-.4 1-1.1 1.7-2.6 1.7-2.1 0-3.1-1.5-3.1-3.5s1-3.4 3-3.4c1.9 0 2.8 1.4 2.8 3v.6h-4.3zm3.2-.6c0-1.5-.4-2.3-1.5-2.3-1 0-1.6.7-1.6 2.3h3.1zM244.5 82.7h-.9V82h1v-1.7c.1 0 .7 0 1.2-.1V82h1.5v.7h-1.5v4.2c0 .9.2 1.1 1 1.1.2 0 .5 0 .6-.1v.7c-.1.1-.4.1-.9.1-1.3 0-1.9-.4-1.9-1.9v-4.1z"/></g></g></svg>