<?xml version="1.0" encoding="utf-8"?>
<!-- Generator: Adobe Illustrator 19.0.0, SVG Export Plug-In . SVG Version: 6.00 Build 0)  -->
<svg version="1.1" id="Layer_1" xmlns="http://www.w3.org/2000/svg" xmlns:xlink="http://www.w3.org/1999/xlink" x="0px" y="0px"
	 width="32px" height="32px" viewBox="-404 579.5 32 32" style="enable-background:new -404 579.5 32 32;" xml:space="preserve">
<style type="text/css">
	.st0{fill:#D83A36;}
</style>
<path class="st0" d="M-404,595.5c0,8.8,7.2,16,16,16s16-7.2,16-16c0-8.8-7.2-16-16-16S-404,586.7-404,595.5z M-374,595.5
	c0,7.7-6.3,14-14,14s-14-6.3-14-14c0-7.7,6.3-14,14-14S-374,587.8-374,595.5z M-389,588.5v11.3l-3.6-3.6c-0.4-0.4-1-0.4-1.4,0
	c-0.4,0.4-0.4,1,0,1.4l6.1,5.9l6.1-5.9c0.2-0.2,0.3-0.5,0.3-0.7c0-0.3-0.1-0.5-0.3-0.7c-0.4-0.4-1-0.4-1.4,0l-3.7,3.7v-11.3
	c0-0.6-0.4-1-1-1S-389,588-389,588.5L-389,588.5z"/>
</svg>
