<?xml version="1.0" encoding="utf-8"?>
<!-- Generator: Adobe Illustrator 19.0.0, SVG Export Plug-In . SVG Version: 6.00 Build 0)  -->
<svg version="1.1" id="Layer_1" xmlns="http://www.w3.org/2000/svg" xmlns:xlink="http://www.w3.org/1999/xlink" x="0px" y="0px"
	 width="32px" height="32px" viewBox="-404 579.5 32 32" style="enable-background:new -404 579.5 32 32;" xml:space="preserve">
<style type="text/css">
	.st0{fill:#D83A36;}
</style>
<path class="st0" d="M-372.3,609.8l-9.7-9.8c1.8-2.2,2.9-5,2.9-8c0-6.9-5.6-12.5-12.5-12.5s-12.5,5.6-12.5,12.5
	c0,6.9,5.6,12.5,12.5,12.5c3.1,0,6-1.2,8.2-3.1l9.7,9.8c0.4,0.4,1,0.4,1.4,0C-371.9,610.9-371.9,610.2-372.3,609.8L-372.3,609.8z
	 M-391.6,602.6c-5.8,0-10.5-4.7-10.5-10.5s4.7-10.5,10.5-10.5c5.8,0,10.5,4.7,10.5,10.5C-381.1,597.9-385.8,602.6-391.6,602.6z"/>
</svg>
