<?xml version="1.0" encoding="utf-8"?>
<!-- Generator: Adobe Illustrator 21.1.0, SVG Export Plug-In . SVG Version: 6.00 Build 0)  -->
<svg version="1.1" id="Layer_1" xmlns="http://www.w3.org/2000/svg" xmlns:xlink="http://www.w3.org/1999/xlink" x="0px" y="0px"
	 viewBox="0 0 20 20" style="enable-background:new 0 0 20 20;" xml:space="preserve">
<style type="text/css">
	.st0{fill:#418541;}
</style>
<path class="st0" d="M16.5,20h-14C1.7,20,1,19.3,1,18.5v-17C1,0.7,1.7,0,2.5,0h14C17.3,0,18,0.7,18,1.5v17C18,19.3,17.3,20,16.5,20z
	 M2.5,1C2.2,1,2,1.2,2,1.5v17C2,18.8,2.2,19,2.5,19h14c0.3,0,0.5-0.2,0.5-0.5v-17C17,1.2,16.8,1,16.5,1H2.5z"/>
<path class="st0" d="M15.5,7h-12C3.2,7,3,6.8,3,6.5v-4C3,2.2,3.2,2,3.5,2h12C15.8,2,16,2.2,16,2.5v4C16,6.8,15.8,7,15.5,7z M4,6h11
	V3H4V6z"/>
<path class="st0" d="M15.5,8h-12C3.2,8,3,8.2,3,8.5v9C3,17.8,3.2,18,3.5,18h12c0.3,0,0.5-0.2,0.5-0.5v-9C16,8.2,15.8,8,15.5,8z
	 M15,11h-2V9h2V11z M7,12h2v2H7V12z M6,14H4v-2h2V14z M7,11V9h2v2H7z M9,15v2H7v-2H9z M10,15h2v2h-2V15z M12,14h-2v-2h2V14z M10,11
	V9h2v2H10z M6,9v2H4V9H6z M4,15h2v2H4V15z M13,17v-5h2v5H13z"/>
</svg>
