<?xml version="1.0" encoding="utf-8"?>
<!-- Generator: Adobe Illustrator 21.1.0, SVG Export Plug-In . SVG Version: 6.00 Build 0)  -->
<svg version="1.1" id="Layer_1" xmlns="http://www.w3.org/2000/svg" xmlns:xlink="http://www.w3.org/1999/xlink" x="0px" y="0px"
	 viewBox="0 0 20 20" style="enable-background:new 0 0 20 20;" xml:space="preserve">
<style type="text/css">
	.st0{fill:#418541;}
</style>
<path class="st0" d="M18.5,18h-17C0.7,18,0,17.3,0,16.5v-13C0,2.7,0.7,2,1.5,2h17C19.3,2,20,2.7,20,3.5v13C20,17.3,19.3,18,18.5,18z
	 M1.5,3C1.2,3,1,3.2,1,3.5v13C1,16.8,1.2,17,1.5,17h17c0.3,0,0.5-0.2,0.5-0.5v-13C19,3.2,18.8,3,18.5,3H1.5z"/>
<path class="st0" d="M9.5,6h-6C3.2,6,3,5.8,3,5.5S3.2,5,3.5,5h6C9.8,5,10,5.2,10,5.5S9.8,6,9.5,6z"/>
<path class="st0" d="M9.5,9h-6C3.2,9,3,8.8,3,8.5S3.2,8,3.5,8h6C9.8,8,10,8.2,10,8.5S9.8,9,9.5,9z"/>
<path class="st0" d="M9.5,11h-6C3.2,11,3,10.8,3,10.5S3.2,10,3.5,10h6c0.3,0,0.5,0.2,0.5,0.5S9.8,11,9.5,11z"/>
<path class="st0" d="M9.5,13h-6C3.2,13,3,12.8,3,12.5S3.2,12,3.5,12h6c0.3,0,0.5,0.2,0.5,0.5S9.8,13,9.5,13z"/>
<path class="st0" d="M8.5,15h-5C3.2,15,3,14.8,3,14.5S3.2,14,3.5,14h5C8.8,14,9,14.2,9,14.5S8.8,15,8.5,15z"/>
<path class="st0" d="M17.9,6.5L17.1,6l-0.3-1h-1L15,4.4L14.2,5h-1l-0.3,1l-0.8,0.6l0.3,1l-0.3,1L12.9,9L13,9.5c0,0,0,0,0,0v5
	c0,0.2,0.1,0.4,0.3,0.5s0.4,0,0.5-0.1l1.1-1.1l1.1,1.1c0.1,0.1,0.2,0.1,0.4,0.1c0.1,0,0.1,0,0.2,0c0.2-0.1,0.3-0.3,0.3-0.5v-5
	c0,0,0,0,0,0L17.1,9l0.8-0.6l-0.3-1L17.9,6.5L17.9,6.5z M13.2,6.9l0.5-0.4L13.9,6h0.6L15,5.6L15.5,6h0.6l0.2,0.6l0.5,0.4l-0.2,0.6
	l0.2,0.6l-0.5,0.4L16.1,9h-0.6L15,9.4L14.5,9h-0.6l-0.2-0.6l-0.5-0.4l0.2-0.6C13.4,7.5,13.2,6.9,13.2,6.9z M15.4,12.6
	c-0.2-0.2-0.5-0.2-0.7,0L14,13.3V10h0.2l0.8,0.6l0.8-0.6H16v3.3L15.4,12.6L15.4,12.6z"/>
</svg>
