<?xml version="1.0" encoding="utf-8"?>
<!-- Generator: Adobe Illustrator 21.1.0, SVG Export Plug-In . SVG Version: 6.00 Build 0)  -->
<svg version="1.1" id="Layer_1" xmlns="http://www.w3.org/2000/svg" xmlns:xlink="http://www.w3.org/1999/xlink" x="0px" y="0px"
	 viewBox="0 0 20 20" style="enable-background:new 0 0 20 20;" xml:space="preserve">
<style type="text/css">
	.st0{fill:#418541;}
</style>
<path class="st0" d="M18.6,14.5l-4.5-4.1l0.5-0.6C15,9.9,15.5,10,16,10c2.2,0,4-1.8,4-4c0-0.6-0.2-1.3-0.4-1.8
	c-0.1-0.1-0.2-0.2-0.4-0.3s-0.3,0-0.4,0.1l-2,2H16V5.2l2-2c0.1-0.1,0.2-0.3,0.1-0.4S18,2.5,17.8,2.4C17.3,2.2,16.6,2,16,2
	c-2.2,0-4,1.8-4,4c0,0.5,0.1,1,0.3,1.4L11.5,8L9.1,5.8C9,5.7,8.9,5.6,8.9,5.5s0-0.2,0.1-0.3l2.3-2.3c0.1-0.1,0.2-0.4,0.1-0.5
	S11.2,2,11,2c0,0-1,0-2.1,0.1c-2,0.1-2.5,0.4-2.8,0.6L2.6,6.1C2.6,6.2,2.5,6.4,2.5,6.5V7H2C1.9,7,1.7,7.1,1.6,7.1l-1,1
	c-0.2,0.2-0.2,0.5,0,0.7l2,2c0.2,0.2,0.5,0.2,0.7,0l1-1c0.1-0.1,0.1-0.2,0.1-0.4V9H5c0.1,0,0.3-0.1,0.4-0.1l0.8-0.8
	C6.2,8,6.3,7.9,6.5,7.9c0.1,0,0.2,0.1,0.3,0.2l2.1,2.3l-4.5,4.1c-0.3,0.3-0.5,0.6-0.5,1s0.1,0.8,0.4,1.1l1.1,1.1
	c0.3,0.3,0.6,0.4,1,0.4c0,0,0,0,0,0c0.4,0,0.8-0.2,1-0.5l3.9-4.4l4,4.4c0.3,0.3,0.7,0.5,1.1,0.5c0.4,0,0.8-0.2,1-0.4l1.1-1.1
	c0.3-0.3,0.4-0.7,0.4-1.1S18.9,14.7,18.6,14.5L18.6,14.5z M13.3,7.3C13.1,6.9,13,6.5,13,6c0-1.7,1.3-3,3-3c0.2,0,0.5,0,0.7,0.1
	l-1.6,1.6C15.1,4.7,15,4.9,15,5v1.5C15,6.8,15.2,7,15.5,7H17c0.1,0,0.3-0.1,0.4-0.1l1.6-1.6C19,5.5,19,5.8,19,6c0,1.7-1.3,3-3,3
	c-0.5,0-0.9-0.1-1.3-0.3c-0.2-0.1-0.4-0.1-0.6,0.1l-0.8,0.9l-1-0.9l0.9-0.8C13.4,7.8,13.4,7.5,13.3,7.3L13.3,7.3z M6.5,6.9
	c-0.4,0-0.8,0.2-1,0.4L4.8,8H4C3.7,8,3.5,8.2,3.5,8.5v0.8L3,9.8L1.7,8.5L2.2,8H3c0.3,0,0.5-0.2,0.5-0.5V6.7l3.3-3.3
	c0.1,0,0.5-0.2,2.2-0.3c0.2,0,0.5,0,0.7,0L8.4,4.4C8.1,4.7,7.9,5.1,7.9,5.5s0.2,0.8,0.5,1l0.9,0.8L8.3,8.3L7.5,7.4
	C7.3,7.1,6.9,6.9,6.5,6.9L6.5,6.9z M6.8,16.9c-0.1,0.1-0.2,0.1-0.3,0.2s-0.2,0-0.3-0.1l-1.1-1.1c-0.1-0.1-0.1-0.2-0.1-0.3
	s0.1-0.2,0.2-0.3l4.5-4.1l1.2,1.3L6.8,16.9L6.8,16.9z M17.9,15.9l-1.1,1.1c-0.1,0.1-0.2,0.1-0.3,0.1c-0.1,0-0.2-0.1-0.3-0.2L9,9l1-1
	l7.9,7.2c0.1,0.1,0.1,0.2,0.2,0.3S18,15.8,17.9,15.9L17.9,15.9z"/>
</svg>
