<?xml version="1.0" encoding="utf-8"?>
<!-- Generator: Adobe Illustrator 21.1.0, SVG Export Plug-In . SVG Version: 6.00 Build 0)  -->
<svg version="1.1" id="Layer_1" xmlns="http://www.w3.org/2000/svg" xmlns:xlink="http://www.w3.org/1999/xlink" x="0px" y="0px"
	 viewBox="0 0 32 32" style="enable-background:new 0 0 32 32;" xml:space="preserve">
<style type="text/css">
	.st0{fill:#418541;}
</style>
<path class="st0" d="M31.8,16l-15-15.7c-0.4-0.4-1-0.4-1.4,0c0,0,0,0,0,0L0.2,16c-0.4,0.4-0.4,1,0,1.4c0.4,0.4,1,0.4,1.4,0L3,16v15
	c0,0.6,0.4,1,1,1h7c0.6,0,1-0.4,1-1l0-10h8v10c0,0.6,0.4,1,1,1h7c0.6,0,1-0.4,1-1V16l1.3,1.4c0.4,0.4,1,0.4,1.4,0
	C32.1,17.1,32.2,16.4,31.8,16L31.8,16L31.8,16z M27,14.2V30h-5V20c0-0.6-0.4-1-1-1H11c-0.6,0-1,0.4-1,1l0,10H5V14.2
	C5,14.1,5,14,5,14L16,2.5L27,14C27,14,27,14.1,27,14.2L27,14.2z"/>
</svg>
