<svg xmlns="http://www.w3.org/2000/svg" width="32" height="32" viewBox="-404 579.55 32 32"><path d="M-394.76 602.44a.997.997 0 0 0 1.413 0l12.114-12.21a1 1 0 0 0-1.414-1.414l-12.114 12.21a1 1 0 0 0 0 1.413zm5.63-2.13c.332 1.456-.025 2.886-1.15 4.013l-4.04 3.914a4.474 4.474 0 0 1-3.182 1.317 4.474 4.474 0 0 1-3.182-1.317c-1.754-1.755-1.754-4.61-.01-6.354l3.946-4.07a4.475 4.475 0 0 1 3.182-1.318c.41 0 .807.073 1.193.18l1.56-1.56a6.48 6.48 0 0 0-7.35 1.285l-3.935 4.06a6.5 6.5 0 0 0 4.596 11.097 6.477 6.477 0 0 0 4.596-1.904l4.03-3.904c1.94-1.943 2.36-4.65 1.332-7.024l-1.585 1.585zm15.228-18.86a6.482 6.482 0 0 0-4.596-1.905 6.477 6.477 0 0 0-4.596 1.904l-4.03 3.904a6.498 6.498 0 0 0-1.243 7.438l1.552-1.552c-.46-1.534-.107-3.26 1.096-4.463l4.04-3.914a4.477 4.477 0 0 1 3.183-1.318c1.2 0 2.332.47 3.18 1.318 1.755 1.755 1.755 4.61.01 6.354l-4.038 4.04a4.468 4.468 0 0 1-3.18 1.317c-.307 0-.577.03-.87-.03l-1.594 1.595c.797.33 1.614.435 2.464.435a6.478 6.478 0 0 0 4.596-1.904l4.03-4.028a6.5 6.5 0 0 0 0-9.192h-.002z"/></svg>