<svg xmlns="http://www.w3.org/2000/svg" width="32" height="32" viewBox="-404 579.55 32 32"><path d="M-382.613 584.51c1.652 0 3.145.675 4.195 1.76a11.775 11.775 0 0 0 3.648-1.353 5.622 5.622 0 0 1-2.526 3.083c1.16-.136 2.27-.434 3.3-.88a11.55 11.55 0 0 1-2.867 2.886c.01.24.017.48.017.72 0 7.367-5.782 15.863-16.354 15.863-3.245 0-6.268-.927-8.81-2.508.45.052.907.08 1.37.08 2.693 0 5.173-.89 7.14-2.388-2.517-.043-4.64-1.657-5.37-3.87a5.892 5.892 0 0 0 2.595-.094c-2.628-.51-4.61-2.764-4.61-5.466v-.072a5.86 5.86 0 0 0 2.604.698c-1.544-1-2.56-2.705-2.56-4.64 0-1.02.285-1.98.78-2.8 2.834 3.37 7.07 5.59 11.847 5.825a5.45 5.45 0 0 1-.15-1.27c0-3.08 2.575-5.575 5.75-5.575zm8.62 2.612h.004-.004zm-8.62-4.613c-3.927 0-7.18 2.868-7.68 6.575-3.214-.646-6.136-2.346-8.236-4.842a1.997 1.997 0 0 0-3.242.255 7.418 7.418 0 0 0-1.065 3.833c0 .903.162 1.78.47 2.602-.328.364-.516.84-.516 1.34v.073c0 1.96.774 3.777 2.06 5.14-.073.343-.057.702.056 1.046a7.533 7.533 0 0 0 2.298 3.4 9.94 9.94 0 0 1-3.3.168 1.997 1.997 0 0 0-2.123 1.323 2 2 0 0 0 .83 2.36 18.653 18.653 0 0 0 9.865 2.81c11.376 0 18.22-8.905 18.352-17.605a13.42 13.42 0 0 0 2.45-2.66 2 2 0 0 0-.454-2.847 2 2 0 0 0-1.918-2.56c-.344 0-.69.09-1 .27a9.55 9.55 0 0 1-2.112.898 7.893 7.893 0 0 0-4.732-1.578v.002z"/></svg>