<?xml version="1.0" encoding="utf-8"?>
<!-- Generated by IcoMoon.io -->
<!DOCTYPE svg PUBLIC "-//W3C//DTD SVG 1.1//EN" "http://www.w3.org/Graphics/SVG/1.1/DTD/svg11.dtd">
<svg version="1.1" xmlns="http://www.w3.org/2000/svg" xmlns:xlink="http://www.w3.org/1999/xlink" width="32" height="32" viewBox="0 0 32 32">
<path fill="#000000" d="M31.707 30.282l-9.716-9.776c1.811-2.169 2.902-4.96 2.902-8.007 0-6.904-5.596-12.5-12.5-12.5s-12.5 5.596-12.5 12.5c0 6.903 5.596 12.5 12.5 12.5 3.136 0 6.002-1.158 8.197-3.067l9.703 9.764c0.39 0.39 1.024 0.39 1.415 0s0.39-1.023 0-1.415zM12.393 23.017c-5.808 0-10.517-4.709-10.517-10.517s4.708-10.517 10.517-10.517 10.517 4.708 10.517 10.517-4.709 10.517-10.517 10.517z"></path>
</svg>
