<svg xmlns="http://www.w3.org/2000/svg" width="32" height="32" viewBox="0 0 32 32"><path d="M16 0C7.164 0 0 7.163 0 16s7.163 16 16 16 16-7.163 16-16S24.84 0 16 0zm0 30.032C8.28 30.032 2 23.72 2 16S8.28 2 16 2s14 6.28 14 14-6.28 14.032-14 14.032z"/><path d="M13.835 19.372c0-4.53 4.58-3.775 4.58-7.953 0-1.586-.73-2.694-2.492-2.694-2.138 0-2.643 1.61-2.818 2.568-.83-.05-2.04-.252-2.542-.73.403-1.636 1.76-3.625 5.46-3.625 3.826 0 5.412 2.19 5.412 4.404 0 4.832-5.008 4.782-5.285 8.33l-.05.655h-2.264v-.958zm1.108 2.542c.956 0 1.61.68 1.61 1.56s-.654 1.587-1.61 1.587c-.957 0-1.61-.704-1.61-1.585s.653-1.56 1.61-1.56z"/></svg>