<svg xmlns="http://www.w3.org/2000/svg" width="32" height="32" viewBox="-404 579.55 32 32"><path d="M-391.428 595.358l1.227-1.726-4.198-5.728h-9.517v2h8.484l4 5.454h.002zm16.14-5.454l-2.423 2.173c-.293.28-.388.732-.096 1.01l.17.253a.77.77 0 0 0 1.058 0l3.992-3.61c.006-.005.012-.006.017-.01l.266-.254a.697.697 0 0 0 0-1.016l-.265-.253c-.004-.005-.01-.007-.016-.01l-4.054-3.702a.773.773 0 0 0-1.058 0l-.17.252c-.294.28-.2.73.094 1.01l2.377 2.155h-7.242l-12.79 18h-8.484v2h9.516l12.79-18h6.32v.002zm2.72 16.295c-.006-.006-.012-.008-.018-.013l-4.054-3.7a.773.773 0 0 0-1.058 0l-.17.25c-.294.28-.2.733.094 1.012l2.386 2.162-6.22-.01-3.575-5.53-1.227 1.726 3.77 5.805 7.342.01-2.413 2.163c-.293.28-.388.733-.096 1.012l.17.252a.77.77 0 0 0 1.058 0l3.992-3.61c.006-.005.012-.006.017-.01l.266-.254a.697.697 0 0 0 0-1.016l-.265-.253v.002z"/></svg>