<svg xmlns="http://www.w3.org/2000/svg" width="32" height="32" viewBox="-404 579.55 32 32"><path d="M-380.155 587.675c-1.395-3.7-4.393-6.045-8.92-6.045-5.763 0-9.794 4.28-10.14 9.86-2.78.89-4.785 3.724-4.785 6.934 0 3.93 3.09 7.25 6.745 7.25h.89a1 1 0 0 0 0-2h-.89c-2.572 0-4.776-2.405-4.776-5.25 0-2.515 1.762-4.783 3.973-5.163l.907-.155-.08-.917-.01-.01c0-4.872 3.208-8.546 8.163-8.546 3.972 0 6.203 1.957 7.236 5.295l.212.688.72.015c3.716.078 6.972 3.092 6.972 6.837 0 3.408-2.26 7.206-5.678 7.206h-.285a1 1 0 0 0 0 2v-.003c5-.132 7.884-4.91 7.884-9.203 0-4.617-3.62-8.305-8.14-8.79v-.002zm-3.647 16.108a.693.693 0 0 0-1.01 0l-2.2 2.427v-10.067a1 1 0 0 0-2 0v10.076l-2.13-2.374c-.28-.292-.73-.355-1.01-.063l-.252.138a.77.77 0 0 0 0 1.058l3.61 3.992c.005.005.006.012.01.017l.254.265a.697.697 0 0 0 1.016 0l.253-.265.01-.017 3.702-4.055c.28-.292.28-.64 0-.932l-.253-.2h-.002z"/></svg>