<?xml version="1.0" encoding="utf-8"?>
<!-- Generator: Adobe Illustrator 19.0.0, SVG Export Plug-In . SVG Version: 6.00 Build 0)  -->
<svg version="1.1" id="Layer_1" xmlns="http://www.w3.org/2000/svg" xmlns:xlink="http://www.w3.org/1999/xlink" x="0px" y="0px"
	 width="32px" height="32px" viewBox="-404 579.5 32 32" style="enable-background:new -404 579.5 32 32;" xml:space="preserve">
<path d="M-375.7,594.6H-393c-0.6,0-1,0.4-1,1s0.4,1,1,1h17.3l-3.6,3.6c-0.4,0.4-0.4,1,0,1.4c0.4,0.4,1,0.4,1.4,0l5.9-6.1l-5.9-6.1
	c-0.2-0.2-0.5-0.3-0.7-0.3c-0.3,0-0.5,0.1-0.7,0.3c-0.4,0.4-0.4,1,0,1.4L-375.7,594.6L-375.7,594.6z M-402,611.6h17c1.1,0,2-0.9,2-2
	v-9h-2v7.8c0,0.7-0.5,1.2-1.2,1.2h-14.5c-0.7,0-1.2-0.5-1.2-1.2l0-25.6c0-0.7,0.5-1.2,1.2-1.2h14.6c0.7,0,1.2,0.5,1.2,1.2v7.8l2,0
	v-9c0-1.1-0.9-2-2-2h-17c-1.1,0-2,0.9-2,2v28C-404,610.7-403.1,611.5-402,611.6L-402,611.6z"/>
</svg>
