<svg xmlns="http://www.w3.org/2000/svg" width="32" height="32" viewBox="-404 579.55 32 32"><path d="M-388 581.97l4.296 8.91 9.77 1.452-7.076 7.057.238 1.415 1.415 8.443-8.644-4.65-8.644 4.653 1.415-8.443.238-1.416-7.073-7.058 9.768-1.452.642-1.33 3.655-7.58zm0-1.934c-.897 0-1.713.505-2.094 1.296l-3.622 7.52-8.335 1.24a2.303 2.303 0 0 0-1.844 1.51 2.206 2.206 0 0 0 .537 2.287l6.106 6.1-1.418 8.457a2.23 2.23 0 0 0 .95 2.206 2.368 2.368 0 0 0 2.45.13l7.265-3.91 7.266 3.91a2.37 2.37 0 0 0 2.45-.13 2.23 2.23 0 0 0 .95-2.206l-1.418-8.458 6.11-6.1c.605-.602.81-1.486.536-2.287a2.3 2.3 0 0 0-1.842-1.512l-8.333-1.238-3.624-7.52a2.312 2.312 0 0 0-2.092-1.296z"/></svg>