<svg xmlns="http://www.w3.org/2000/svg" width="32" height="32" viewBox="-404 579.55 32 32"><path d="M-374.602 585.478c-.867-.624-3.283-1.453-13.406-1.453-10.848 0-12.458.952-12.975 1.264-2.75 1.65-3.01 8.962-3.034 10.444.033 1.958.35 8.473 3.032 10.084.515.31 2.116 1.257 12.976 1.257 10.13 0 12.544-.825 13.407-1.447 2.343-1.686 2.612-7.49 2.62-9.92-.007-1.954-.212-8.496-2.62-10.23zm-1.168 18.528c-.35.25-2.35 1.07-12.24 1.07-9.56 0-11.565-.742-11.944-.97-.965-.58-1.984-3.653-2.063-8.377.08-4.714 1.11-8.154 2.066-8.727.38-.23 2.392-.978 11.943-.978 9.88 0 11.887.824 12.24 1.076.856.618 1.772 3.866 1.786 8.615-.015 4.823-.937 7.678-1.788 8.29h-.002zm-5.717-9.243l-8.998-5.52a1 1 0 0 0-1.517.856v11.044a1 1 0 0 0 1.517.857l8.998-5.523a1 1 0 0 0 0-1.714zm-8.515 4.61v-7.504l6.063 3.75-6.062 3.752z"/></svg>