<svg xmlns="http://www.w3.org/2000/svg" width="32" height="32" viewBox="-404 579.55 32 32"><path d="M-379 591.584h-14.28l-.518-2.32c-.883-3.294.65-6.577 4.16-7.517 3.472-.93 6.533 1.06 7.43 4.41l.426 1.687a1 1 0 1 0 1.932-.517l-.425-1.686c-1.187-4.432-5.325-7.044-9.88-5.823-4.575 1.226-6.742 5.607-5.574 9.966l.403 1.803H-397c-2.206 0-4 1.794-4 4v12c0 2.206 1.794 4 4 4h18c2.206 0 4-1.794 4-4v-12c0-2.206-1.794-4-4-4v-.002zm2 16c0 1.103-.898 2-2 2h-18c-1.103 0-2-.897-2-2v-12c0-1.1.897-2 2-2h18c1.102 0 2 .9 2 2v12zm-11-10a1.994 1.994 0 0 0-1 3.723v3.278a1 1 0 0 0 2 0v-3.277c.595-.346 1-.985 1-1.723a2 2 0 0 0-2-2z"/></svg>