<svg xmlns="http://www.w3.org/2000/svg" width="32" height="32" viewBox="-404 579.55 32 32"><path d="M-403.318 588.98l14.847 8.086a1 1 0 0 0 .952.002l15.003-8.085a1 1 0 0 0-.02-1.772l-14.85-7.54a1.005 1.005 0 0 0-.9 0l-15.003 7.54a1 1 0 0 0-.03 1.77zm15.48-7.296l12.692 6.446-12.843 6.92-12.692-6.91 12.843-6.456zm15.13 12.876l-2.968-1.507-2.143 1.155 2.5 1.27-12.84 6.92-12.695-6.91 2.666-1.34-2.135-1.165-3.135 1.575a1 1 0 0 0-.03 1.772l14.847 8.085a1 1 0 0 0 .954.002l15.004-8.085a1 1 0 0 0-.02-1.772h-.002zm0 7l-2.81-1.382-2.144 1.155 2.344 1.145-12.843 6.92-12.695-6.91 2.48-1.122-2.137-1.164-2.947 1.357a1 1 0 0 0-.03 1.77l14.848 8.086a1 1 0 0 0 .953.002l15.004-8.085a1 1 0 0 0-.02-1.772h-.002z"/></svg>