<svg xmlns="http://www.w3.org/2000/svg" width="32" height="32" viewBox="-404 579.55 32 32"><path d="M-373.947 585.786c0 .033-.003.06-.007.082a567.28 567.28 0 0 1-6.243 4.13c-.09.002-.32-.028-.645-.2-.348-.182-1.36-.75-2.777-1.56l-1.1-.628-1.04.73c-.773.543-2.452 1.837-5.01 4.394-2.567 2.567-3.857 4.24-4.398 5.01l-.73 1.04.63 1.102c.612 1.07 1.343 2.36 1.564 2.78.178.336.19.566.19.63v.025c-.48.766-3.58 5.437-4.146 6.26-.08.015-.254.002-.47-.15-1.76-1.27-3.593-3.07-3.857-3.775.176-3.75 3.473-9.014 9.3-14.84 5.825-5.826 11.084-9.12 14.822-9.295.707.253 2.52 2.088 3.78 3.83.087.128.14.287.138.436zm1.938 0c0-.53-.16-1.09-.498-1.578-.033-.047-3.383-4.753-5.323-4.69-5.452.172-11.858 5.47-16.273 9.882-4.415 4.412-9.713 10.82-9.887 16.292v.045c0 1.916 4.646 5.284 4.692 5.316 1.263.884 2.652.562 3.217-.243.343-.49 3.904-5.846 4.305-6.502a1.93 1.93 0 0 0 .26-1.014c0-.49-.142-1.032-.42-1.56a155.3 155.3 0 0 0-1.597-2.842c.473-.673 1.684-2.254 4.177-4.745 2.474-2.476 4.07-3.697 4.745-4.173.764.435 2.325 1.323 2.84 1.593.968.51 1.935.57 2.588.155.615-.39 5.93-3.937 6.438-4.303.477-.347.735-.965.735-1.636v.002z"/></svg>