<?xml version="1.0" encoding="utf-8"?>
<!-- Generated by IcoMoon.io -->
<!DOCTYPE svg PUBLIC "-//W3C//DTD SVG 1.1//EN" "http://www.w3.org/Graphics/SVG/1.1/DTD/svg11.dtd">
<svg version="1.1" xmlns="http://www.w3.org/2000/svg" xmlns:xlink="http://www.w3.org/1999/xlink" width="32" height="32" viewBox="0 0 32 32">
<path fill="#000000" d="M29.005 5.5h-26.009c-1.657 0-3 1.343-3 3v15c0 1.657 1.343 3 3 3h26.009c1.657 0 3-1.343 3-3v-15c0-1.657-1.343-3-3-3zM2.995 7.5h26.009c0.552 0 1 0.448 1 1v2h-28.009v-2c0-0.552 0.449-1 1-1zM29.005 24.5h-26.009c-0.552 0-1-0.448-1-1v-9h28.009v9c0 0.552-0.448 1-1 1z"></path>
</svg>
