<svg xmlns="http://www.w3.org/2000/svg" width="32" height="32" viewBox="-404 579.55 32 32"><path d="M-382.566 591.525l8.602-8.55-.028 4.847c-.01.404.31.755.716.746h.513c.404-.01.74-.25.747-.655l.02-7.22c0-.006-.026-.01-.026-.02l.04-.365c.004-.203-.044-.384-.174-.513a.688.688 0 0 0-.512-.204l-.366.01c-.007 0-.012.003-.02.004l-7.172-.032a.77.77 0 0 0-.747.748v.513c.06.476.435.755.84.746l4.725.012-8.572 8.52a1 1 0 0 0 1.414 1.415v-.002zm-10.837 8.05l-8.602 8.524.027-4.82c.01-.404-.312-.756-.716-.747h-.544c-.405.01-.74.25-.748.655l-.02 7.22c0 .006.027.01.027.02l-.04.364c-.004.203.044.385.175.514.13.13.31.21.512.205l.366-.008c.007 0 .012-.003.02-.003l7.203.03a.774.774 0 0 0 .748-.747v-.514c-.06-.477-.435-.756-.84-.747l-4.725-.012 8.57-8.517a1 1 0 1 0-1.413-1.414v-.004zm21.41 10.83l-.02-7.22c-.01-.403-.344-.644-.748-.653h-.514c-.404-.01-.724.342-.716.746l.028 4.846-8.602-8.55a1 1 0 0 0-1.414 1.415l8.57 8.517-4.725.012a.822.822 0 0 0-.84.745v.514c.01.403.345.737.748.747l7.172-.032c.008 0 .013.003.02.003l.366.01a.69.69 0 0 0 .512-.206c.13-.13.178-.31.174-.514l-.04-.365c0-.008.026-.012.026-.02v.002zm-28.568-28.813l4.726-.013c.404.008.778-.27.84-.747v-.513a.772.772 0 0 0-.75-.748l-7.203.03c-.008 0-.013-.003-.02-.003l-.366-.01a.692.692 0 0 0-.512.204c-.132.13-.18.31-.174.514l.04.366c0 .007-.027.012-.027.02l.02 7.22c.01.403.344.644.75.653h.543c.404.01.724-.34.716-.745l-.028-4.82 8.602 8.524a1 1 0 0 0 1.414-1.415l-8.572-8.517z"/></svg>