<svg xmlns="http://www.w3.org/2000/svg" width="32" height="32" viewBox="-404 579.55 32 32"><path d="M-372.02 594.34a1.995 1.995 0 0 0-.38-.952h.006l-.027-.027a1.994 1.994 0 0 0-.358-.36l-5.224-5.26v-3.228a1 1 0 0 0-1-1h-3.166l-3.65-3.116c-1.132-1.132-3.11-1.134-4.243 0l-3.64 3.116H-397a1 1 0 0 0-1 1v3.293l-5.098 5.098a2 2 0 0 0-.902 1.667v14.984c0 1.1.9 2 2 2h28c1.1 0 2-.9 2-2V594.61a.975.975 0 0 0-.02-.27zm-23.578 7.882l-6.404 5.94v-11.59l6.404 5.65zm1.928.938a.983.983 0 0 0 .487-.452l4.31-3.998c.225-.183.494-.28.776-.28.287 0 .574.102.767.25l11.995 10.874h-25.23l6.895-6.394zm13.368-.806l6.3-5.59v11.3l-6.3-5.71zm4.363-9.784h-.03l1.716 1.744-3.747 3.326v-7.13l2.062 2.06zm-12.708-10.76a1 1 0 0 1 1.415 0l2.02 1.702h-5.45l2.016-1.702zm8.646 3.702v13.902l-1.79 1.59-4.26-3.86a3.29 3.29 0 0 0-4.116.042l-3.957 3.67-1.877-1.657V585.51h16zm-20.755 7.876l2.755-2.754v6.8l-3.644-3.216.844-.83h.045z"/></svg>