<?xml version="1.0" encoding="utf-8"?>
<!-- Generated by IcoMoon.io -->
<!DOCTYPE svg PUBLIC "-//W3C//DTD SVG 1.1//EN" "http://www.w3.org/Graphics/SVG/1.1/DTD/svg11.dtd">
<svg version="1.1" xmlns="http://www.w3.org/2000/svg" xmlns:xlink="http://www.w3.org/1999/xlink" width="32" height="32" viewBox="0 0 32 32">
<path fill="#000000" d="M29.773 7.966h-3.773v-7.952h-20.001v7.952h-3.772c-1.228 0-2.228 1-2.228 2.229v13.559c0 1.23 1 2.229 2.228 2.229h3.772v6h20.001v-6h3.773c1.229 0 2.229-1 2.229-2.23v-13.559c0-1.229-1-2.229-2.229-2.229zM8 1.984h16.001v5.982h-16.001v-5.982zM24 29.985h-16.001v-11.012h16.001v11.012zM30.002 23.755c0 0.128-0.102 0.23-0.229 0.23h-3.773v-7.012h-20.001v7.012h-3.772c-0.126 0-0.228-0.102-0.228-0.23v-13.559c0-0.127 0.103-0.229 0.228-0.229h27.546c0.126 0 0.229 0.102 0.229 0.229v13.559zM26 11.982h-1c-0.552 0-1 0.448-1 1s0.448 1 1 1h1c0.552 0 1-0.448 1-1s-0.448-1-1-1z"></path>
</svg>
