<?xml version="1.0" encoding="utf-8"?>
<!-- Generated by IcoMoon.io -->
<!DOCTYPE svg PUBLIC "-//W3C//DTD SVG 1.1//EN" "http://www.w3.org/Graphics/SVG/1.1/DTD/svg11.dtd">
<svg version="1.1" xmlns="http://www.w3.org/2000/svg" xmlns:xlink="http://www.w3.org/1999/xlink" width="32" height="32" viewBox="0 0 32 32">
<path fill="#000000" d="M28.183 29.668h-26v-20h8.050l2.023-1.948-0.052-0.052h-10.021c-1.105 0-2 0.896-2 2v20c0 1.105 0.895 2 2 2h26c1.105 0 2-0.895 2-2v-15.646l-2 1.909v13.737zM8.441 21.668h2.015c1.402-7.953 8.33-14 16.684-14 0.351 0 0.683 0.003 1.020 0.005l-3.664 3.664c-0.39 0.39-0.39 1.024 0 1.414 0.195 0.196 0.452 0.293 0.708 0.293s0.511-0.098 0.706-0.293l5.907-6.063-5.907-6.064c-0.39-0.391-1.023-0.391-1.414 0-0.39 0.391-0.39 1.024 0 1.414l3.631 3.63c-0.314-0-0.624-0.002-0.944-0.002-9.47 0-17.299 6.936-18.741 16.001z"></path>
</svg>
