<svg xmlns="http://www.w3.org/2000/svg" width="32" height="32" viewBox="-404 579.55 32 32"><path d="M-372.55 586.298a.944.944 0 0 0-1.02.152l-5.04 4.528-4.55-4.67 4.505-5.203a.95.95 0 0 0 .152-1.016.934.934 0 0 0-.86-.554h-.27c-2.786 0-7.594.24-9.74 2.417l-.433.43c-2.29 2.336-2.697 6.168-1.49 9.08l-11.54 11.78a4.08 4.08 0 0 0 0 5.712l1.41 1.428a3.948 3.948 0 0 0 5.634 0l11.71-11.804c1.107.598 2.625.988 3.9.988 2.042 0 3.98-.824 5.453-2.32l.428-.433c2.33-2.364 2.296-7.415 2.306-9.638a.963.963 0 0 0-.555-.878v-.002zm-3.148 9.158l-.37.434c-1.118 1.134-2.58 1.677-4.115 1.677-.76 0-1.784-.143-2.476-.43a5.944 5.944 0 0 1-1.724-1.108l-12.818 12.924a1.962 1.962 0 0 1-1.408.592c-.532 0-1.032-.21-1.41-.592l-1.407-1.427a2.044 2.044 0 0 1 0-2.858l12.523-12.778a6.01 6.01 0 0 1-.877-1.968h-.002c-.482-1.95-.2-4.644 1.313-6.19l.432-.434c1.298-1.317 4.67-1.707 6.537-1.822l-3.67 4.236a.97.97 0 0 0 .04 1.31l5.797 5.947a.937.937 0 0 0 1.3.048l4.08-3.676c-.12 1.98-.505 4.856-1.747 6.115h.002z"/></svg>