<svg xmlns="http://www.w3.org/2000/svg" width="32" height="32" viewBox="-404 579.55 32 32"><path d="M-388 583.55c7.72 0 14 4.486 14 10s-6.28 10-14 10l-.83.003c-.55 0-.908-.015-1.47-.1l-1.12-.16-.72.87c-.33.4-2.016 1.786-3.877 2.678.378-1 .657-2.093.683-3.174l.01-.06v-1.394l-1.09-.556c-3.55-1.816-5.585-4.77-5.585-8.106 0-5.514 6.28-10 14-10zm0-2c-8.838 0-16 5.373-16 12 0 4.127 2.446 7.724 6.675 9.886 0 .026-.008.044-.008.073 0 1.792-1.005 3.764-1.594 4.778h.002a.904.904 0 0 0 .833 1.263c.076 0 .197-.015.24-.015.01 0 .016 0 .016.003 3.125-.512 6.56-3.272 7.245-4.105.703.105 1.177.12 1.765.12.248 0 .515-.003.83-.003 8.835 0 16-5.372 16-12 0-6.627-7.165-12-16-12l-.003-.002z"/></svg>