<svg xmlns="http://www.w3.org/2000/svg" width="32" height="32" viewBox="-404 579.55 32 32"><path d="M-372.11 592.968l-3.21-4.803 1.598-5.588a1.003 1.003 0 0 0-1.243-1.236l-5.578 1.63-4.822-3.247a.99.99 0 0 0-1.014-.06 1.003 1.003 0 0 0-.543.86l-.173 5.81-4.578 3.582a1.003 1.003 0 0 0-.37.947c.056.36.305.66.65.782l4.295 1.54c-.028.023-.058.043-.086.07l-16.586 16.586a1 1 0 0 0 1.414 1.414l16.586-16.586a1 1 0 0 0 .157-.213l1.68 4.61a1 1 0 0 0 1.732.27l3.555-4.6 5.747-.205a1.002 1.002 0 0 0 .79-1.563zm-7.076-.214a1 1 0 0 0-.756.387l-2.733 3.536-1.53-4.197a.998.998 0 0 0-.602-.6l-4.206-1.507 3.52-2.752c.235-.183.374-.46.384-.757l.134-4.467 3.706 2.496c.247.166.555.213.84.13l4.288-1.252-1.23 4.296c-.08.286-.032.593.136.84l2.517 3.69-4.464.16-.002-.002z"/></svg>