<svg xmlns="http://www.w3.org/2000/svg" width="32" height="32" viewBox="-404 579.55 32 32"><path d="M-387.886 579.54c-6.56 0-12.114 5.586-12.114 12.203 0 6.93 6.44 14.017 10.77 18.998.017.02.716.798 1.58.798h.075c.863 0 1.558-.777 1.575-.797 4.064-4.67 10-12.376 10-18.997 0-6.618-4.333-12.204-11.886-12.204zm.4 29.86a1.21 1.21 0 0 1-.13.106 1.218 1.218 0 0 1-.133-.107l-.522-.603c-4.106-4.71-9.73-11.16-9.73-17.055 0-5.532 4.633-10.205 10.115-10.205 6.83 0 9.886 5.125 9.886 10.205 0 4.474-3.193 10.416-9.486 17.657zm-.48-23.806a6 6 0 1 0 .002 12 6 6 0 0 0 0-12zm0 10c-2.205 0-4.045-1.838-4.045-4.044s1.793-4 4-4c2.206 0 4 1.794 4 4s-1.748 4.044-3.955 4.044z"/></svg>