<svg xmlns="http://www.w3.org/2000/svg" width="32" height="32" viewBox="-404 579.55 32 32"><path d="M-379 591.55h-1v-3.816c0-4.59-3.32-8.184-8.037-8.184-4.736 0-7.963 3.67-7.963 8.184v3.816h-1c-2.206 0-4 1.794-4 4v12c0 2.206 1.794 4 4 4h18c2.206 0 4-1.794 4-4v-12c0-2.206-1.794-4-4-4zm-15-3.816c0-3.41 2.33-6.184 5.963-6.184 3.596 0 6.037 2.716 6.037 6.184v3.816h-12v-3.816zm17 19.816c0 1.102-.898 2-2 2h-18c-1.103 0-2-.898-2-2v-12c0-1.102.897-2 2-2h18c1.102 0 2 .898 2 2v12zm-11-10a1.994 1.994 0 0 0-1 3.723v3.277a1 1 0 0 0 2 0v-3.277c.595-.346 1-.985 1-1.723a2 2 0 0 0-2-2z"/></svg>