<svg xmlns="http://www.w3.org/2000/svg" width="32" height="32" viewBox="-404 579.55 32 32"><path d="M-383.51 579.55c-4.97 0-9 4.036-9 9.014 0 2.232.814 4.27 2.156 5.844a.992.992 0 0 0-.768.287l-10.075 10.137a1 1 0 0 0 0 1.414c.007.008.016.012.024.02a.055.055 0 0 0 .006.008l4.904 4.997a1 1 0 0 0 1.414-1.413l-4.233-4.314 2.578-2.594 4.242 4.32a1 1 0 1 0 1.414-1.413l-4.244-4.326 5.387-5.42a.99.99 0 0 0 .288-.758 8.946 8.946 0 0 0 5.913 2.228c4.97 0 9-4.036 9-9.015s-4.03-9.014-9-9.014h-.002zm0 16c-3.85 0-7-3.133-7-7s3.15-7 7-7 7 3.133 7 7-3.147 7-7 7z"/></svg>