<svg xmlns="http://www.w3.org/2000/svg" width="32" height="32" viewBox="-404 579.55 32 32"><path d="M-377.967 581.57h-2.014v6.73c0 3.262-1.77 5.73-5.567 7.662 3.94 1.994 5.597 4.442 5.597 8.096 0 2.38-.01 4.375-.018 5.473h2.002a1 1 0 0 1 0 2h-20.067a1 1 0 0 1 0-2h2.06a792.358 792.358 0 0 1-.017-5.472c0-3.654 1.634-6.1 5.567-8.095-3.788-1.933-5.535-4.4-5.535-7.662v-6.73h-2.074a1 1 0 0 1 0-2h20.067a1 1 0 0 1 0 2h-.002zm-16.025 22.49c0 2.383.01 4.38.018 5.472h12.005c.008-1.09.02-3.09.02-5.473 0-2.783-1.036-4.94-6.038-7.013-5 2.074-6.005 4.23-6.005 7.012zm12.012-22.49h-11.98v6.73c0 1.918.645 4.388 5.974 6.58 5.33-2.192 6.006-4.662 6.006-6.58v-6.73z"/></svg>