<svg xmlns="http://www.w3.org/2000/svg" width="32" height="32" viewBox="-404 579.55 32 32"><path d="M-388 580.68c-8.813 0-15.98 7.168-15.98 15.98 0 5.536 2.803 10.6 7.497 13.544a.997.997 0 0 0 1.378-.316 1 1 0 0 0-.316-1.378 14.03 14.03 0 0 1-4.17-4.027l1.047-.605a1 1 0 1 0-1-1.732l-1.05.606a13.938 13.938 0 0 1-1.353-5.107h1.113a1 1 0 0 0 0-2h-1.108a13.855 13.855 0 0 1 1.392-5.143l1.005.58a1 1 0 0 0 1-1.732l-.995-.574a14.102 14.102 0 0 1 3.75-3.72l.563.975a.996.996 0 0 0 1.366.367 1 1 0 0 0 .367-1.366l-.56-.97a13.864 13.864 0 0 1 5.03-1.338v1.246a1 1 0 0 0 2 0v-1.25a13.87 13.87 0 0 1 5.136 1.373l-.543.94a1 1 0 1 0 1.732 1l.54-.936c1.46.993 2.72 2.255 3.715 3.713l-.936.54a1 1 0 0 0 1 1.733l.943-.543a13.905 13.905 0 0 1 1.377 5.138h-1.098a1 1 0 0 0 0 2h1.098a13.95 13.95 0 0 1-1.328 5.04l-.99-.57a1 1 0 1 0-1 1.732l.993.572a13.996 13.996 0 0 1-4.293 4.118 1 1 0 0 0 1.048 1.704c4.764-2.934 7.608-8.024 7.608-13.614 0-8.81-7.17-15.98-15.98-15.98zm7.378 12.862a1 1 0 0 0-1-1.732l-5.432 3.136a1.975 1.975 0 0 0-.977-.265 1.995 1.995 0 1 0 1.994 1.995v-.006l5.415-3.128h-.002z"/></svg>