<?xml version="1.0" encoding="utf-8"?>
<!-- Generator: Adobe Illustrator 19.0.0, SVG Export Plug-In . SVG Version: 6.00 Build 0)  -->
<svg version="1.1" id="Layer_1" xmlns="http://www.w3.org/2000/svg" xmlns:xlink="http://www.w3.org/1999/xlink" x="0px" y="0px"
	 width="32px" height="32px" viewBox="-404 579.55 32 32" enable-background="new -404 579.55 32 32" xml:space="preserve">
<path fill="#FFFFFF" d="M-372.021,594.34c-0.043-0.354-0.175-0.678-0.378-0.952h0.005l-0.027-0.027
	c-0.102-0.135-0.223-0.254-0.357-0.36l-5.224-5.262v-3.227c0-0.553-0.448-1-1-1h-3.166l-3.65-3.116c-1.132-1.132-3.11-1.134-4.243,0
	l-3.638,3.116h-3.303c-0.553,0-1,0.447-1,1v3.293l-5.098,5.098c-0.542,0.358-0.902,0.972-0.902,1.667v14.984c0,1.099,0.9,2,2,2h28
	c1.099,0,2-0.901,2-2v-14.945c0.007-0.09-0.002-0.18-0.02-0.269H-372.021z M-395.598,602.222l-6.404,5.94v-11.59l6.404,5.651
	V602.222z M-393.67,603.16c0.132-0.056,0.254-0.142,0.355-0.257c0.053-0.061,0.095-0.127,0.132-0.195l4.309-3.998
	c0.226-0.183,0.495-0.279,0.777-0.279c0.287,0,0.574,0.101,0.767,0.25l11.995,10.873h-25.229L-393.67,603.16L-393.67,603.16z
	 M-380.302,602.354l6.3-5.59v11.301L-380.302,602.354L-380.302,602.354z M-375.939,592.57h-0.03l1.715,1.744l-3.747,3.326v-7.131
	l2.063,2.062L-375.939,592.57z M-388.648,581.81c0.19-0.188,0.441-0.293,0.707-0.293c0.266,0,0.518,0.105,0.708,0.293l2.02,1.702
	h-5.451l2.017-1.702H-388.648z M-380.002,585.512v13.902l-1.791,1.59l-4.26-3.861c-1.177-0.923-2.868-0.963-4.115,0.043l-3.957,3.67
	l-1.877-1.657v-13.687H-380.002z M-400.757,593.388l2.755-2.754v6.8l-3.644-3.216l0.844-0.831L-400.757,593.388L-400.757,593.388z"
	/>
</svg>
