<svg xmlns="http://www.w3.org/2000/svg" width="32" height="32" viewBox="-404 579.55 32 32"><path fill="#FFF" d="M-372.017 586.8a.98.98 0 0 0-.078-.57c-.252-1.108-1.052-1.68-2.405-1.68h-26c-1.19 0-2.472.438-3.103 1.296a.994.994 0 0 0-.38.957 2.21 2.21 0 0 0-.017.246v16c0 1.657 1.843 3.5 3.5 3.5h26c1.657 0 2.5-1.843 2.5-3.5v-16c0-.088-.012-.166-.017-.25zm-28.483-.25h26.014L-388 597.32l-13.46-10.726c.307-.056.684-.044.96-.044zm26 18h-26c-.55 0-1.5-.948-1.5-1.5v-14.326l13.345 10.677a.996.996 0 0 0 1.31 0L-374 588.726v14.326c0 .553.052 1.5-.5 1.5z"/></svg>