<?xml version="1.0" encoding="utf-8"?>
<!-- Generator: Adobe Illustrator 19.0.0, SVG Export Plug-In . SVG Version: 6.00 Build 0)  -->
<svg version="1.1" id="Layer_1" xmlns="http://www.w3.org/2000/svg" xmlns:xlink="http://www.w3.org/1999/xlink" x="0px" y="0px"
	 width="32px" height="32px" viewBox="-404 579.55 32 32" enable-background="new -404 579.55 32 32" xml:space="preserve">
<path fill="#FFFFFF" d="M-372.293,609.832l-9.716-9.776c1.811-2.169,2.902-4.96,2.902-8.007c0-6.904-5.596-12.5-12.5-12.5
	s-12.5,5.596-12.5,12.5c0,6.903,5.596,12.5,12.5,12.5c3.136,0,6.002-1.158,8.197-3.067l9.703,9.764c0.39,0.39,1.024,0.39,1.415,0
	c0.391-0.39,0.39-1.023,0-1.415L-372.293,609.832z M-391.607,602.567c-5.808,0-10.517-4.709-10.517-10.517
	s4.708-10.517,10.517-10.517c5.809,0,10.517,4.708,10.517,10.517C-381.09,597.859-385.799,602.567-391.607,602.567z"/>
</svg>
