<?xml version="1.0" encoding="utf-8"?>
<!-- Generator: Adobe Illustrator 19.0.0, SVG Export Plug-In . SVG Version: 6.00 Build 0)  -->
<svg version="1.1" id="Layer_1" xmlns="http://www.w3.org/2000/svg" xmlns:xlink="http://www.w3.org/1999/xlink" x="0px" y="0px"
	 width="32px" height="32px" viewBox="-404 579.55 32 32" enable-background="new -404 579.55 32 32" xml:space="preserve">
<path fill="#FFFFFF" d="M-386,602.55h-1v-8.938c0-0.011-0.003-0.021-0.003-0.031S-387,593.56-387,593.55c0-0.552-0.448-1-1-1h-2
	c-0.552,0-1,0.448-1,1s0.448,1,1,1h1v8h-1c-0.552,0-1,0.448-1,1s0.448,1,1,1h4c0.552,0,1-0.448,1-1S-385.448,602.55-386,602.55z
	 M-388,590.55c1.105,0,2-0.896,2-2s-0.895-2-2-2s-2,0.896-2,2S-389.104,590.55-388,590.55z M-388,579.55c-8.836,0-16,7.163-16,16
	c0,8.837,7.163,16,16,16s16-7.163,16-16C-372,586.713-379.163,579.55-388,579.55z M-388,609.582c-7.72,0-14-6.312-14-14.032
	c0-7.72,6.28-14,14-14s14,6.28,14,14C-374,603.27-380.28,609.582-388,609.582z"/>
</svg>
