<?xml version="1.0" encoding="utf-8"?>
<!-- Generator: Adobe Illustrator 19.0.0, SVG Export Plug-In . SVG Version: 6.00 Build 0)  -->
<svg version="1.1" id="Layer_1" xmlns="http://www.w3.org/2000/svg" xmlns:xlink="http://www.w3.org/1999/xlink" x="0px" y="0px"
	 width="32px" height="32px" viewBox="-404 579.55 32 32" enable-background="new -404 579.55 32 32" xml:space="preserve">
<path fill="#FFFFFF" d="M-388,579.55c-8.836,0-16,7.163-16,16c0,8.837,7.163,16,16,16s16.001-7.163,16.001-16
	c0-8.837-7.163-16-16-16H-388z M-388,609.582c-7.72,0-14-6.312-14-14.032c0-7.72,6.28-14,14-14s14.001,6.28,14.001,14
	C-373.999,603.27-380.28,609.582-388,609.582z M-389.47,604.565h2.516v-2.539h-2.516V604.565z M-388.03,586.536
	c-1.465,0-2.672,0.395-3.62,1.184c-0.948,0.789-1.409,2.37-1.386,3.681l0.037,0.073h2.295c0-0.781,0.261-1.905,0.781-2.307
	c0.52-0.402,1.152-0.604,1.893-0.604c0.854,0,1.511,0.232,1.971,0.696c0.46,0.464,0.689,1.127,0.689,1.989
	c0,0.725-0.17,1.343-0.512,1.855c-0.343,0.512-0.916,1.245-1.721,2.197c-0.831,0.749-1.344,1.351-1.538,1.806
	c-0.194,0.455-0.297,1.274-0.305,2.453h2.405c0-0.74,0.047-1.285,0.14-1.636c0.093-0.351,0.36-0.744,0.799-1.184
	c0.945-0.911,1.703-1.802,2.277-2.674c0.573-0.87,0.86-1.831,0.86-2.881c0-1.465-0.443-2.607-1.331-3.424s-2.134-1.226-3.736-1.226
	L-388.03,586.536z"/>
</svg>
