<svg xmlns="http://www.w3.org/2000/svg" width="32" height="32" viewBox="-404 579.55 32 32"><path fill="#FFF" d="M-373.867 581.102c-1.09-1.044-2.29-1.573-3.575-1.573-2.006 0-3.47 1.295-3.87 1.692-.564.558-19.786 19.788-19.786 19.788a1.03 1.03 0 0 0-.264.456c-.433 1.602-2.605 8.71-2.627 8.782-.11.364-.01.76.258 1.03a1.01 1.01 0 0 0 1.024.245c.073-.024 7.41-2.395 8.618-2.756a1.02 1.02 0 0 0 .423-.25c.763-.755 18.69-18.484 19.88-19.713 1.232-1.268 1.844-2.59 1.82-3.925-.025-1.32-.664-2.59-1.9-3.777zm-7.763 3.318c.51.123 1.71.527 2.938 1.765 1.24 1.25 1.575 2.68 1.638 3.007a11361.257 11361.257 0 0 1-16.55 16.396 8.226 8.226 0 0 0-1.72-2.555 8.88 8.88 0 0 0-2.93-1.985c3.53-3.532 12.75-12.757 16.624-16.628zm-17.983 18.316c.55.146 1.69.57 2.854 1.742.897.904 1.32 1.9 1.51 2.508-1.39.447-4.434 1.497-6.367 2.12.573-1.885 1.54-4.82 2.004-6.37zm24.376-15.362l-.19.193a8.26 8.26 0 0 0-1.83-2.828 8.875 8.875 0 0 0-2.773-1.918l.14-.14c.115-.113 1.154-1.106 2.448-1.106.745 0 1.477.34 2.175 1.01.828.795 1.256 1.58 1.27 2.33.014.77-.404 1.596-1.24 2.458z"/></svg>