<svg xmlns="http://www.w3.org/2000/svg" width="32" height="32" viewBox="-404 579.55 32 32"><path fill="#FFF" d="M-386.012 582.47a1 1 0 0 0 0 2c7.076 0 12.012 5.17 12.012 12.246 0 7.077-5.757 12.834-12.834 12.834s-12.248-5.113-12.248-12.19a1 1 0 0 0-2 0c0 8.18 6.07 14.19 14.248 14.19 8.18 0 14.834-6.654 14.834-14.834 0-8.178-5.834-14.247-14.012-14.247zm-2.98 11.088V580.55a1 1 0 0 0-1-1A13.94 13.94 0 0 0-404 593.558a1 1 0 0 0 1 1h13.008a1 1 0 0 0 1-1zm-2-1h-10.967c.484-5.89 5.078-10.484 10.968-10.967v10.968z"/></svg>