<?xml version="1.0" encoding="utf-8"?>
<!-- Generator: Adobe Illustrator 19.0.0, SVG Export Plug-In . SVG Version: 6.00 Build 0)  -->
<svg version="1.1" id="Layer_1" xmlns="http://www.w3.org/2000/svg" xmlns:xlink="http://www.w3.org/1999/xlink" x="0px" y="0px"
	 width="32px" height="32px" viewBox="-404 579.5 32 32" style="enable-background:new -404 579.5 32 32;" xml:space="preserve">
<style type="text/css">
	.st0{fill:#FFFFFF;}
</style>
<path class="st0" d="M-373.2,588.9l-5.6-6c-0.2-0.2-0.5-0.3-0.7-0.3h-8.3v-2.1c0-0.5-0.4-0.9-1-0.9s-0.9,0.4-0.9,0.9v2.1h-11
	c-0.6,0-1,0.4-1,1v12c0,0.6,0.4,1,1,1h11v14.1c0,0.5,0.4,0.9,1,0.9s1-0.4,1-0.9v-14.1h8.4c0.3,0,0.5-0.1,0.7-0.3l5.6-6
	C-372.8,589.8-372.8,589.3-373.2,588.9L-373.2,588.9z M-379.9,594.5h-19.9v-10h19.9l4.7,5L-379.9,594.5z"/>
</svg>
