<?xml version="1.0" encoding="utf-8"?>
<!-- Generator: Adobe Illustrator 19.0.0, SVG Export Plug-In . SVG Version: 6.00 Build 0)  -->
<svg version="1.1" id="Layer_1" xmlns="http://www.w3.org/2000/svg" xmlns:xlink="http://www.w3.org/1999/xlink" x="0px" y="0px"
	 width="32px" height="32px" viewBox="-404 579.55 32 32" enable-background="new -404 579.55 32 32" xml:space="preserve">
<path fill="#FFFFFF" d="M-374.227,587.516H-378v-7.952h-20.001v7.952h-3.772c-1.228,0-2.228,1-2.228,2.229v13.559
	c0,1.23,1,2.229,2.228,2.229h3.772v6H-378v-6h3.773c1.229,0,2.229-1,2.229-2.23v-13.559
	C-371.998,588.515-372.998,587.515-374.227,587.516L-374.227,587.516z M-396,581.534h16.001v5.982H-396V581.534z M-380,609.535
	h-16.001v-11.012H-380V609.535z M-373.998,603.305c0,0.128-0.102,0.23-0.229,0.23H-378v-7.012h-20.001v7.012h-3.772
	c-0.126,0-0.228-0.102-0.228-0.23v-13.559c0-0.127,0.103-0.229,0.228-0.229h27.546c0.126,0,0.229,0.102,0.229,0.229V603.305z
	 M-378,591.532h-1c-0.552,0-1,0.448-1,1s0.448,1,1,1h1c0.552,0,1-0.448,1-1S-377.448,591.532-378,591.532z"/>
</svg>
