<?xml version="1.0" encoding="UTF-8"?>
<svg width="20px" height="17px" viewBox="0 0 20 17" version="1.1" xmlns="http://www.w3.org/2000/svg" xmlns:xlink="http://www.w3.org/1999/xlink">
    <!-- Generator: Sketch 48.1 (47250) - http://www.bohemiancoding.com/sketch -->
    <title>0571-briefcase</title>
    <desc>Created with Sketch.</desc>
    <defs></defs>
    <g id="Page-1" stroke="none" stroke-width="1" fill="none" fill-rule="evenodd">
        <g id="0571-briefcase" fill="#FFFFFF" fill-rule="nonzero">
            <path d="M18.5,3 L14,3 L14,1.5 C14,0.673 13.327,0 12.5,0 L7.5,0 C6.673,0 6,0.673 6,1.5 L6,3 L1.5,3 C0.673,3 0,3.673 0,4.5 L0,15.5 C0,16.327 0.673,17 1.5,17 L18.5,17 C19.327,17 20,16.327 20,15.5 L20,4.5 C20,3.673 19.327,3 18.5,3 Z M7,1.5 C7,1.224 7.224,1 7.5,1 L12.5,1 C12.776,1 13,1.224 13,1.5 L13,3 L7,3 L7,1.5 Z M1.5,4 L18.5,4 C18.776,4 19,4.224 19,4.5 L19,12 L17,12 L17,11.5 C17,11.224 16.776,11 16.5,11 L14.5,11 C14.224,11 14,11.224 14,11.5 L14,12 L6,12 L6,11.5 C6,11.224 5.776,11 5.5,11 L3.5,11 C3.224,11 3,11.224 3,11.5 L3,12 L1,12 L1,4.5 C1,4.224 1.224,4 1.5,4 Z M16,12 L16,13 L15,13 L15,12 L16,12 Z M5,12 L5,13 L4,13 L4,12 L5,12 Z M18.5,16 L1.5,16 C1.224,16 1,15.776 1,15.5 L1,13 L3,13 L3,13.5 C3,13.776 3.224,14 3.5,14 L5.5,14 C5.776,14 6,13.776 6,13.5 L6,13 L14,13 L14,13.5 C14,13.776 14.224,14 14.5,14 L16.5,14 C16.776,14 17,13.776 17,13.5 L17,13 L19,13 L19,15.5 C19,15.776 18.776,16 18.5,16 Z" id="Shape"></path>
        </g>
    </g>
</svg>