<?xml version="1.0" encoding="utf-8"?>
<!-- Generator: Adobe Illustrator 19.0.0, SVG Export Plug-In . SVG Version: 6.00 Build 0)  -->
<svg version="1.1" id="Layer_1" xmlns="http://www.w3.org/2000/svg" xmlns:xlink="http://www.w3.org/1999/xlink" x="0px" y="0px"
	 width="32px" height="32px" viewBox="-404 579.55 32 32" enable-background="new -404 579.55 32 32" xml:space="preserve">
<path fill="#FFFFFF" d="M-372.551,586.298c-0.337-0.155-0.737-0.096-1.018,0.152l-5.041,4.528l-4.551-4.669l4.506-5.204
	c0.245-0.283,0.305-0.673,0.152-1.016c-0.153-0.343-0.489-0.553-0.86-0.553h-0.271c-2.785,0-7.593,0.239-9.739,2.417l-0.433,0.43
	c-2.29,2.336-2.697,6.168-1.49,9.081l-11.54,11.778c-1.556,1.578-1.556,4.135,0,5.713l1.409,1.428
	c0.778,0.788,1.798,1.183,2.818,1.183c1.02,0,2.04-0.395,2.817-1.183l11.71-11.804c1.107,0.599,2.625,0.989,3.899,0.989
	c2.043,0,3.98-0.824,5.454-2.32l0.427-0.433c2.331-2.364,2.296-7.415,2.306-9.638c0.001-0.378-0.216-0.721-0.555-0.878V586.298z
	 M-375.698,595.456l-0.371,0.434c-1.117,1.134-2.578,1.677-4.114,1.677c-0.76,0-1.784-0.143-2.476-0.431
	c-0.625-0.259-1.206-0.634-1.725-1.107l-12.818,12.925c-0.376,0.382-0.876,0.592-1.408,0.592c-0.532,0-1.032-0.21-1.409-0.592
	l-1.408-1.427c-0.777-0.788-0.777-2.07-0.001-2.858l12.524-12.777c-0.42-0.611-0.706-1.278-0.877-1.968h-0.001
	c-0.482-1.95-0.201-4.644,1.313-6.189l0.431-0.435c1.298-1.317,4.67-1.707,6.537-1.822l-3.668,4.236
	c-0.328,0.379-0.311,0.95,0.038,1.309l5.798,5.948c0.352,0.362,0.92,0.383,1.299,0.047l4.082-3.676
	c-0.122,1.98-0.506,4.856-1.748,6.115L-375.698,595.456z"/>
</svg>
