<?xml version="1.0" encoding="utf-8"?>
<!-- Generator: Adobe Illustrator 19.0.0, SVG Export Plug-In . SVG Version: 6.00 Build 0)  -->
<svg version="1.1" id="Layer_1" xmlns="http://www.w3.org/2000/svg" xmlns:xlink="http://www.w3.org/1999/xlink" x="0px" y="0px"
	 width="32px" height="32px" viewBox="-404 579.55 32 32" enable-background="new -404 579.55 32 32" xml:space="preserve">
<path fill="#FFFFFF" d="M-777.8,1168.45l-5.6-6c-0.2-0.2-0.5-0.3-0.7-0.3h-8.3v-2.1c0-0.5-0.4-0.9-1-0.9c-0.6,0-0.9,0.4-0.9,0.9v2.1
	h-11c-0.6,0-1,0.4-1,1v12c0,0.6,0.4,1,1,1h11v14.1c0,0.5,0.4,0.9,1,0.9s1-0.4,1-0.9v-14.1h8.4c0.3,0,0.5-0.1,0.7-0.3l5.6-6
	C-777.4,1169.35-777.4,1168.85-777.8,1168.45L-777.8,1168.45z M-784.5,1174.05h-19.9v-10h19.9l4.7,5L-784.5,1174.05z"/>
</svg>
