<?xml version="1.0" encoding="utf-8"?>
<!-- Generator: Adobe Illustrator 19.0.0, SVG Export Plug-In . SVG Version: 6.00 Build 0)  -->
<svg version="1.1" id="Layer_1" xmlns="http://www.w3.org/2000/svg" xmlns:xlink="http://www.w3.org/1999/xlink" x="0px" y="0px"
	 width="32px" height="32px" viewBox="-404 579.55 32 32" enable-background="new -404 579.55 32 32" xml:space="preserve">
<path fill="#FFFFFF" d="M-372.963,583.769l-10.03-4.159l-9.982,3.951l-10.062-3.949c-0.086-0.025-0.17-0.035-0.249-0.035
	c-0.41-0.002-0.714,0.304-0.714,0.765v25.938c0,0.549,0.433,1.121,0.963,1.267l10.073,3.974l9.969-4.047l10.032,3.942
	c0.086,0.023,0.17,0.035,0.249,0.035c0.41,0,0.714-0.305,0.714-0.765v-25.648C-372,584.489-372.433,583.916-372.963,583.769z
	 M-392,585.21l8-3.135v23.797l-8,3.162v-23.825V585.21z M-402,582.259l8,2.956v23.805l-8-3.259V582.259z M-374,608.863l-8-3.012
	v-23.744l8,3.45v23.307V608.863z"/>
</svg>
