<?xml version="1.0" encoding="utf-8"?>
<!-- Generator: Adobe Illustrator 19.0.0, SVG Export Plug-In . SVG Version: 6.00 Build 0)  -->
<svg version="1.1" id="Layer_1" xmlns="http://www.w3.org/2000/svg" xmlns:xlink="http://www.w3.org/1999/xlink" x="0px" y="0px"
	 width="32px" height="32px" viewBox="-404 579.55 32 32" enable-background="new -404 579.55 32 32" xml:space="preserve">
<path fill="#FFFFFF" d="M-384.509,579.543c-6.904,0-12.5,5.596-12.5,12.5c0,3.079,1.115,5.896,2.96,8.074l-3.979,4.003l-4.227-4.267
	c-0.39-0.39-1.024-0.39-1.414,0c-0.39,0.39-0.391,1.023,0,1.414l4.231,4.271l-4.261,4.287c-0.391,0.39-0.391,1.024,0,1.414
	s1.024,0.391,1.414,0l4.255-4.281l4.265,4.305c0.39,0.391,1.024,0.391,1.414,0c0.39-0.391,0.39-1.023,0-1.414l-4.269-4.309
	l3.982-4.006c2.186,1.874,5.024,3.009,8.129,3.009c6.904,0,12.5-5.596,12.5-12.5c0-6.904-5.596-12.5-12.499-12.5H-384.509z
	 M-384.509,602.56c-5.808,0-10.517-4.709-10.517-10.517c0-5.808,4.709-10.517,10.517-10.517s10.517,4.708,10.517,10.517
	C-373.992,597.851-378.7,602.56-384.509,602.56z"/>
</svg>
