<?xml version="1.0" encoding="utf-8"?>
<!-- Generator: Adobe Illustrator 19.0.0, SVG Export Plug-In . SVG Version: 6.00 Build 0)  -->
<svg version="1.1" id="Layer_1" xmlns="http://www.w3.org/2000/svg" xmlns:xlink="http://www.w3.org/1999/xlink" x="0px" y="0px"
	 width="32px" height="32px" viewBox="-404 579.55 32 32" enable-background="new -404 579.55 32 32" xml:space="preserve">
<path fill="#FFFFFF" d="M-394.761,602.439c0.195,0.195,0.451,0.293,0.707,0.293c0.256,0,0.511-0.098,0.707-0.293l12.114-12.209
	c0.39-0.39,0.39-1.024,0-1.414c-0.39-0.39-1.023-0.39-1.414,0l-12.114,12.209C-395.152,601.415-395.152,602.048-394.761,602.439z
	 M-389.129,600.309c0.331,1.457-0.026,2.887-1.152,4.014l-4.039,3.914c-0.85,0.849-1.98,1.317-3.182,1.317
	c-1.202,0-2.332-0.468-3.182-1.317c-1.754-1.755-1.754-4.61-0.01-6.354l3.946-4.07c0.85-0.849,1.98-1.318,3.182-1.318
	c0.411,0,0.807,0.073,1.193,0.18l1.561-1.561c-0.871-0.407-1.811-0.619-2.754-0.619c-1.664,0-3.327,0.635-4.596,1.904l-3.936,4.061
	c-2.538,2.538-2.538,6.654,0,9.193c1.269,1.27,2.933,1.904,4.596,1.904c1.663,0,3.327-0.634,4.596-1.904l4.029-3.904
	c1.942-1.942,2.361-4.648,1.333-7.023l-1.585,1.585V600.309z M-373.902,581.449c-1.27-1.269-2.933-1.904-4.596-1.904
	c-1.664,0-3.328,0.635-4.596,1.904l-4.029,3.905c-2.012,2.013-2.423,5.014-1.244,7.438l1.552-1.552
	c-0.459-1.534-0.107-3.261,1.096-4.463l4.039-3.914c0.851-0.849,1.98-1.318,3.183-1.318c1.201,0,2.332,0.469,3.181,1.318
	c1.754,1.755,1.754,4.611,0.01,6.354l-4.039,4.039c-0.849,0.85-1.98,1.318-3.181,1.318c-0.306,0-0.576,0.031-0.87-0.029
	l-1.593,1.594c0.796,0.331,1.613,0.436,2.463,0.436c1.663,0,3.326-0.634,4.596-1.904l4.029-4.029c2.538-2.538,2.538-6.653,0-9.192
	L-373.902,581.449z"/>
</svg>
