<?xml version="1.0" encoding="UTF-8"?>
<svg width="17px" height="20px" viewBox="0 0 17 20" version="1.1" xmlns="http://www.w3.org/2000/svg" xmlns:xlink="http://www.w3.org/1999/xlink">
    <!-- Generator: Sketch 48.1 (47250) - http://www.bohemiancoding.com/sketch -->
    <title>icon-clipboard-check</title>
    <desc>Created with Sketch.</desc>
    <defs></defs>
    <g id="Page-1" stroke="none" stroke-width="1" fill="none" fill-rule="evenodd">
        <g id="icon-clipboard-check" fill="#FFFFFF" fill-rule="nonzero">
            <path d="M15.5,20 L1.5,20 C0.7,20 0,19.3 0,18.5 L0,4.5 C0,3.7 0.7,3 1.5,3 L2.5,3 C2.8,3 3,3.2 3,3.5 C3,3.8 2.8,4 2.5,4 L1.5,4 C1.2,4 1,4.2 1,4.5 L1,18.5 C1,18.8 1.2,19 1.5,19 L15.5,19 C15.8,19 16,18.8 16,18.5 L16,4.5 C16,4.2 15.8,4 15.5,4 L14.5,4 C14.2,4 14,3.8 14,3.5 C14,3.2 14.2,3 14.5,3 L15.5,3 C16.3,3 17,3.7 17,4.5 L17,18.5 C17,19.3 16.3,20 15.5,20 Z" id="Shape"></path>
            <path d="M12.5,5 C12.5,5 12.5,5 12.5,5 L4.5,5 C4.2,5 4,4.8 4,4.5 C4,3.5 4.5,2.7 5.3,2.3 C5.6,2.2 5.8,2.1 6,2 C6.2,0.8 7.2,0 8.5,0 C9.8,0 10.7,0.9 11,2 C11.2,2 11.5,2.1 11.8,2.3 C12.5,2.7 13,3.5 13,4.5 C13,4.5 13,4.5 13,4.5 C13,4.8 12.8,5 12.5,5 Z M5.1,4 L12,4 C11.9,3.6 11.7,3.4 11.4,3.2 C10.9,3 10.5,3 10.5,3 C10.2,3 10,2.8 10,2.5 C10,1.7 9.3,1 8.5,1 C7.7,1 7,1.7 7,2.5 C7,2.8 6.8,3 6.5,3 C6.5,3 6.1,3 5.7,3.2 C5.4,3.4 5.2,3.6 5.1,4 Z" id="Shape"></path>
            <path d="M8.5,3 C8.4,3 8.2,2.9 8.1,2.9 C8,2.9 8,2.6 8,2.5 C8,2.4 8.1,2.2 8.1,2.1 C8.2,2.1 8.4,2 8.5,2 C8.6,2 8.8,2.1 8.9,2.1 C8.9,2.2 9,2.4 9,2.5 C9,2.6 8.9,2.8 8.9,2.9 C8.8,2.9 8.6,3 8.5,3 Z" id="Shape"></path>
            <path d="M7,14 C6.9,14 6.7,14 6.6,13.9 L5.1,12.4 C4.9,12.2 4.9,11.9 5.1,11.7 C5.3,11.5 5.6,11.5 5.8,11.7 L7,12.8 L11.1,8.7 C11.3,8.5 11.6,8.5 11.8,8.7 C12,8.9 12,9.2 11.8,9.4 L7.3,13.9 C7.3,14 7.1,14 7,14 Z" id="Shape"></path>
        </g>
    </g>
</svg>