<?xml version="1.0" encoding="utf-8"?>
<!-- Generator: Adobe Illustrator 19.0.0, SVG Export Plug-In . SVG Version: 6.00 Build 0)  -->
<svg version="1.1" id="Layer_1" xmlns="http://www.w3.org/2000/svg" xmlns:xlink="http://www.w3.org/1999/xlink" x="0px" y="0px"
	 width="32px" height="32px" viewBox="-404 579.55 32 32" enable-background="new -404 579.55 32 32" xml:space="preserve">
<path fill="#FFFFFF" d="M-374.995,585.05h-26.009c-1.657,0-3,1.343-3,3v15c0,1.657,1.343,3,3,3h26.009c1.657,0,3-1.343,3-3v-15
	C-371.995,586.393-373.338,585.05-374.995,585.05z M-401.005,587.05h26.009c0.552,0,1,0.448,1,1v2h-28.009v-2
	C-402.005,587.498-401.556,587.05-401.005,587.05z M-374.995,604.05h-26.009c-0.552,0-1-0.448-1-1v-9h28.009v9
	C-373.995,603.602-374.443,604.05-374.995,604.05z"/>
</svg>
