<?xml version="1.0" encoding="utf-8"?>
<!-- Generator: Adobe Illustrator 19.0.0, SVG Export Plug-In . SVG Version: 6.00 Build 0)  -->
<svg version="1.1" id="Layer_1" xmlns="http://www.w3.org/2000/svg" xmlns:xlink="http://www.w3.org/1999/xlink" x="0px" y="0px"
	 width="32px" height="32px" viewBox="-404 579.55 32 32" enable-background="new -404 579.55 32 32" xml:space="preserve">
<path fill="#FFFFFF" d="M-382.613,584.509c1.652,0,3.145,0.676,4.195,1.761c1.308-0.253,2.54-0.714,3.648-1.353
	c-0.428,1.301-1.34,2.393-2.526,3.083c1.16-0.136,2.27-0.434,3.301-0.88c-0.773,1.117-1.745,2.1-2.868,2.886
	c0.011,0.239,0.017,0.479,0.017,0.72c0,7.367-5.782,15.863-16.354,15.863c-3.245,0-6.268-0.926-8.809-2.507
	c0.449,0.052,0.906,0.079,1.37,0.079c2.692,0,5.172-0.89,7.139-2.387c-2.517-0.043-4.641-1.657-5.369-3.87
	c0.351,0.066,0.711,0.101,1.082,0.101c0.522,0,1.032-0.067,1.513-0.195c-2.629-0.511-4.611-2.764-4.611-5.466
	c0-0.024,0-0.048,0-0.072c0.776,0.418,1.661,0.669,2.604,0.698c-1.543-1.001-2.558-2.705-2.558-4.639
	c0-1.022,0.284-1.981,0.779-2.801c2.834,3.371,7.069,5.591,11.847,5.825c-0.098-0.407-0.149-0.837-0.149-1.27
	c0-3.079,2.574-5.575,5.749-5.575V584.509z M-373.994,587.122h0.005H-373.994z M-382.613,582.509c-3.927,0-7.181,2.869-7.681,6.576
	c-3.213-0.646-6.135-2.346-8.235-4.842c-0.381-0.454-0.942-0.713-1.53-0.713c-0.052,0-0.104,0.002-0.157,0.006
	c-0.643,0.052-1.223,0.41-1.556,0.962c-0.698,1.157-1.065,2.482-1.065,3.833c0,0.902,0.162,1.78,0.469,2.601
	c-0.327,0.364-0.515,0.839-0.515,1.341v0.072c0,1.959,0.774,3.777,2.061,5.14c-0.074,0.343-0.058,0.702,0.055,1.046
	c0.444,1.349,1.251,2.512,2.298,3.398c-0.703,0.157-1.429,0.235-2.169,0.235c-0.392,0-0.772-0.021-1.133-0.066
	c-0.08-0.01-0.159-0.014-0.238-0.014c-0.84,0-1.603,0.529-1.885,1.337c-0.31,0.885,0.034,1.866,0.83,2.361
	c2.954,1.838,6.366,2.808,9.866,2.808c11.376,0,18.219-8.905,18.352-17.605c0.931-0.771,1.754-1.662,2.451-2.661
	c0.254-0.334,0.405-0.751,0.405-1.203c0-0.681-0.34-1.282-0.859-1.644c0.224-0.769-0.032-1.603-0.657-2.111
	c-0.365-0.297-0.813-0.448-1.262-0.448c-0.344,0-0.689,0.088-0.999,0.268c-0.661,0.381-1.368,0.683-2.113,0.899
	c-1.347-1.014-3.017-1.578-4.732-1.578l0,0L-382.613,582.509z"/>
</svg>
