<?xml version="1.0" encoding="utf-8"?>
<!-- Generator: Adobe Illustrator 19.0.0, SVG Export Plug-In . SVG Version: 6.00 Build 0)  -->
<svg version="1.1" id="Layer_1" xmlns="http://www.w3.org/2000/svg" xmlns:xlink="http://www.w3.org/1999/xlink" x="0px" y="0px"
	 width="32px" height="32px" viewBox="-404 579.55 32 32" enable-background="new -404 579.55 32 32" xml:space="preserve">
<path fill="#FFFFFF" d="M-372.022,580.258c0.005-0.203-0.043-0.384-0.174-0.513c-0.13-0.131-0.311-0.21-0.512-0.204l-0.366,0.009
	c-0.007,0-0.012,0.003-0.02,0.004l-9.172-0.032c-0.404,0.009-0.738,0.344-0.747,0.748l-0.001,0.513
	c0.061,0.476,0.436,0.755,0.84,0.746l6.726,0.014l-8.005,7.956c-2.171-1.82-4.969-2.918-8.024-2.918c-6.904,0-12.5,5.596-12.5,12.5
	s5.596,12.5,12.5,12.5c6.903,0,12.5-5.596,12.5-12.5c0-3.128-1.152-5.986-3.052-8.178l8.028-7.979l-0.029,6.848
	c-0.009,0.404,0.311,0.755,0.715,0.746l0.513-0.001c0.405-0.009,0.739-0.25,0.747-0.654l0.021-9.219c0-0.008-0.027-0.012-0.027-0.02
	l0.04-0.366H-372.022z M-380.962,599.079c0,5.808-4.709,10.517-10.517,10.517c-5.808,0-10.517-4.709-10.517-10.517
	c0-5.808,4.708-10.517,10.517-10.517C-385.671,588.561-380.962,593.27-380.962,599.079z"/>
</svg>
