<?xml version="1.0" encoding="utf-8"?>
<!-- Generator: Adobe Illustrator 19.0.0, SVG Export Plug-In . SVG Version: 6.00 Build 0)  -->
<svg version="1.1" id="Layer_1" xmlns="http://www.w3.org/2000/svg" xmlns:xlink="http://www.w3.org/1999/xlink" x="0px" y="0px"
	 width="32px" height="32px" viewBox="-404 579.55 32 32" enable-background="new -404 579.55 32 32" xml:space="preserve">
<path fill="#FFFFFF" d="M-380.687,605.652l-6.296-3.488c2.34-1.841,2.976-5.459,2.976-7.488v-4.223c0-2.796-3.715-5.91-7.447-5.91
	c-3.73,0-7.544,3.114-7.544,5.91v4.223c0,1.845,0.78,5.576,3.144,7.471l-6.458,3.503c0,0-1.688,0.752-1.688,1.689v2.534
	c0,0.933,0.757,1.69,1.688,1.69h21.625c0.931,0,1.689-0.757,1.689-1.689v-2.534C-378.998,606.346-380.687,605.651-380.687,605.652
	L-380.687,605.652z M-380.999,609.565H-402v-1.788c0.143-0.105,0.344-0.226,0.502-0.298c0.047-0.021,0.094-0.044,0.139-0.07
	l6.459-3.503c0.589-0.32,0.979-0.912,1.039-1.579c0.06-0.667-0.219-1.32-0.741-1.739c-1.677-1.345-2.396-4.322-2.396-5.911v-4.223
	c0-1.437,2.708-3.91,5.544-3.91c2.889,0,5.447,2.44,5.447,3.91v4.223c0,1.566-0.486,4.557-2.212,5.915
	c-0.528,0.416-0.813,1.07-0.757,1.739s0.446,1.267,1.035,1.589l6.296,3.488c0.055,0.03,0.126,0.064,0.184,0.089
	c0.148,0.063,0.329,0.167,0.462,0.259V609.565z M-373.689,600.673l-6.39-3.488c2.34-1.841,3.07-5.459,3.07-7.488v-4.223
	c0-2.796-3.808-5.941-7.54-5.941c-2.425,0-4.904,1.319-6.348,3.007c0.823,0.051,1.73,0.052,2.514,0.302
	c1.054-0.821,2.386-1.308,3.833-1.308c2.889,0,5.54,2.47,5.54,3.942v4.223c0,1.566-0.58,4.557-2.305,5.915
	c-0.529,0.416-0.813,1.07-0.757,1.739c0.056,0.67,0.445,1.267,1.035,1.589l6.389,3.488c0.055,0.03,0.126,0.064,0.184,0.089
	c0.148,0.063,0.329,0.167,0.462,0.259v1.779h-4.037c0.61,0.46,0.794,1.118,1.03,2h3.319c0.931,0,1.688-0.757,1.688-1.689v-2.503
	c0-0.995-1.689-1.691-1.689-1.691L-373.689,600.673z"/>
</svg>
