<?xml version="1.0" encoding="utf-8"?>
<!-- Generator: Adobe Illustrator 19.0.0, SVG Export Plug-In . SVG Version: 6.00 Build 0)  -->
<svg version="1.1" id="Layer_1" xmlns="http://www.w3.org/2000/svg" xmlns:xlink="http://www.w3.org/1999/xlink" x="0px" y="0px"
	 width="32px" height="32px" viewBox="-404 579.55 32 32" enable-background="new -404 579.55 32 32" xml:space="preserve">
<path fill="#FFFFFF" d="M-380.155,587.674c-1.395-3.701-4.393-6.045-8.921-6.045c-5.762,0-9.793,4.279-10.14,9.861
	c-2.778,0.889-4.784,3.723-4.784,6.932c0,3.93,3.089,7.249,6.745,7.249h2.889c0.552,0,1-0.448,1-1s-0.448-1-1-1h-2.889
	c-2.572,0-4.776-2.404-4.776-5.249c0-2.514,1.763-4.783,3.974-5.163l0.907-0.156l-0.08-0.916l-0.008-0.011
	c0-4.871,3.205-8.545,8.161-8.545c3.972,0,6.204,1.957,7.235,5.295l0.214,0.688l0.721,0.015c3.715,0.078,6.972,3.092,6.972,6.836
	c0,3.408-2.259,7.206-5.678,7.206h-2.285c-0.552,0-1,0.448-1,1s0.448,1,1,1l2.277-0.003c5-0.132,7.604-4.909,7.604-9.203
	c0-4.616-3.617-8.305-8.14-8.791H-380.155z M-387.25,595.642c-0.006-0.006-0.008-0.011-0.011-0.016l-0.253-0.264
	c-0.139-0.146-0.323-0.219-0.508-0.218c-0.184-0.002-0.368,0.072-0.509,0.218l-0.253,0.264c-0.005,0.005-0.006,0.011-0.011,0.016
	l-3.61,3.992c-0.28,0.292-0.28,0.765,0,1.058l0.252,0.171c0.28,0.292,0.732,0.198,1.011-0.095l2.128-2.373v10.076
	c0,0.552,0.448,1,1,1s1-0.448,1-1v-10.066l2.199,2.426c0.279,0.292,0.732,0.387,1.011,0.095l0.252-0.171
	c0.279-0.293,0.279-0.765,0-1.058l-3.7-4.055H-387.25z"/>
</svg>
