<svg xmlns="http://www.w3.org/2000/svg" width="32" height="32" viewBox="-404 579.55 32 32"><path fill="#FFF" d="M-398.603 611.038c-1.356 0-2.66-.56-3.697-1.6a5.94 5.94 0 0 1 0-8.373l17.946-19.057c2.8-2.804 7.09-2.553 10.22.582 1.4 1.405 2.19 3.43 2.16 5.56-.03 2.106-.853 4.122-2.26 5.53l-13.563 14.44a.997.997 0 0 1-1.413.043 1.005 1.005 0 0 1-.043-1.417l13.584-14.46c1.064-1.066 1.673-2.576 1.696-4.165.023-1.59-.552-3.09-1.574-4.113-1.92-1.924-5.046-2.932-7.37-.602l-17.945 19.057c-1.543 1.547-1.542 4.032-.02 5.558.714.715 1.562 1.063 2.464 1.008.894-.055 1.812-.512 2.586-1.288l14.28-15.198c.516-.518 1.557-1.79.498-2.85-.6-.602-1.02-.564-1.16-.553-.394.034-.857.308-1.336.79l-10.748 11.43a.998.998 0 0 1-1.414.043 1.004 1.004 0 0 1-.043-1.416l10.767-11.452c.846-.85 1.712-1.312 2.593-1.39.688-.062 1.71.084 2.753 1.13 1.548 1.55 1.355 3.826-.477 5.663l-14.28 15.197c-1.14 1.144-2.517 1.808-3.897 1.893-.1.007-.203.01-.304.01h-.003z"/></svg>
