<?xml version="1.0" encoding="utf-8"?>
<!-- Generator: Adobe Illustrator 19.0.0, SVG Export Plug-In . SVG Version: 6.00 Build 0)  -->
<svg version="1.1" id="Layer_1" xmlns="http://www.w3.org/2000/svg" xmlns:xlink="http://www.w3.org/1999/xlink" x="0px" y="0px"
	 width="32px" height="32px" viewBox="-404 579.55 32 32" enable-background="new -404 579.55 32 32" xml:space="preserve">
<path fill="#FFFFFF" d="M-391.428,595.358l1.227-1.726l-4.197-5.728h-9.517v2h8.484l4.002,5.454H-391.428z M-375.288,589.904
	l-2.423,2.173c-0.292,0.28-0.387,0.732-0.095,1.011l0.171,0.252c0.293,0.28,0.765,0.28,1.057,0l3.992-3.61
	c0.006-0.005,0.012-0.006,0.017-0.011l0.265-0.253c0.146-0.14,0.219-0.324,0.218-0.509c0.001-0.184-0.072-0.368-0.218-0.507
	l-0.265-0.253c-0.005-0.005-0.011-0.007-0.017-0.011l-4.054-3.701c-0.293-0.279-0.764-0.279-1.058,0l-0.171,0.252
	c-0.293,0.279-0.198,0.731,0.095,1.01l2.377,2.155h-7.242l-12.791,18h-8.484v2h9.516l12.791-18h6.319V589.904z M-372.569,606.199
	c-0.005-0.005-0.011-0.007-0.017-0.012l-4.054-3.701c-0.293-0.279-0.764-0.279-1.058,0l-0.171,0.252
	c-0.293,0.279-0.198,0.732,0.095,1.011l2.386,2.163l-6.219-0.009l-3.576-5.532l-1.227,1.727l3.77,5.805l7.342,0.009l-2.413,2.164
	c-0.292,0.279-0.387,0.733-0.095,1.012l0.171,0.252c0.293,0.28,0.765,0.28,1.057,0l3.992-3.61c0.006-0.005,0.012-0.006,0.017-0.011
	l0.265-0.253c0.146-0.14,0.219-0.324,0.218-0.509c0.001-0.183-0.072-0.368-0.218-0.507l-0.265-0.253V606.199z"/>
</svg>
