<?xml version="1.0" encoding="UTF-8"?>
<svg width="20px" height="20px" viewBox="0 0 20 20" version="1.1" xmlns="http://www.w3.org/2000/svg" xmlns:xlink="http://www.w3.org/1999/xlink">
    <!-- Generator: Sketch 48.1 (47250) - http://www.bohemiancoding.com/sketch -->
    <title>Shape</title>
    <desc>Created with Sketch.</desc>
    <defs></defs>
    <g id="Page-1" stroke="none" stroke-width="1" fill="none" fill-rule="evenodd">
        <g id="0111-key" fill="#418542" fill-rule="nonzero">
            <path d="M15,0 C12.239,0 10,2.239 10,5 C10,6.072 10.338,7.066 10.913,7.88 L0.147,18.646 C-0.048,18.841 -0.048,19.158 0.147,19.353 C0.245,19.451 0.373,19.499 0.501,19.499 C0.629,19.499 0.757,19.45 0.855,19.353 L2.001,18.207 L3.647,19.853 C3.745,19.951 3.873,19.999 4.001,19.999 C4.129,19.999 4.257,19.95 4.355,19.853 C4.55,19.658 4.55,19.341 4.355,19.146 L2.709,17.5 L3.502,16.707 L5.148,18.353 C5.246,18.451 5.374,18.499 5.502,18.499 C5.63,18.499 5.758,18.45 5.856,18.353 C6.051,18.158 6.051,17.841 5.856,17.646 L4.21,16 L11.573,8.637 C12.468,9.482 13.675,10 15.003,10 C17.764,10 20.003,7.761 20.003,5 C20.003,2.239 17.764,0 15.003,0 L15,0 Z M17.828,7.828 C17.072,8.584 16.068,9 15,9 C13.932,9 12.927,8.584 12.172,7.828 C11.416,7.072 11,6.068 11,5 C11,3.932 11.416,2.927 12.172,2.172 C12.928,1.416 13.932,1 15,1 C16.068,1 17.073,1.416 17.828,2.172 C18.584,2.928 19,3.932 19,5 C19,6.068 18.584,7.073 17.828,7.828 Z" id="Shape"></path>
        </g>
    </g>
</svg>