<?xml version="1.0" encoding="utf-8"?>
<!-- Generator: Adobe Illustrator 21.1.0, SVG Export Plug-In . SVG Version: 6.00 Build 0)  -->
<svg version="1.1" id="Layer_1" xmlns="http://www.w3.org/2000/svg" xmlns:xlink="http://www.w3.org/1999/xlink" x="0px" y="0px"
	 viewBox="0 0 20 20" style="enable-background:new 0 0 20 20;" xml:space="preserve">
<style type="text/css">
	.st0{fill:#418541;}
</style>
<path class="st0" d="M14.5,20h-13C0.7,20,0,19.3,0,18.5v-16C0,1.7,0.7,1,1.5,1h13C15.3,1,16,1.7,16,2.5v2C16,4.8,15.8,5,15.5,5
	S15,4.8,15,4.5v-2C15,2.2,14.8,2,14.5,2h-13C1.2,2,1,2.2,1,2.5v16C1,18.8,1.2,19,1.5,19h13c0.3,0,0.5-0.2,0.5-0.5v-4
	c0-0.3,0.2-0.5,0.5-0.5s0.5,0.2,0.5,0.5v4C16,19.3,15.3,20,14.5,20z"/>
<path class="st0" d="M10.5,5h-7C3.2,5,3,4.8,3,4.5S3.2,4,3.5,4h7C10.8,4,11,4.2,11,4.5S10.8,5,10.5,5z"/>
<path class="st0" d="M12.5,7h-9C3.2,7,3,6.8,3,6.5S3.2,6,3.5,6h9C12.8,6,13,6.2,13,6.5S12.8,7,12.5,7z"/>
<path class="st0" d="M11.5,9h-8C3.2,9,3,8.8,3,8.5S3.2,8,3.5,8h8C11.8,8,12,8.2,12,8.5S11.8,9,11.5,9z"/>
<path class="st0" d="M8.5,11h-5C3.2,11,3,10.8,3,10.5S3.2,10,3.5,10h5C8.8,10,9,10.2,9,10.5S8.8,11,8.5,11z"/>
<path class="st0" d="M8.5,17c-0.1,0-0.3-0.1-0.4-0.2C8,16.7,8,16.5,8,16.4l1-3.5c0-0.1,0.1-0.2,0.1-0.2l7.5-7.5
	c0.2-0.2,0.5-0.2,0.7,0l2.5,2.5c0.2,0.2,0.2,0.5,0,0.7L12.4,16c-0.1,0.1-0.1,0.1-0.2,0.1L8.6,17C8.6,17,8.5,17,8.5,17L8.5,17z
	 M9.9,13.3l-0.7,2.5l2.5-0.6L18.8,8L17,6.2L9.9,13.3L9.9,13.3z"/>
<path class="st0" d="M6.5,17h-3C3.2,17,3,16.8,3,16.5S3.2,16,3.5,16h3C6.8,16,7,16.2,7,16.5S6.8,17,6.5,17z"/>
</svg>
