<?xml version="1.0" encoding="utf-8"?>
<!-- Generator: Adobe Illustrator 21.1.0, SVG Export Plug-In . SVG Version: 6.00 Build 0)  -->
<svg version="1.1" id="Layer_1" xmlns="http://www.w3.org/2000/svg" xmlns:xlink="http://www.w3.org/1999/xlink" x="0px" y="0px"
	 viewBox="0 0 20 20" style="enable-background:new 0 0 20 20;" xml:space="preserve">
<style type="text/css">
	.st0{fill:#418541;}
</style>
<path class="st0" d="M16.5,20h-13C2.7,20,2,19.3,2,18.5v-16C2,1.7,2.7,1,3.5,1h13C17.3,1,18,1.7,18,2.5v16C18,19.3,17.3,20,16.5,20z
	 M3.5,2C3.2,2,3,2.2,3,2.5v16C3,18.8,3.2,19,3.5,19h13c0.3,0,0.5-0.2,0.5-0.5v-16C17,2.2,16.8,2,16.5,2H3.5z"/>
<path class="st0" d="M12.5,5h-7C5.2,5,5,4.8,5,4.5S5.2,4,5.5,4h7C12.8,4,13,4.2,13,4.5S12.8,5,12.5,5z"/>
<path class="st0" d="M14.5,7h-9C5.2,7,5,6.8,5,6.5S5.2,6,5.5,6h9C14.8,6,15,6.2,15,6.5S14.8,7,14.5,7z"/>
<path class="st0" d="M14.5,9h-9C5.2,9,5,8.8,5,8.5S5.2,8,5.5,8h9C14.8,8,15,8.2,15,8.5S14.8,9,14.5,9z"/>
<path class="st0" d="M10.5,11h-5C5.2,11,5,10.8,5,10.5S5.2,10,5.5,10h5c0.3,0,0.5,0.2,0.5,0.5S10.8,11,10.5,11z"/>
<path class="st0" d="M14.5,15h-9C5.2,15,5,14.8,5,14.5S5.2,14,5.5,14h9c0.3,0,0.5,0.2,0.5,0.5S14.8,15,14.5,15z"/>
<path class="st0" d="M12.5,17h-7C5.2,17,5,16.8,5,16.5S5.2,16,5.5,16h7c0.3,0,0.5,0.2,0.5,0.5S12.8,17,12.5,17z"/>
</svg>
