<?xml version="1.0" encoding="utf-8"?>
<!-- Generator: Adobe Illustrator 21.1.0, SVG Export Plug-In . SVG Version: 6.00 Build 0)  -->
<svg version="1.1" id="Layer_1" xmlns="http://www.w3.org/2000/svg" xmlns:xlink="http://www.w3.org/1999/xlink" x="0px" y="0px"
	 viewBox="0 0 20 20" style="enable-background:new 0 0 20 20;" xml:space="preserve">
<style type="text/css">
	.st0{fill:#418541;}
</style>
<path class="st0" d="M14,6h1v1h-1V6z"/>
<path class="st0" d="M14,8h1v1h-1V8z"/>
<path class="st0" d="M14,10h1v1h-1V10z"/>
<path class="st0" d="M14,12h1v1h-1V12z"/>
<path class="st0" d="M14,16h1v1h-1V16z"/>
<path class="st0" d="M14,14h1v1h-1V14z"/>
<path class="st0" d="M6,6h1v1H6V6z"/>
<path class="st0" d="M6,8h1v1H6V8z"/>
<path class="st0" d="M6,10h1v1H6V10z"/>
<path class="st0" d="M6,12h1v1H6V12z"/>
<path class="st0" d="M6,16h1v1H6V16z"/>
<path class="st0" d="M6,14h1v1H6V14z"/>
<path class="st0" d="M4,6h1v1H4V6z"/>
<path class="st0" d="M4,8h1v1H4V8z"/>
<path class="st0" d="M4,10h1v1H4V10z"/>
<path class="st0" d="M4,12h1v1H4V12z"/>
<path class="st0" d="M4,16h1v1H4V16z"/>
<path class="st0" d="M4,14h1v1H4V14z"/>
<path class="st0" d="M8,6h1v1H8V6z"/>
<path class="st0" d="M8,8h1v1H8V8z"/>
<path class="st0" d="M8,10h1v1H8V10z"/>
<path class="st0" d="M8,12h1v1H8V12z"/>
<path class="st0" d="M8,16h1v1H8V16z"/>
<path class="st0" d="M8,14h1v1H8V14z"/>
<path class="st0" d="M18.5,19H18V5.5c0-0.8-0.6-1.5-1.3-1.8L12,2.1V0.5c0-0.2-0.1-0.3-0.2-0.4S11.5,0,11.4,0l-9,2.7
	C1.6,3,1,3.7,1,4.5V19H0.5C0.2,19,0,19.2,0,19.5S0.2,20,0.5,20h18c0.3,0,0.5-0.2,0.5-0.5S18.8,19,18.5,19L18.5,19z M16.4,4.7
	C16.7,4.8,17,5.2,17,5.5V19h-5V3.2L16.4,4.7z M2,4.5c0-0.3,0.3-0.7,0.6-0.8L11,1.2V19H2V4.5z"/>
</svg>
