<?xml version="1.0" encoding="utf-8"?>
<!-- Generator: Adobe Illustrator 21.1.0, SVG Export Plug-In . SVG Version: 6.00 Build 0)  -->
<svg version="1.1" id="Layer_1" xmlns="http://www.w3.org/2000/svg" xmlns:xlink="http://www.w3.org/1999/xlink" x="0px" y="0px"
	 viewBox="0 0 20 20" style="enable-background:new 0 0 20 20;" xml:space="preserve">
<style type="text/css">
	.st0{fill:#418541;}
</style>
<path class="st0" d="M4.5,14C4.2,14,4,14.2,4,14.5v0C3.6,14.2,3.1,14,2.5,14C1.1,14,0,15.1,0,16.5S1.1,19,2.5,19
	c0.6,0,1.1-0.2,1.5-0.5v0C4,18.8,4.2,19,4.5,19S5,18.8,5,18.5v-4C5,14.2,4.8,14,4.5,14z M2.5,18C1.7,18,1,17.3,1,16.5S1.7,15,2.5,15
	S4,15.7,4,16.5S3.3,18,2.5,18z"/>
<path class="st0" d="M8.5,14c-0.6,0-1.1,0.2-1.5,0.5v-4C7,10.2,6.8,10,6.5,10S6,10.2,6,10.5v8C6,18.8,6.2,19,6.5,19S7,18.8,7,18.5v0
	C7.4,18.8,7.9,19,8.5,19c1.4,0,2.5-1.1,2.5-2.5S9.9,14,8.5,14z M8.5,18C7.7,18,7,17.3,7,16.5S7.7,15,8.5,15s1.5,0.7,1.5,1.5
	S9.3,18,8.5,18z"/>
<path class="st0" d="M14.5,19c-1.4,0-2.5-1.1-2.5-2.5s1.1-2.5,2.5-2.5c0.4,0,0.9,0.1,1.2,0.3c0.2,0.1,0.3,0.4,0.2,0.7
	s-0.4,0.3-0.7,0.2C15,15.1,14.8,15,14.5,15c-0.8,0-1.5,0.7-1.5,1.5s0.7,1.5,1.5,1.5c0.3,0,0.5-0.1,0.8-0.2c0.2-0.1,0.5-0.1,0.7,0.2
	s0.1,0.5-0.2,0.7C15.4,18.9,14.9,19,14.5,19L14.5,19z"/>
<path class="st0" d="M11.5,10.5c-0.1,0-0.3,0-0.4-0.1l-3-3C8,7.2,8,6.8,8.1,6.6c0.2-0.2,0.5-0.2,0.7,0l2.6,2.6l6.6-6.6
	c0.2-0.2,0.5-0.2,0.7,0s0.2,0.5,0,0.7l-7,7C11.8,10.5,11.6,10.5,11.5,10.5L11.5,10.5z"/>
</svg>
