<?xml version="1.0" encoding="UTF-8"?>
<svg width="28px" height="33px" viewBox="0 0 28 33" version="1.1" xmlns="http://www.w3.org/2000/svg" xmlns:xlink="http://www.w3.org/1999/xlink">
    <!-- Generator: Sketch 48.1 (47250) - http://www.bohemiancoding.com/sketch -->
    <title>icon-key</title>
    <desc>Created with Sketch.</desc>
    <defs></defs>
    <g id="Page-1" stroke="none" stroke-width="1" fill="none" fill-rule="evenodd">
        <g id="icon-key" fill="#50A450" fill-rule="nonzero">
            <path d="M18.49,0.55 C13.52,0.55 9.49,4.586 9.49,9.564 C9.49,11.796 10.304,13.834 11.646,15.408 C11.3605928,15.3884523 11.0806413,15.4930696 10.878,15.695 L0.803,25.832 C0.412618062,26.2224999 0.412618062,26.8555001 0.803,27.246 C0.81,27.254 0.819,27.258 0.827,27.266 C0.828752923,27.2688433 0.830761222,27.2715211 0.833,27.274 L5.737,32.271 C6.13058324,32.6406018 6.74649035,32.6310364 7.12840626,32.2493906 C7.51032217,31.8677448 7.52032331,31.2518446 7.151,30.858 L2.918,26.544 L5.496,23.95 L9.738,28.27 C9.98756451,28.5361344 10.3622617,28.6452326 10.7156845,28.5546663 C11.0691073,28.4641 11.3451582,28.1882443 11.4359745,27.8348857 C11.5267909,27.481527 11.4179578,27.1067527 11.152,26.857 L6.908,22.531 L12.295,17.111 C12.4948173,16.9110393 12.5996229,16.6351966 12.583,16.353 C14.2173655,17.7902039 16.319603,18.5823204 18.496,18.581 C23.466,18.581 27.496,14.545 27.496,9.566 C27.496,4.587 23.466,0.552 18.496,0.552 L18.494,0.552 L18.49,0.55 Z M18.49,16.55 C14.64,16.55 11.49,13.417 11.49,9.55 C11.49,5.683 14.64,2.55 18.49,2.55 C22.34,2.55 25.49,5.683 25.49,9.55 C25.49,13.417 22.343,16.55 18.49,16.55 Z" id="Shape"></path>
        </g>
    </g>
</svg>