<?xml version="1.0" encoding="utf-8"?>
<!-- Generator: Adobe Illustrator 21.1.0, SVG Export Plug-In . SVG Version: 6.00 Build 0)  -->
<svg version="1.1" id="Layer_1" xmlns="http://www.w3.org/2000/svg" xmlns:xlink="http://www.w3.org/1999/xlink" x="0px" y="0px"
	 viewBox="0 0 20 20" style="enable-background:new 0 0 20 20;" xml:space="preserve">
<style type="text/css">
	.st0{fill:#418541;}
</style>
<path class="st0" d="M15.7,10.1c-0.7-1.2-1.6-2.2-2.4-3c-0.5-0.6-1.1-1.2-1.3-1.6c0.3-0.2,0.6-0.4,0.8-0.6c0.2-0.2,0.2-0.5,0-0.7
	C12.7,4,12.4,4,12.2,4.1c0.2-0.7,0.7-1.5,1.6-2.2c0.2-0.1,0.3-0.4,0.1-0.6C13.9,1.2,13.3,0,12,0c-0.8,0-1.1,0.5-1.2,0.8
	C10.7,1,10.7,1,10.5,1c-0.4,0-0.8-0.2-1.3-0.5C8.7,0.3,8.1,0,7.5,0h0C6.3,0,5.3,1,5.1,1.1C5,1.3,5,1.4,5,1.5s0.1,0.3,0.2,0.4
	C5.9,2.5,6.5,3.2,6.8,4c0,0,0,0,0,0C6.6,4,6.3,4,6.1,4.1C6,4.3,6,4.7,6.1,4.9c0.2,0.2,0.4,0.4,0.8,0.6c-0.2,0.4-0.8,1-1.3,1.6
	c-0.7,0.8-1.6,1.8-2.4,3C2.4,11.6,2,13,2,14.5c0,2,0.8,3.5,2.2,4.4C5.5,19.7,7.1,20,9.5,20s4-0.3,5.3-1.1c1.5-0.9,2.2-2.4,2.2-4.4
	C17,13,16.6,11.6,15.7,10.1L15.7,10.1z M6.3,1.5C6.6,1.3,7.1,1,7.5,1h0c0.4,0,0.8,0.2,1.3,0.5C9.3,1.7,9.9,2,10.5,2
	c0.8,0,1.1-0.5,1.2-0.8C11.8,1,11.8,1,12,1c0.4,0,0.6,0.2,0.8,0.4c-1.4,1.2-1.7,2.7-1.8,3.4C10.7,4.9,10.2,5,9.5,5S8.3,4.9,8,4.8
	C7.9,4.2,7.6,2.7,6.3,1.5L6.3,1.5z M9.5,19C4.9,19,3,17.7,3,14.5c0-3,1.9-5.1,3.4-6.7C7.1,7,7.6,6.4,7.9,5.8C8.3,5.9,8.8,6,9.5,6
	s1.2-0.1,1.6-0.2c0.2,0.6,0.8,1.2,1.5,1.9c1.4,1.6,3.4,3.7,3.4,6.7C16,17.7,14.1,19,9.5,19L9.5,19z"/>
<g>
	<path class="st0" d="M5.7,12.1h0.6l0.7,1.1c0.4,0.6,0.5,1,0.6,1.1h0c0-0.2,0-0.5,0-1v-1.2h0.4v2.8H7.4l-0.7-1.2
		c-0.3-0.6-0.5-1-0.6-1.1h0c0,0.2,0,0.5,0,1.1v1.2H5.7V12.1z"/>
	<path class="st0" d="M8.4,13.5c0-0.9,0.4-1.5,1.2-1.5c0.8,0,1.2,0.6,1.2,1.5c0,0.9-0.4,1.5-1.2,1.5C8.8,15,8.4,14.4,8.4,13.5z
		 M10.3,13.5c0-0.8-0.2-1.2-0.7-1.2c-0.5,0-0.7,0.4-0.7,1.2s0.2,1.2,0.7,1.2C10.1,14.7,10.3,14.3,10.3,13.5z"/>
	<path class="st0" d="M11.3,12.1h0.5v1.2h0l1-1.2h0.5v0l-1.1,1.3l1.1,1.5v0h-0.6l-1-1.4h0v1.4h-0.5V12.1z"/>
</g>
</svg>
