<?xml version="1.0" encoding="UTF-8"?>
<svg width="20px" height="17px" viewBox="0 0 20 17" version="1.1" xmlns="http://www.w3.org/2000/svg" xmlns:xlink="http://www.w3.org/1999/xlink">
    <!-- Generator: Sketch 48.1 (47250) - http://www.bohemiancoding.com/sketch -->
    <title>icon-bubbles</title>
    <desc>Created with Sketch.</desc>
    <defs></defs>
    <g id="Page-1" stroke="none" stroke-width="1" fill="none" fill-rule="evenodd">
        <g id="icon-bubbles" transform="translate(0.000000, -1.000000)" fill="#418542" fill-rule="nonzero">
            <path d="M19.501,17 C19.501,17 19.501,17 19.5,17 C18.159,17 16.766,16.144 16.253,15.794 C15.69,15.93 15.102,16 14.5,16 C13.063,16 11.705,15.604 10.678,14.884 C9.596,14.127 9,13.102 9,12 C9,10.898 9.596,9.873 10.678,9.116 C11.706,8.397 13.063,8 14.5,8 C15.937,8 17.295,8.396 18.322,9.116 C19.404,9.873 20,10.898 20,12 C20,12.964 19.539,13.877 18.694,14.597 C18.776,14.828 19.033,15.324 19.839,16.132 C19.938,16.223 20,16.354 20,16.5 C20,16.776 19.776,17 19.5,17 L19.501,17 Z M16.353,14.752 C16.461,14.752 16.567,14.787 16.655,14.853 C16.665,14.86 17.33,15.357 18.158,15.695 C17.614,14.9 17.628,14.447 17.677,14.257 C17.706,14.148 17.77,14.052 17.86,13.984 C18.595,13.432 18.999,12.728 18.999,12 C18.999,11.233 18.555,10.5 17.748,9.935 C16.887,9.332 15.733,9 14.499,9 C13.265,9 12.111,9.332 11.25,9.935 C10.443,10.5 9.999,11.233 9.999,12 C9.999,12.767 10.443,13.5 11.25,14.065 C12.111,14.668 13.265,15 14.499,15 C15.094,15 15.672,14.923 16.217,14.77 C16.261,14.758 16.307,14.752 16.352,14.752 L16.353,14.752 Z" id="Shape"></path>
            <path d="M0.5,18 C0.275,18 0.078,17.85 0.018,17.633 C-0.042,17.416 0.05,17.186 0.243,17.071 C1.934,16.057 2.635,14.582 2.884,13.892 C1.046,12.485 -7.14706072e-16,10.538 -7.14706072e-16,8.5 C-7.14706072e-16,7.471 0.258,6.474 0.768,5.536 C1.254,4.642 1.948,3.841 2.829,3.155 C4.616,1.765 6.985,0.999 9.5,0.999 C11.778,0.999 13.981,1.643 15.702,2.813 C17.437,3.992 18.573,5.624 18.901,7.408 C18.951,7.68 18.771,7.94 18.5,7.99 C18.229,8.04 17.968,7.86 17.918,7.589 C17.639,6.07 16.652,4.668 15.14,3.64 C13.583,2.582 11.58,1.999 9.5,1.999 C4.813,1.999 1,4.915 1,8.499 C1,10.314 2.005,12.061 3.756,13.291 C3.928,13.412 4.006,13.627 3.952,13.83 C3.835,14.266 3.437,15.463 2.372,16.618 C3.674,16.162 5.076,15.371 6.111,14.659 C6.234,14.574 6.388,14.549 6.532,14.59 C7.48,14.861 8.479,14.999 9.5,14.999 C9.776,14.999 10,15.223 10,15.499 C10,15.775 9.776,15.999 9.5,15.999 C8.467,15.999 7.453,15.87 6.484,15.614 C6.055,15.9 5.253,16.407 4.295,16.884 C2.807,17.624 1.531,17.999 0.501,17.999 L0.5,18 Z" id="Shape"></path>
        </g>
    </g>
</svg>