<?xml version="1.0" encoding="utf-8"?>
<!-- Generator: Adobe Illustrator 21.1.0, SVG Export Plug-In . SVG Version: 6.00 Build 0)  -->
<svg version="1.1" id="Layer_1" xmlns="http://www.w3.org/2000/svg" xmlns:xlink="http://www.w3.org/1999/xlink" x="0px" y="0px"
	 viewBox="0 0 20 20" style="enable-background:new 0 0 20 20;" xml:space="preserve">
<style type="text/css">
	.st0{fill:#418541;}
</style>
<path class="st0" d="M17.5,20h-16C0.7,20,0,19.3,0,18.5v-16C0,1.7,0.7,1,1.5,1h16C18.3,1,19,1.7,19,2.5v16C19,19.3,18.3,20,17.5,20z
	 M1.5,2C1.2,2,1,2.2,1,2.5v16C1,18.8,1.2,19,1.5,19h16c0.3,0,0.5-0.2,0.5-0.5v-16C18,2.2,17.8,2,17.5,2H1.5z"/>
<path class="st0" d="M6.5,17h-2C4.2,17,4,16.8,4,16.5v-9C4,7.2,4.2,7,4.5,7h2C6.8,7,7,7.2,7,7.5v9C7,16.8,6.8,17,6.5,17z M5,16h1V8
	H5V16z"/>
<path class="st0" d="M10.5,17h-2C8.2,17,8,16.8,8,16.5v-12C8,4.2,8.2,4,8.5,4h2C10.8,4,11,4.2,11,4.5v12C11,16.8,10.8,17,10.5,17z
	 M9,16h1V5H9V16z"/>
<path class="st0" d="M14.5,17h-2c-0.3,0-0.5-0.2-0.5-0.5v-5c0-0.3,0.2-0.5,0.5-0.5h2c0.3,0,0.5,0.2,0.5,0.5v5
	C15,16.8,14.8,17,14.5,17z M13,16h1v-4h-1V16z"/>
</svg>
