<?xml version="1.0" encoding="utf-8"?>
<!-- Generator: Adobe Illustrator 21.1.0, SVG Export Plug-In . SVG Version: 6.00 Build 0)  -->
<svg version="1.1" id="Layer_1" xmlns="http://www.w3.org/2000/svg" xmlns:xlink="http://www.w3.org/1999/xlink" x="0px" y="0px"
	 viewBox="0 0 20 20" style="enable-background:new 0 0 20 20;" xml:space="preserve">
<style type="text/css">
	.st0{fill:#418541;}
</style>
<path class="st0" d="M16.5,20h-14C1.7,20,1,19.3,1,18.5v-14C1,3.7,1.7,3,2.5,3h1C3.8,3,4,3.2,4,3.5S3.8,4,3.5,4h-1
	C2.2,4,2,4.2,2,4.5v14C2,18.8,2.2,19,2.5,19h14c0.3,0,0.5-0.2,0.5-0.5v-14C17,4.2,16.8,4,16.5,4h-1C15.2,4,15,3.8,15,3.5
	S15.2,3,15.5,3h1C17.3,3,18,3.7,18,4.5v14C18,19.3,17.3,20,16.5,20z"/>
<path class="st0" d="M13.5,5C13.5,5,13.5,5,13.5,5h-8C5.2,5,5,4.8,5,4.5c0-1,0.5-1.8,1.3-2.2C6.6,2.2,6.8,2.1,7,2
	c0.2-1.2,1.2-2,2.5-2s2.2,0.9,2.5,2c0.2,0,0.5,0.1,0.8,0.3C13.5,2.7,14,3.5,14,4.5c0,0,0,0,0,0C14,4.8,13.8,5,13.5,5L13.5,5z M6.1,4
	h6.9c-0.1-0.4-0.3-0.6-0.6-0.8C11.9,3,11.5,3,11.5,3C11.2,3,11,2.8,11,2.5C11,1.7,10.3,1,9.5,1S8,1.7,8,2.5C8,2.8,7.8,3,7.5,3
	c0,0-0.4,0-0.8,0.2C6.4,3.4,6.2,3.6,6.1,4z"/>
<path class="st0" d="M9.5,3C9.4,3,9.2,2.9,9.1,2.9S9,2.6,9,2.5s0.1-0.3,0.1-0.4C9.2,2.1,9.4,2,9.5,2s0.3,0.1,0.4,0.1
	C9.9,2.2,10,2.4,10,2.5S9.9,2.8,9.9,2.9C9.8,2.9,9.6,3,9.5,3z"/>
<path class="st0" d="M8,14c-0.1,0-0.3,0-0.4-0.1l-1.5-1.5c-0.2-0.2-0.2-0.5,0-0.7s0.5-0.2,0.7,0L8,12.8l4.1-4.1
	c0.2-0.2,0.5-0.2,0.7,0s0.2,0.5,0,0.7l-4.5,4.5C8.3,14,8.1,14,8,14L8,14z"/>
</svg>
